LibreFranklin-Light.ufo
<glyph name="exclam" format="2">
  <advance width="239.3125"/>
  <unicode hex="0021"/>
  <outline>
    <contour>
      <point x="162.275" y="13.925" type="curve"/>
      <point x="162.275" y="88.225" type="line"/>
      <point x="162.275" y="95.3625"/>
      <point x="159.625" y="98.175"/>
      <point x="153.4875" y="98.175" type="curve"/>
      <point x="85.175" y="98.175" type="line" smooth="yes"/>
      <point x="80.0375" y="98.175"/>
      <point x="76.225" y="95.3625"/>
      <point x="76.225" y="87.0625" type="curve"/>
      <point x="76.225" y="12.4375" type="line" smooth="yes"/>
      <point x="76.225" y="3.8125"/>
      <point x="79.0375" y="0.0"/>
      <point x="88.9875" y="0.0" type="curve"/>
      <point x="146.025" y="0.0" type="line" smooth="yes"/>
      <point x="158.3" y="0.0"/>
      <point x="162.275" y="3.8125"/>
    </contour>
    <contour>
      <point x="143.375" y="178.425" type="curve"/>
      <point x="160.3875" y="733.5625" type="line"/>
      <point x="160.55" y="738.1875"/>
      <point x="157.575" y="742.0"/>
      <point x="152.4375" y="742.0" type="curve"/>
      <point x="86.55" y="742.0" type="line" smooth="yes"/>
      <point x="82.0875" y="742.0"/>
      <point x="78.95" y="739.025"/>
      <point x="79.275" y="732.4" type="curve"/>
      <point x="95.775" y="177.1" type="line" smooth="yes"/>
      <point x="96.1" y="170.15"/>
      <point x="98.425" y="167.175"/>
      <point x="106.7" y="167.175" type="curve"/>
      <point x="129.6375" y="167.175" type="line" smooth="yes"/>
      <point x="139.2375" y="167.175"/>
      <point x="143.05" y="170.15"/>
    </contour>
  </outline>
</glyph>
<glyph name="numbersign" format="2">
  <advance width="603.0"/>
  <unicode hex="0023"/>
  <outline>
    <contour>
      <point x="172.4125" y="10.9" type="curve"/>
      <point x="282.3" y="725.2125" type="line"/>
      <point x="283.4625" y="733.1875"/>
      <point x="280.4875" y="736.675"/>
      <point x="273.675" y="737.675" type="curve"/>
      <point x="243.6625" y="742.0" type="line" smooth="yes"/>
      <point x="239.3625" y="743.0"/>
      <point x="236.0375" y="738.8625"/>
      <point x="234.7125" y="733.075" type="curve"/>
      <point x="124.5" y="13.0875" type="line" smooth="yes"/>
      <point x="124.175" y="7.4875"/>
      <point x="126.8" y="5.4875"/>
      <point x="134.2375" y="4.1625" type="curve"/>
      <point x="160.5125" y="0.0" type="line" smooth="yes"/>
      <point x="167.925" y="-1.325"/>
      <point x="171.0875" y="1.975"/>
    </contour>
    <contour>
      <point x="378.825" y="10.9" type="curve"/>
      <point x="488.7125" y="725.2125" type="line"/>
      <point x="489.875" y="733.1875"/>
      <point x="486.9" y="736.675"/>
      <point x="480.0875" y="737.675" type="curve"/>
      <point x="450.075" y="742.0" type="line" smooth="yes"/>
      <point x="445.775" y="743.0"/>
      <point x="442.45" y="738.8625"/>
      <point x="441.125" y="733.075" type="curve"/>
      <point x="330.9125" y="13.0875" type="line" smooth="yes"/>
      <point x="330.5875" y="7.4875"/>
      <point x="333.2125" y="5.4875"/>
      <point x="340.65" y="4.1625" type="curve"/>
      <point x="366.925" y="0.0" type="line" smooth="yes"/>
      <point x="374.3375" y="-1.325"/>
      <point x="377.5" y="1.975"/>
    </contour>
    <contour>
      <point x="531.5" y="256.7" type="curve"/>
      <point x="531.5" y="284.6" type="line"/>
      <point x="531.5" y="289.9"/>
      <point x="527.85" y="292.875"/>
      <point x="522.7125" y="292.875" type="curve"/>
      <point x="45.775" y="292.875" type="line" smooth="yes"/>
      <point x="41.3125" y="292.875"/>
      <point x="38.5" y="289.9"/>
      <point x="38.5" y="283.275" type="curve"/>
      <point x="38.5" y="255.375" type="line" smooth="yes"/>
      <point x="38.5" y="248.425"/>
      <point x="41.15" y="245.45"/>
      <point x="49.425" y="245.45" type="curve"/>
      <point x="517.7625" y="245.45" type="line" smooth="yes"/>
      <point x="527.3625" y="245.45"/>
      <point x="531.5" y="248.425"/>
    </contour>
    <contour>
      <point x="564.5" y="466.7" type="curve"/>
      <point x="564.5" y="494.6" type="line"/>
      <point x="564.5" y="499.9"/>
      <point x="560.85" y="502.875"/>
      <point x="555.7125" y="502.875" type="curve"/>
      <point x="78.775" y="502.875" type="line" smooth="yes"/>
      <point x="74.3125" y="502.875"/>
      <point x="71.5" y="499.9"/>
      <point x="71.5" y="493.275" type="curve"/>
      <point x="71.5" y="465.375" type="line" smooth="yes"/>
      <point x="71.5" y="458.425"/>
      <point x="74.15" y="455.45"/>
      <point x="82.425" y="455.45" type="curve"/>
      <point x="550.7625" y="455.45" type="line" smooth="yes"/>
      <point x="560.3625" y="455.45"/>
      <point x="564.5" y="458.425"/>
    </contour>
  </outline>
</glyph>
<glyph name="dollar" format="2">
  <advance width="592.3625"/>
  <unicode hex="0024"/>
  <outline>
    <contour>
      <point x="553.6625" y="176.2125" type="curve"/>
      <point x="553.6625" y="176.2125" type="line"/>
      <point x="553.6625" y="272.5125"/>
      <point x="491.3875" y="337.6"/>
      <point x="379.825" y="381.7" type="curve"/>
      <point x="346.325" y="394.35" type="line" smooth="yes"/>
      <point x="337.1625" y="398.025"/>
      <point x="335.0" y="400.1875"/>
      <point x="335.0" y="408.8625" type="curve"/>
      <point x="335.0" y="680.475" type="line" smooth="yes"/>
      <point x="335.0" y="686.475"/>
      <point x="337.4875" y="689.8"/>
      <point x="344.8125" y="688.475" type="curve"/>
      <point x="403.2875" y="679.9875"/>
      <point x="455.25" y="652.9375"/>
      <point x="484.8125" y="617.0" type="curve"/>
      <point x="492.4375" y="608.025"/>
      <point x="495.575" y="607.8375"/>
      <point x="501.225" y="612.975" type="curve"/>
      <point x="531.2125" y="641.5125" type="line"/>
      <point x="537.7" y="647.65"/>
      <point x="535.5375" y="653.625"/>
      <point x="530.4" y="657.95" type="curve"/>
      <point x="480.375" y="707.725"/>
      <point x="423.025" y="739.6125"/>
      <point x="343.625" y="748.4" type="curve"/>
      <point x="337.65" y="748.8875"/>
      <point x="335.1625" y="751.725"/>
      <point x="335.1625" y="756.05" type="curve"/>
      <point x="335.1625" y="806.8" type="line" smooth="yes"/>
      <point x="335.1625" y="815.425"/>
      <point x="332.1875" y="818.75"/>
      <point x="324.8875" y="818.75" type="curve"/>
      <point x="290.975" y="818.75" type="line" smooth="yes"/>
      <point x="286.4875" y="818.75"/>
      <point x="283.5125" y="815.425"/>
      <point x="283.5125" y="810.2875" type="curve"/>
      <point x="283.5125" y="758.35" type="line" smooth="yes"/>
      <point x="283.5125" y="753.05"/>
      <point x="278.5625" y="749.4"/>
      <point x="273.75" y="749.075" type="curve"/>
      <point x="148.0125" y="736.5"/>
      <point x="62.2875" y="660.0375"/>
      <point x="62.2875" y="551.85" type="curve"/>
      <point x="62.2875" y="455.225"/>
      <point x="113.5875" y="406.125"/>
      <point x="263.1375" y="346.7875" type="curve"/>
      <point x="276.65" y="340.4375"/>
      <point x="284.35" y="333.25"/>
      <point x="284.35" y="321.4125" type="curve"/>
      <point x="284.1875" y="57.712500000000006" type="line" smooth="yes"/>
      <point x="284.1875" y="51.7375"/>
      <point x="281.7" y="49.7375"/>
      <point x="275.4" y="50.0625" type="curve"/>
      <point x="185.3625" y="52.0125"/>
      <point x="133.9875" y="86.3875"/>
      <point x="85.9125" y="148.375" type="curve"/>
      <point x="81.45" y="153.5125"/>
      <point x="73.125" y="153.675"/>
      <point x="66.825" y="148.725" type="curve"/>
      <point x="40.9125" y="126.2125" type="line" smooth="yes"/>
      <point x="34.9375" y="121.75"/>
      <point x="34.9125" y="115.45"/>
      <point x="41.5125" y="107.3125" type="curve"/>
      <point x="94.625" y="32.1625"/>
      <point x="162.3" y="-7.4"/>
      <point x="276.75" y="-8.5375" type="curve"/>
      <point x="282.375" y="-8.5375"/>
      <point x="283.8625" y="-10.025"/>
      <point x="283.8625" y="-16.65" type="curve"/>
      <point x="283.8625" y="-81.3375" type="line" smooth="yes"/>
      <point x="283.8625" y="-86.6125"/>
      <point x="286.675" y="-89.75"/>
      <point x="294.1125" y="-89.75" type="curve"/>
      <point x="325.1" y="-89.75" type="line" smooth="yes"/>
      <point x="332.8625" y="-89.75"/>
      <point x="336.0" y="-86.6125"/>
      <point x="336.0" y="-78.3375" type="curve"/>
      <point x="336.0" y="-16.975" type="line" smooth="yes"/>
      <point x="336.0" y="-11.025"/>
      <point x="338.0" y="-8.8625"/>
      <point x="346.1125" y="-8.5375" type="curve"/>
      <point x="469.6875" y="-5.6125"/>
      <point x="553.6625" y="72.15"/>
    </contour>
    <contour>
      <point x="283.5125" y="682.3125" type="curve"/>
      <point x="283.5125" y="432.0" type="line"/>
      <point x="283.5125" y="418.35"/>
      <point x="275.0" y="414.8625"/>
      <point x="263.5125" y="419.375" type="curve"/>
      <point x="160.7" y="463.9"/>
      <point x="129.65" y="501.65"/>
      <point x="129.65" y="554.9125" type="curve"/>
      <point x="129.65" y="627.65"/>
      <point x="186.3375" y="681.8"/>
      <point x="272.8625" y="690.45" type="curve"/>
      <point x="279.5125" y="691.6125"/>
      <point x="283.5125" y="688.2875"/>
    </contour>
    <contour>
      <point x="335.8375" y="56.0625" type="curve"/>
      <point x="335.8375" y="56.0625" type="line"/>
      <point x="335.8375" y="309.0875" type="line" smooth="yes"/>
      <point x="335.8375" y="320.0875"/>
      <point x="342.1875" y="321.0875"/>
      <point x="351.8625" y="317.575" type="curve"/>
      <point x="447.225" y="279.425"/>
      <point x="485.975" y="239.8625"/>
      <point x="485.975" y="174.0375" type="curve"/>
      <point x="485.975" y="104.0"/>
      <point x="430.6625" y="51.525000000000006"/>
      <point x="344.1375" y="49.900000000000006" type="curve"/>
      <point x="338.4875" y="49.575"/>
      <point x="335.8375" y="51.575"/>
    </contour>
  </outline>
</glyph>
<glyph name="ampersand" format="2">
  <advance width="762.425"/>
  <unicode hex="0026"/>
  <outline>
    <contour>
      <point x="327.975" y="753.0" type="curve"/>
      <point x="327.975" y="753.0" type="line"/>
      <point x="211.2625" y="753.0"/>
      <point x="124.175" y="673.4875"/>
      <point x="124.175" y="568.325" type="curve"/>
      <point x="124.175" y="515.625"/>
      <point x="146.3375" y="468.4875"/>
      <point x="191.0375" y="421.4625" type="curve"/>
      <point x="203.875" y="407.4625"/>
      <point x="202.875" y="404.3"/>
      <point x="189.875" y="396.4625" type="curve"/>
      <point x="81.1125" y="331.1375"/>
      <point x="39.8375" y="267.3"/>
      <point x="39.8375" y="188.3" type="curve"/>
      <point x="39.8375" y="71.1875"/>
      <point x="122.7875" y="-5.0"/>
      <point x="256.125" y="-5.0" type="curve"/>
      <point x="340.2125" y="-5.0"/>
      <point x="414.2125" y="26.05"/>
      <point x="477.1875" y="82.425" type="curve"/>
      <point x="483.4875" y="88.075"/>
      <point x="487.65" y="88.075"/>
      <point x="493.95" y="83.425" type="curve"/>
      <point x="546.55" y="40.9375"/>
      <point x="648.1875" y="0.0"/>
      <point x="722.0375" y="0.0" type="curve"/>
      <point x="735.3625" y="0.0"/>
      <point x="739.3375" y="4.3"/>
      <point x="739.3375" y="16.4375" type="curve"/>
      <point x="739.3375" y="48.0125" type="line" smooth="yes"/>
      <point x="739.3375" y="56.3125"/>
      <point x="735.6875" y="59.8"/>
      <point x="725.55" y="59.962500000000006" type="curve"/>
      <point x="662.775" y="60.45"/>
      <point x="585.55" y="91.0625"/>
      <point x="547.825" y="127.1625" type="curve"/>
      <point x="540.85" y="133.325"/>
      <point x="540.0125" y="137.0"/>
      <point x="545.825" y="143.3" type="curve"/>
      <point x="611.0875" y="211.1625"/>
      <point x="679.6625" y="307.65"/>
      <point x="699.15" y="367.8875" type="curve"/>
      <point x="700.8" y="373.35"/>
      <point x="696.9875" y="379.3"/>
      <point x="691.3625" y="381.625" type="curve"/>
      <point x="660.7125" y="392.6875" type="line" smooth="yes"/>
      <point x="654.4125" y="395.0125"/>
      <point x="647.925" y="393.6875"/>
      <point x="645.275" y="386.7125" type="curve"/>
      <point x="628.7625" y="339.15"/>
      <point x="558.4875" y="235.5875"/>
      <point x="507.175" y="187.325" type="curve"/>
      <point x="498.175" y="178.675"/>
      <point x="497.2" y="178.675"/>
      <point x="490.7125" y="186.0" type="curve"/>
      <point x="321.4" y="385.4625" type="line" smooth="yes"/>
      <point x="314.2375" y="394.3"/>
      <point x="314.4" y="397.4625"/>
      <point x="324.4" y="401.625" type="curve"/>
      <point x="454.8375" y="458.8875"/>
      <point x="507.3" y="531.35"/>
      <point x="507.3" y="604.9125" type="curve"/>
      <point x="507.3" y="697.725"/>
      <point x="428.75" y="753.0"/>
    </contour>
    <contour>
      <point x="329.6" y="701.65" type="curve"/>
      <point x="329.6" y="701.65" type="line"/>
      <point x="390.5375" y="701.65"/>
      <point x="440.9875" y="670.1125"/>
      <point x="440.9875" y="604.8" type="curve"/>
      <point x="440.9875" y="542.65"/>
      <point x="396.7" y="493.875"/>
      <point x="282.4375" y="439.5125" type="curve"/>
      <point x="275.6" y="436.5125"/>
      <point x="268.275" y="437.025"/>
      <point x="264.7875" y="441.35" type="curve"/>
      <point x="239.5125" y="469.6" type="line" smooth="yes"/>
      <point x="207.7375" y="504.8875"/>
      <point x="195.3875" y="535.2875"/>
      <point x="195.3875" y="570.575" type="curve"/>
      <point x="195.3875" y="639.8"/>
      <point x="244.1875" y="701.65"/>
    </contour>
    <contour>
      <point x="259.1375" y="350.4375" type="curve"/>
      <point x="259.1375" y="350.4375" type="line"/>
      <point x="437.375" y="141.75" type="line" smooth="yes"/>
      <point x="444.025" y="133.1"/>
      <point x="443.2125" y="126.2625"/>
      <point x="434.375" y="118.425" type="curve"/>
      <point x="390.925" y="78.975"/>
      <point x="327.9625" y="50.3875"/>
      <point x="266.7875" y="50.3875" type="curve"/>
      <point x="178.425" y="50.3875"/>
      <point x="112.4625" y="107.1375"/>
      <point x="112.4625" y="189.175" type="curve"/>
      <point x="112.4625" y="257.5375"/>
      <point x="157.5875" y="319.3625"/>
      <point x="231.3" y="355.275" type="curve"/>
      <point x="243.65" y="361.275"/>
      <point x="250.65" y="360.7625"/>
    </contour>
  </outline>
</glyph>
<glyph name="quotesingle" format="2">
  <advance width="237.925"/>
  <unicode hex="0027"/>
  <outline>
    <contour>
      <point x="142.475" y="539.6625" type="curve"/>
      <point x="165.725" y="733.725" type="line"/>
      <point x="166.05" y="739.1875"/>
      <point x="163.075" y="742.0"/>
      <point x="157.775" y="742.0" type="curve"/>
      <point x="81.45" y="742.0" type="line" smooth="yes"/>
      <point x="77.15" y="742.0"/>
      <point x="73.0125" y="739.1875"/>
      <point x="73.3375" y="733.4" type="curve"/>
      <point x="95.75" y="537.3375" type="line" smooth="yes"/>
      <point x="96.9125" y="530.3875"/>
      <point x="98.5625" y="527.4125"/>
      <point x="106.8375" y="527.4125" type="curve"/>
      <point x="128.7375" y="527.4125" type="line" smooth="yes"/>
      <point x="138.5" y="527.4125"/>
      <point x="141.15" y="531.225"/>
    </contour>
  </outline>
</glyph>
<glyph name="parenleft" format="2">
  <advance width="278.4"/>
  <unicode hex="0028"/>
  <outline>
    <contour>
      <point x="252.2375" y="742.0" type="curve"/>
      <point x="252.2375" y="742.0" type="line"/>
      <point x="229.3125" y="742.0" type="line" smooth="yes"/>
      <point x="222.175" y="742.0"/>
      <point x="218.3625" y="739.5125"/>
      <point x="214.7125" y="734.7" type="curve"/>
      <point x="131.7125" y="609.7"/>
      <point x="72.6875" y="451.0"/>
      <point x="72.6875" y="285.0" type="curve"/>
      <point x="72.6875" y="114.0"/>
      <point x="123.825" y="-17.7"/>
      <point x="205.825" y="-158.7" type="curve"/>
      <point x="209.3125" y="-163.5125"/>
      <point x="211.8" y="-165.0"/>
      <point x="216.775" y="-165.0" type="curve"/>
      <point x="242.8625" y="-165.0" type="line" smooth="yes"/>
      <point x="249.8375" y="-165.0"/>
      <point x="251.1625" y="-160.1875"/>
      <point x="248.8375" y="-156.375" type="curve"/>
      <point x="178.8375" y="-6.375"/>
      <point x="141.675" y="133.0"/>
      <point x="141.675" y="284.0" type="curve"/>
      <point x="141.675" y="443.0"/>
      <point x="192.05" y="602.7"/>
      <point x="258.05" y="733.7" type="curve"/>
      <point x="260.375" y="737.35"/>
      <point x="259.2125" y="742.0"/>
    </contour>
  </outline>
</glyph>
<glyph name="asterisk" format="2">
  <advance width="358.525"/>
  <unicode hex="002A"/>
  <outline>
    <contour>
      <point x="186.6" y="547.4625" type="curve"/>
      <point x="257.925" y="433.5125" type="line"/>
      <point x="259.575" y="430.5375"/>
      <point x="265.0375" y="429.2125"/>
      <point x="270.6625" y="433.35" type="curve"/>
      <point x="297.8375" y="452.575" type="line" smooth="yes"/>
      <point x="303.625" y="456.7125"/>
      <point x="304.625" y="461.175"/>
      <point x="300.975" y="465.825" type="curve"/>
      <point x="221.025" y="565.8" type="line" smooth="yes"/>
      <point x="218.5375" y="569.125"/>
      <point x="219.375" y="571.9375"/>
      <point x="223.025" y="573.1" type="curve"/>
      <point x="334.6" y="610.6125" type="line" smooth="yes"/>
      <point x="339.0625" y="611.9375"/>
      <point x="339.875" y="615.075"/>
      <point x="338.3875" y="621.2125" type="curve"/>
      <point x="328.7875" y="650.6625" type="line" smooth="yes"/>
      <point x="327.3" y="655.45"/>
      <point x="325.0" y="656.9375"/>
      <point x="319.7" y="654.45" type="curve"/>
      <point x="209.125" y="607.3375" type="line" smooth="yes"/>
      <point x="206.15" y="606.0125"/>
      <point x="203.9875" y="607.3375"/>
      <point x="204.15" y="611.9875" type="curve"/>
      <point x="210.6125" y="735.2125" type="line" smooth="yes"/>
      <point x="210.775" y="738.8625"/>
      <point x="209.125" y="742.0"/>
      <point x="203.9875" y="742.0" type="curve"/>
      <point x="164.2375" y="742.0" type="line" smooth="yes"/>
      <point x="158.2625" y="742.0"/>
      <point x="155.775" y="738.025"/>
      <point x="155.9375" y="735.2125" type="curve"/>
      <point x="163.75" y="612.15" type="line" smooth="yes"/>
      <point x="163.9125" y="607.5"/>
      <point x="161.2625" y="606.175"/>
      <point x="157.45" y="607.6625" type="curve"/>
      <point x="49.875" y="648.9125" type="line" smooth="yes"/>
      <point x="44.7375" y="651.4"/>
      <point x="42.0875" y="649.75"/>
      <point x="40.6" y="645.6125" type="curve"/>
      <point x="29.5125" y="615.1625" type="line" smooth="yes"/>
      <point x="27.8625" y="609.7"/>
      <point x="28.5125" y="606.4"/>
      <point x="32.65" y="605.075" type="curve"/>
      <point x="145.55" y="572.425" type="line" smooth="yes"/>
      <point x="150.3625" y="571.2625"/>
      <point x="150.525" y="568.45"/>
      <point x="149.0375" y="565.9625" type="curve"/>
      <point x="65.925" y="459.475" type="line" smooth="yes"/>
      <point x="62.1125" y="454.5"/>
      <point x="62.275" y="451.85"/>
      <point x="66.575" y="448.875" type="curve"/>
      <point x="96.05" y="428.5125" type="line" smooth="yes"/>
      <point x="100.35" y="425.5375"/>
      <point x="105.65" y="425.8625"/>
      <point x="107.3" y="428.8375" type="curve"/>
      <point x="182.1375" y="547.4625" type="line" smooth="yes"/>
      <point x="183.4625" y="549.1125"/>
      <point x="185.275" y="549.1125"/>
    </contour>
  </outline>
</glyph>
<glyph name="plus" format="2">
  <advance width="550.5875"/>
  <unicode hex="002B"/>
  <outline>
    <contour>
      <point x="485.7875" y="356.9625" type="curve"/>
      <point x="485.7875" y="392.175" type="line"/>
      <point x="485.7875" y="397.475"/>
      <point x="482.1375" y="400.45"/>
      <point x="477.0" y="400.45" type="curve"/>
      <point x="72.4" y="399.6125" type="line" smooth="yes"/>
      <point x="67.9375" y="399.6125"/>
      <point x="65.125" y="396.6375"/>
      <point x="65.125" y="390.0125" type="curve"/>
      <point x="65.125" y="354.8" type="line" smooth="yes"/>
      <point x="65.125" y="347.85"/>
      <point x="67.775" y="344.875"/>
      <point x="76.05" y="344.875" type="curve"/>
      <point x="472.05" y="345.7125" type="line" smooth="yes"/>
      <point x="481.65" y="345.7125"/>
      <point x="485.7875" y="348.6875"/>
    </contour>
    <contour>
      <point x="259.8375" y="162.4125" type="curve"/>
      <point x="295.05" y="162.4125" type="line"/>
      <point x="300.35" y="162.4125"/>
      <point x="303.325" y="166.0625"/>
      <point x="303.325" y="171.2" type="curve"/>
      <point x="302.4875" y="575.8" type="line" smooth="yes"/>
      <point x="302.4875" y="580.2625"/>
      <point x="299.5125" y="583.075"/>
      <point x="292.8875" y="583.075" type="curve"/>
      <point x="257.675" y="583.075" type="line" smooth="yes"/>
      <point x="250.725" y="583.075"/>
      <point x="247.75" y="580.425"/>
      <point x="247.75" y="572.15" type="curve"/>
      <point x="248.5875" y="176.15" type="line" smooth="yes"/>
      <point x="248.5875" y="166.55"/>
      <point x="251.5625" y="162.4125"/>
    </contour>
  </outline>
</glyph>
<glyph name="comma" format="2">
  <advance width="201.95"/>
  <unicode hex="002C"/>
  <outline>
    <contour>
      <point x="50.975" y="-139.0375" type="curve"/>
      <point x="50.975" y="-139.0375" type="line"/>
      <point x="60.4125" y="-139.0375" type="line" smooth="yes"/>
      <point x="67.875" y="-139.0375"/>
      <point x="73.6375" y="-136.0625"/>
      <point x="77.1" y="-130.275" type="curve"/>
      <point x="143.3625" y="6.112500000000001" type="line" smooth="yes"/>
      <point x="144.6875" y="9.4375"/>
      <point x="145.6875" y="13.275"/>
      <point x="145.6875" y="18.6" type="curve"/>
      <point x="145.6875" y="90.0625" type="line" smooth="yes"/>
      <point x="145.6875" y="95.525"/>
      <point x="143.0375" y="98.3375"/>
      <point x="137.7375" y="98.3375" type="curve"/>
      <point x="67.75" y="98.3375" type="line" smooth="yes"/>
      <point x="62.6125" y="98.3375"/>
      <point x="59.6375" y="95.525"/>
      <point x="59.6375" y="89.7375" type="curve"/>
      <point x="59.6375" y="9.925" type="line" smooth="yes"/>
      <point x="59.6375" y="3.8125"/>
      <point x="62.45" y="0.0"/>
      <point x="70.725" y="0.0" type="curve"/>
      <point x="81.8375" y="0.0" type="line" smooth="yes"/>
      <point x="91.975" y="0.0"/>
      <point x="93.975" y="-4.4625"/>
      <point x="90.0" y="-13.575" type="curve"/>
      <point x="45.8625" y="-126.6" type="line" smooth="yes"/>
      <point x="42.5375" y="-134.4125"/>
      <point x="45.5125" y="-139.0375"/>
    </contour>
  </outline>
</glyph>
<glyph name="hyphen" format="2">
  <advance width="380.8375"/>
  <unicode hex="002D"/>
  <outline>
    <contour>
      <point x="315.55" y="248.6375" type="curve"/>
      <point x="315.55" y="285.3625" type="line"/>
      <point x="315.55" y="290.6625"/>
      <point x="311.9" y="293.6375"/>
      <point x="306.7625" y="293.6375" type="curve"/>
      <point x="72.5625" y="292.8" type="line" smooth="yes"/>
      <point x="68.1" y="292.8"/>
      <point x="65.2875" y="289.825"/>
      <point x="65.2875" y="283.2" type="curve"/>
      <point x="65.2875" y="246.475" type="line" smooth="yes"/>
      <point x="65.2875" y="239.525"/>
      <point x="67.9375" y="236.55"/>
      <point x="76.2125" y="236.55" type="curve"/>
      <point x="301.8125" y="237.3875" type="line" smooth="yes"/>
      <point x="311.4125" y="237.3875"/>
      <point x="315.55" y="240.3625"/>
    </contour>
  </outline>
</glyph>
<glyph name="period" format="2">
  <advance width="197.7625"/>
  <unicode hex="002E"/>
  <outline>
    <contour>
      <point x="141.5" y="13.925" type="curve"/>
      <point x="141.5" y="88.875" type="line"/>
      <point x="141.5" y="96.0125"/>
      <point x="138.85" y="98.825"/>
      <point x="132.7125" y="98.825" type="curve"/>
      <point x="64.4" y="98.825" type="line" smooth="yes"/>
      <point x="59.2625" y="98.825"/>
      <point x="55.45" y="96.0125"/>
      <point x="55.45" y="87.7125" type="curve"/>
      <point x="55.45" y="12.4375" type="line" smooth="yes"/>
      <point x="55.45" y="3.8125"/>
      <point x="58.2625" y="0.0"/>
      <point x="68.2125" y="0.0" type="curve"/>
      <point x="125.25" y="0.0" type="line" smooth="yes"/>
      <point x="137.525" y="0.0"/>
      <point x="141.5" y="3.8125"/>
    </contour>
  </outline>
</glyph>
<glyph name="slash" format="2">
  <advance width="336.45"/>
  <unicode hex="002F"/>
  <outline>
    <contour>
      <point x="21.1875" y="-50.25" type="curve"/>
      <point x="21.1875" y="-50.25" type="line"/>
      <point x="58.9625" y="-50.25" type="line" smooth="yes"/>
      <point x="65.9125" y="-50.25"/>
      <point x="71.05" y="-47.6"/>
      <point x="73.8625" y="-39.325" type="curve"/>
      <point x="320.725" y="728.2625" type="line" smooth="yes"/>
      <point x="323.7" y="737.8625"/>
      <point x="322.05" y="742.0"/>
      <point x="313.775" y="742.0" type="curve"/>
      <point x="276.0" y="742.0" type="line" smooth="yes"/>
      <point x="270.7" y="742.0"/>
      <point x="266.5625" y="739.1875"/>
      <point x="265.075" y="734.05" type="curve"/>
      <point x="14.4" y="-42.975" type="line" smooth="yes"/>
      <point x="12.9125" y="-47.4375"/>
      <point x="14.5625" y="-50.25"/>
    </contour>
  </outline>
</glyph>
<glyph name="zero" format="2">
  <advance width="682.6375"/>
  <unicode hex="0030"/>
  <outline>
    <contour>
      <point x="341.9" y="752.1625" type="curve"/>
      <point x="341.9" y="752.1625" type="line"/>
      <point x="189.2625" y="752.1625"/>
      <point x="71.2" y="620.9875"/>
      <point x="71.2" y="367.325" type="curve"/>
      <point x="71.2" y="117.175"/>
      <point x="187.1" y="-9.675"/>
      <point x="341.0625" y="-9.675" type="curve"/>
      <point x="494.8625" y="-9.675"/>
      <point x="611.4375" y="118.0125"/>
      <point x="611.4375" y="369.0" type="curve"/>
      <point x="611.4375" y="621.825"/>
      <point x="494.375" y="752.1625"/>
    </contour>
    <contour>
      <point x="342.575" y="50.85" type="curve"/>
      <point x="342.575" y="50.85" type="line"/>
      <point x="227.7" y="50.85"/>
      <point x="148.775" y="145.025"/>
      <point x="148.775" y="368.8375" type="curve"/>
      <point x="148.775" y="595.1375"/>
      <point x="227.8625" y="691.9625"/>
      <point x="341.7375" y="691.9625" type="curve"/>
      <point x="455.6125" y="691.9625"/>
      <point x="533.8625" y="596.1375"/>
      <point x="533.8625" y="368.8375" type="curve"/>
      <point x="533.8625" y="144.025"/>
      <point x="457.6125" y="50.85"/>
    </contour>
  </outline>
</glyph>
<glyph name="one" format="2">
  <advance width="454.0875"/>
  <unicode hex="0031"/>
  <outline>
    <contour>
      <point x="400.575" y="61.825" type="curve"/>
      <point x="400.575" y="61.825" type="line"/>
      <point x="282.1" y="61.825" type="line" smooth="yes"/>
      <point x="278.45" y="61.825"/>
      <point x="276.125" y="64.15"/>
      <point x="276.125" y="68.8" type="curve"/>
      <point x="276.125" y="731.05" type="line" smooth="yes"/>
      <point x="276.125" y="738.1875"/>
      <point x="272.475" y="742.0"/>
      <point x="266.5" y="742.0" type="curve"/>
      <point x="230.075" y="742.0" type="line" smooth="yes"/>
      <point x="220.2875" y="742.0"/>
      <point x="214.475" y="740.5125"/>
      <point x="203.525" y="734.7" type="curve"/>
      <point x="59.5375" y="663.125" type="line" smooth="yes"/>
      <point x="53.075" y="659.475"/>
      <point x="51.5875" y="658.6625"/>
      <point x="51.5875" y="650.875" type="curve"/>
      <point x="51.5875" y="617.125" type="line" smooth="yes"/>
      <point x="51.5875" y="608.85"/>
      <point x="55.5625" y="605.2"/>
      <point x="62.675" y="607.525" type="curve"/>
      <point x="192.925" y="657.35" type="line" smooth="yes"/>
      <point x="199.225" y="659.5125"/>
      <point x="200.7125" y="656.35"/>
      <point x="200.7125" y="650.2125" type="curve"/>
      <point x="200.7125" y="66.6375" type="line" smooth="yes"/>
      <point x="200.7125" y="63.150000000000006"/>
      <point x="197.225" y="61.825"/>
      <point x="193.7375" y="61.825" type="curve"/>
      <point x="61.1875" y="61.825" type="line" smooth="yes"/>
      <point x="55.5625" y="61.825"/>
      <point x="52.5875" y="59.337500000000006"/>
      <point x="52.5875" y="53.712500000000006" type="curve"/>
      <point x="52.5875" y="8.4375" type="line" smooth="yes"/>
      <point x="52.5875" y="3.8125"/>
      <point x="55.4" y="0.0"/>
      <point x="61.5125" y="0.0" type="curve"/>
      <point x="400.25" y="0.0" type="line" smooth="yes"/>
      <point x="407.2" y="0.0"/>
      <point x="410.175" y="4.975"/>
      <point x="410.175" y="8.6" type="curve"/>
      <point x="410.175" y="53.712500000000006" type="line" smooth="yes"/>
      <point x="410.175" y="59.337500000000006"/>
      <point x="407.0375" y="61.825"/>
    </contour>
  </outline>
</glyph>
<glyph name="two" format="2">
  <advance width="587.575"/>
  <unicode hex="0032"/>
  <outline>
    <contour>
      <point x="294.525" y="307.9" type="curve"/>
      <point x="73.7625" y="85.15" type="line"/>
      <point x="55.45" y="68.4625"/>
      <point x="52.45" y="60.975"/>
      <point x="52.45" y="46.95" type="curve"/>
      <point x="52.45" y="14.1125" type="line" smooth="yes"/>
      <point x="52.45" y="3.325"/>
      <point x="56.1" y="0.0"/>
      <point x="66.8875" y="0.0" type="curve"/>
      <point x="516.175" y="0.0" type="line" smooth="yes"/>
      <point x="523.9625" y="0.0"/>
      <point x="526.9375" y="4.1375"/>
      <point x="526.9375" y="10.275" type="curve"/>
      <point x="526.9375" y="55.45" type="line" smooth="yes"/>
      <point x="526.9375" y="62.75"/>
      <point x="523.8" y="65.2375"/>
      <point x="515.6625" y="65.2375" type="curve"/>
      <point x="153.6125" y="65.2375" type="line" smooth="yes"/>
      <point x="142.475" y="65.2375"/>
      <point x="140.2875" y="70.4"/>
      <point x="147.6125" y="77.2375" type="curve"/>
      <point x="353.6" y="277.15" type="line" smooth="yes"/>
      <point x="473.375" y="394.2375"/>
      <point x="519.1" y="459.1"/>
      <point x="519.1" y="547.825" type="curve"/>
      <point x="519.1" y="688.6625"/>
      <point x="411.9625" y="752.0"/>
      <point x="295.2875" y="752.0" type="curve"/>
      <point x="207.35" y="752.0"/>
      <point x="115.1875" y="715.2625"/>
      <point x="57.1" y="631.95" type="curve"/>
      <point x="51.45" y="623.8125"/>
      <point x="50.9375" y="619.375"/>
      <point x="60.2375" y="612.2125" type="curve"/>
      <point x="92.1375" y="591.7375" type="line" smooth="yes"/>
      <point x="100.6" y="585.4125"/>
      <point x="107.4125" y="588.4125"/>
      <point x="110.7375" y="593.225" type="curve"/>
      <point x="156.4125" y="663.3375"/>
      <point x="228.9375" y="690.6625"/>
      <point x="287.475" y="690.6625" type="curve"/>
      <point x="364.25" y="690.6625"/>
      <point x="444.825" y="644.2625"/>
      <point x="444.825" y="552.525" type="curve"/>
      <point x="444.825" y="475.2125"/>
      <point x="402.375" y="412.6875"/>
    </contour>
  </outline>
</glyph>
<glyph name="three" format="2">
  <advance width="633.9125"/>
  <unicode hex="0033"/>
  <outline>
    <contour>
      <point x="79.775" y="640.6125" type="curve"/>
      <point x="79.775" y="640.6125" type="line"/>
      <point x="105.5875" y="614.2625" type="line" smooth="yes"/>
      <point x="112.2375" y="607.775"/>
      <point x="116.2375" y="607.775"/>
      <point x="122.8875" y="614.425" type="curve"/>
      <point x="173.7" y="663.9125"/>
      <point x="234.6375" y="692.125"/>
      <point x="305.0375" y="692.125" type="curve"/>
      <point x="402.9625" y="692.125"/>
      <point x="471.625" y="635.8125"/>
      <point x="471.625" y="563.2875" type="curve"/>
      <point x="471.625" y="479.925"/>
      <point x="385.725" y="418.775"/>
      <point x="275.825" y="418.125" type="curve"/>
      <point x="203.8" y="417.475" type="line" smooth="yes"/>
      <point x="197.5" y="417.15"/>
      <point x="192.85" y="413.825"/>
      <point x="192.85" y="408.85" type="curve"/>
      <point x="192.85" y="367.4125" type="line" smooth="yes"/>
      <point x="192.85" y="361.275"/>
      <point x="196.5" y="358.7875"/>
      <point x="203.8" y="358.7875" type="curve"/>
      <point x="292.825" y="358.4625" type="line" smooth="yes"/>
      <point x="393.675" y="358.1375"/>
      <point x="494.3" y="304.2"/>
      <point x="494.3" y="199.4125" type="curve"/>
      <point x="494.3" y="112.025"/>
      <point x="422.125" y="50.525000000000006"/>
      <point x="296.475" y="50.525000000000006" type="curve"/>
      <point x="218.45" y="50.525000000000006"/>
      <point x="158.0" y="72.175"/>
      <point x="97.8375" y="134.175" type="curve"/>
      <point x="94.35" y="137.825"/>
      <point x="91.375" y="140.3375"/>
      <point x="84.2375" y="134.0125" type="curve"/>
      <point x="50.2375" y="105.8875" type="line" smooth="yes"/>
      <point x="42.9375" y="99.5625"/>
      <point x="43.2875" y="97.125"/>
      <point x="48.1" y="91.5" type="curve"/>
      <point x="115.0125" y="21.0375"/>
      <point x="192.4625" y="-10.0"/>
      <point x="290.3375" y="-10.0" type="curve"/>
      <point x="475.8125" y="-10.0"/>
      <point x="569.0625" y="82.9125"/>
      <point x="569.0625" y="202.575" type="curve"/>
      <point x="569.0625" y="299.8625"/>
      <point x="499.475" y="366.375"/>
      <point x="417.15" y="388.675" type="curve"/>
      <point x="402.15" y="392.8375"/>
      <point x="402.3125" y="396.3"/>
      <point x="417.3125" y="401.3" type="curve"/>
      <point x="497.3375" y="429.325"/>
      <point x="546.0625" y="491.1375"/>
      <point x="546.0625" y="565.725" type="curve"/>
      <point x="546.0625" y="671.325"/>
      <point x="452.65" y="752.0"/>
      <point x="304.0125" y="752.0" type="curve"/>
      <point x="216.65" y="752.0"/>
      <point x="143.6875" y="722.075"/>
      <point x="79.775" y="654.8875" type="curve"/>
      <point x="76.125" y="650.5875"/>
      <point x="75.2875" y="645.2625"/>
    </contour>
  </outline>
</glyph>
<glyph name="four" format="2">
  <advance width="638.1125"/>
  <unicode hex="0034"/>
  <outline>
    <contour>
      <point x="392.3875" y="733.75" type="curve"/>
      <point x="392.3875" y="733.75" type="line"/>
      <point x="61.0" y="288.05" type="line" smooth="yes"/>
      <point x="51.4" y="274.8"/>
      <point x="48.1" y="267.3375"/>
      <point x="48.1" y="259.875" type="curve"/>
      <point x="48.1" y="217.0125" type="line" smooth="yes"/>
      <point x="48.1" y="208.2"/>
      <point x="52.75" y="205.0625"/>
      <point x="61.375" y="205.0625" type="curve"/>
      <point x="390.7625" y="205.0625" type="line" smooth="yes"/>
      <point x="397.0875" y="205.0625"/>
      <point x="399.7375" y="202.9"/>
      <point x="399.7375" y="198.4125" type="curve"/>
      <point x="399.575" y="11.6" type="line" smooth="yes"/>
      <point x="399.575" y="4.65"/>
      <point x="403.225" y="0.0"/>
      <point x="410.6625" y="0.0" type="curve"/>
      <point x="461.9" y="0.0" type="line" smooth="yes"/>
      <point x="471.5" y="0.0"/>
      <point x="475.6375" y="3.8125"/>
      <point x="475.6375" y="12.25" type="curve"/>
      <point x="475.6375" y="195.4125" type="line" smooth="yes"/>
      <point x="475.6375" y="202.9"/>
      <point x="478.9625" y="205.0625"/>
      <point x="484.2875" y="205.0625" type="curve"/>
      <point x="580.4125" y="205.0625" type="line" smooth="yes"/>
      <point x="589.0375" y="205.0625"/>
      <point x="592.6875" y="209.875"/>
      <point x="592.6875" y="217.0125" type="curve"/>
      <point x="592.6875" y="255.825" type="line" smooth="yes"/>
      <point x="592.6875" y="262.2875"/>
      <point x="588.0375" y="264.775"/>
      <point x="580.7375" y="264.775" type="curve"/>
      <point x="483.2875" y="264.775" type="line" smooth="yes"/>
      <point x="477.9625" y="264.775"/>
      <point x="475.6375" y="268.1"/>
      <point x="475.6375" y="273.425" type="curve"/>
      <point x="475.6375" y="731.05" type="line" smooth="yes"/>
      <point x="475.6375" y="738.1875"/>
      <point x="471.9875" y="742.0"/>
      <point x="465.0125" y="742.0" type="curve"/>
      <point x="412.4" y="742.0" type="line" smooth="yes"/>
      <point x="402.15" y="742.0"/>
      <point x="396.825" y="739.675"/>
    </contour>
    <contour>
      <point x="387.875" y="264.775" type="curve"/>
      <point x="128.925" y="264.775" type="line"/>
      <point x="118.4375" y="264.775"/>
      <point x="115.925" y="269.775"/>
      <point x="121.925" y="277.775" type="curve"/>
      <point x="382.875" y="631.25" type="line" smooth="yes"/>
      <point x="392.2" y="643.7375"/>
      <point x="396.875" y="642.0625"/>
      <point x="396.875" y="627.25" type="curve"/>
      <point x="396.875" y="271.775" type="line" smooth="yes"/>
      <point x="396.875" y="267.775"/>
      <point x="392.875" y="264.775"/>
    </contour>
  </outline>
</glyph>
<glyph name="five" format="2">
  <advance width="648.9625"/>
  <unicode hex="0035"/>
  <outline>
    <contour>
      <point x="539.5" y="742.0" type="curve"/>
      <point x="136.65" y="742.0" type="line"/>
      <point x="119.2375" y="742.0"/>
      <point x="118.775" y="740.8625"/>
      <point x="118.45" y="730.425" type="curve"/>
      <point x="91.125" y="387.0875" type="line" smooth="yes"/>
      <point x="89.9625" y="371.4375"/>
      <point x="85.775" y="374.675"/>
      <point x="97.425" y="367.5125" type="curve"/>
      <point x="135.1875" y="345.3875" type="line" smooth="yes"/>
      <point x="143.4875" y="340.7375"/>
      <point x="141.1375" y="338.225"/>
      <point x="151.7875" y="344.225" type="curve"/>
      <point x="199.3" y="373.4375"/>
      <point x="257.6375" y="408.075"/>
      <point x="334.7" y="408.075" type="curve"/>
      <point x="430.9625" y="408.075"/>
      <point x="513.5375" y="356.375"/>
      <point x="513.5375" y="240.8625" type="curve"/>
      <point x="513.5375" y="128.2125"/>
      <point x="434.175" y="48.85"/>
      <point x="297.3625" y="48.85" type="curve"/>
      <point x="210.125" y="48.85"/>
      <point x="164.075" y="81.9875"/>
      <point x="107.325" y="133.175" type="curve"/>
      <point x="103.35" y="137.3125"/>
      <point x="98.2125" y="139.475"/>
      <point x="93.5875" y="135.5" type="curve"/>
      <point x="60.125" y="106.8875" type="line" smooth="yes"/>
      <point x="52.0125" y="99.9125"/>
      <point x="53.15" y="96.6375"/>
      <point x="58.9625" y="90.0125" type="curve"/>
      <point x="122.525" y="23.225"/>
      <point x="212.2125" y="-10.0"/>
      <point x="307.9625" y="-10.0" type="curve"/>
      <point x="468.4875" y="-10.0"/>
      <point x="588.3" y="83.0"/>
      <point x="588.3" y="242.8375" type="curve"/>
      <point x="588.3" y="400.8625"/>
      <point x="470.625" y="467.25"/>
      <point x="343.125" y="467.25" type="curve"/>
      <point x="267.1375" y="467.25"/>
      <point x="220.3875" y="441.825"/>
      <point x="171.575" y="416.1" type="curve"/>
      <point x="164.925" y="412.2625"/>
      <point x="159.4375" y="418.1"/>
      <point x="160.6" y="426.75" type="curve"/>
      <point x="179.4875" y="667.95" type="line" smooth="yes"/>
      <point x="179.65" y="675.0875"/>
      <point x="184.1375" y="677.575"/>
      <point x="190.4375" y="677.575" type="curve"/>
      <point x="537.175" y="677.575" type="line" smooth="yes"/>
      <point x="548.6375" y="677.575"/>
      <point x="547.425" y="678.55"/>
      <point x="548.425" y="687.175" type="curve"/>
      <point x="551.9125" y="729.75" type="line" smooth="yes"/>
      <point x="552.9125" y="739.5125"/>
      <point x="550.9125" y="742.0"/>
    </contour>
  </outline>
</glyph>
<glyph name="six" format="2">
  <advance width="654.9375"/>
  <unicode hex="0036"/>
  <outline>
    <contour>
      <point x="368.8125" y="751.675" type="curve"/>
      <point x="368.8125" y="751.675" type="line"/>
      <point x="182.05" y="751.675"/>
      <point x="71.2" y="604.35"/>
      <point x="71.2" y="361.2125" type="curve"/>
      <point x="71.2" y="125.1125"/>
      <point x="175.75" y="-9.675"/>
      <point x="346.4125" y="-9.675" type="curve"/>
      <point x="485.4" y="-9.675"/>
      <point x="596.95" y="83.6"/>
      <point x="596.95" y="223.25" type="curve"/>
      <point x="596.95" y="346.55"/>
      <point x="511.2375" y="440.0625"/>
      <point x="357.075" y="440.0625" type="curve"/>
      <point x="274.275" y="440.0625"/>
      <point x="216.3125" y="412.15"/>
      <point x="162.9125" y="386.1" type="curve"/>
      <point x="147.775" y="378.1"/>
      <point x="146.2875" y="383.6125"/>
      <point x="146.2875" y="406.1" type="curve"/>
      <point x="146.2875" y="567.6375"/>
      <point x="213.3875" y="691.475"/>
      <point x="369.65" y="691.475" type="curve"/>
      <point x="427.5375" y="691.475"/>
      <point x="463.2875" y="669.6625"/>
      <point x="492.825" y="634.5" type="curve"/>
      <point x="496.6625" y="629.3375"/>
      <point x="501.825" y="625.875"/>
      <point x="507.2875" y="629.0375" type="curve"/>
      <point x="550.625" y="650.1" type="line" smooth="yes"/>
      <point x="557.925" y="654.1"/>
      <point x="555.4125" y="659.4"/>
      <point x="552.575" y="663.7" type="curve"/>
      <point x="516.2875" y="710.7875"/>
      <point x="459.675" y="751.675"/>
    </contour>
    <contour>
      <point x="351.975" y="381.4875" type="curve"/>
      <point x="351.975" y="381.4875" type="line"/>
      <point x="458.4375" y="381.4875"/>
      <point x="522.025" y="309.1"/>
      <point x="522.025" y="220.95" type="curve"/>
      <point x="522.025" y="124.75"/>
      <point x="447.3625" y="48.900000000000006"/>
      <point x="347.625" y="48.900000000000006" type="curve"/>
      <point x="210.0625" y="48.900000000000006"/>
      <point x="148.2875" y="189.7"/>
      <point x="148.2875" y="287.2875" type="curve"/>
      <point x="148.2875" y="312.825"/>
      <point x="152.8" y="321.0125"/>
      <point x="170.0125" y="332.875" type="curve"/>
      <point x="214.4875" y="360.7875"/>
      <point x="295.525" y="381.4875"/>
    </contour>
  </outline>
</glyph>
<glyph name="seven" format="2">
  <advance width="594.3125"/>
  <unicode hex="0037"/>
  <outline>
    <contour>
      <point x="535.5" y="742.0" type="curve"/>
      <point x="61.7875" y="742.0" type="line"/>
      <point x="53.0" y="742.0"/>
      <point x="49.5375" y="740.1875"/>
      <point x="48.5375" y="733.375" type="curve"/>
      <point x="43.75" y="687.5" type="line" smooth="yes"/>
      <point x="43.5875" y="680.875"/>
      <point x="45.5625" y="677.575"/>
      <point x="52.325" y="677.575" type="curve"/>
      <point x="452.8" y="677.575" type="line" smooth="yes"/>
      <point x="464.6125" y="677.575"/>
      <point x="464.45" y="672.0875"/>
      <point x="459.2875" y="664.6" type="curve"/>
      <point x="300.1" y="416.6"/>
      <point x="206.55" y="163.6"/>
      <point x="170.925" y="15.6" type="curve"/>
      <point x="168.4375" y="5.975"/>
      <point x="172.0875" y="0.0"/>
      <point x="181.7125" y="0.0" type="curve"/>
      <point x="240.2875" y="0.0" type="line" smooth="yes"/>
      <point x="248.75" y="0.0"/>
      <point x="252.5625" y="5.8125"/>
      <point x="253.5625" y="17.0875" type="curve"/>
      <point x="276.3125" y="152.925"/>
      <point x="398.5375" y="468.8125"/>
      <point x="534.825" y="670.125" type="curve"/>
      <point x="542.6375" y="681.425"/>
      <point x="546.5625" y="691.625"/>
      <point x="546.725" y="701.4375" type="curve"/>
      <point x="547.375" y="732.425" type="line" smooth="yes"/>
      <point x="547.5375" y="737.375"/>
      <point x="543.75" y="742.0"/>
    </contour>
  </outline>
</glyph>
<glyph name="eight" format="2">
  <advance width="664.525"/>
  <unicode hex="0038"/>
  <outline>
    <contour>
      <point x="332.3" y="752.0" type="curve"/>
      <point x="332.3" y="752.0" type="line"/>
      <point x="188.3375" y="752.0"/>
      <point x="85.6875" y="660.425"/>
      <point x="85.6875" y="540.9625" type="curve"/>
      <point x="85.6875" y="468.3625"/>
      <point x="121.6125" y="417.8"/>
      <point x="180.3375" y="386.6625" type="curve"/>
      <point x="197.0375" y="377.825"/>
      <point x="196.55" y="373.9875"/>
      <point x="180.0125" y="363.2875" type="curve"/>
      <point x="99.225" y="310.5875"/>
      <point x="65.6875" y="255.8875"/>
      <point x="65.6875" y="184.5125" type="curve"/>
      <point x="65.6875" y="62.025"/>
      <point x="166.725" y="-10.0"/>
      <point x="329.65" y="-10.0" type="curve"/>
      <point x="492.9875" y="-10.0"/>
      <point x="602.35" y="69.4875"/>
      <point x="602.35" y="193.0375" type="curve"/>
      <point x="602.35" y="275.275"/>
      <point x="555.4125" y="337.8375"/>
      <point x="466.1375" y="370.3625" type="curve"/>
      <point x="456.65" y="374.3375"/>
      <point x="457.1375" y="378.6625"/>
      <point x="467.1375" y="385.3375" type="curve"/>
      <point x="539.7" y="437.7875"/>
      <point x="569.35" y="484.4625"/>
      <point x="569.35" y="548.1875" type="curve"/>
      <point x="569.35" y="670.2125"/>
      <point x="474.175" y="752.0"/>
    </contour>
    <contour>
      <point x="332.95" y="693.2625" type="curve"/>
      <point x="332.95" y="693.2625" type="line"/>
      <point x="435.125" y="693.2625"/>
      <point x="500.275" y="635.65"/>
      <point x="500.275" y="551.075" type="curve"/>
      <point x="500.275" y="469.85"/>
      <point x="417.375" y="389.025"/>
      <point x="378.5375" y="397.8375" type="curve"/>
      <point x="270.15" y="422.35" type="line" smooth="yes"/>
      <point x="196.4375" y="438.375"/>
      <point x="158.5" y="480.3125"/>
      <point x="158.5" y="545.675" type="curve"/>
      <point x="158.5" y="630.0625"/>
      <point x="234.025" y="693.2625"/>
    </contour>
    <contour>
      <point x="332.7625" y="48.7375" type="curve"/>
      <point x="332.7625" y="48.7375" type="line"/>
      <point x="205.9375" y="48.7375"/>
      <point x="135.0875" y="101.675"/>
      <point x="135.0875" y="191.2" type="curve"/>
      <point x="135.0875" y="289.1"/>
      <point x="237.525" y="359.6"/>
      <point x="276.525" y="349.7875" type="curve"/>
      <point x="415.3625" y="317.25" type="line" smooth="yes"/>
      <point x="493.65" y="299.0875"/>
      <point x="527.2625" y="259.3375"/>
      <point x="527.2625" y="192.3" type="curve"/>
      <point x="527.2625" y="104.725"/>
      <point x="451.55" y="48.7375"/>
    </contour>
  </outline>
</glyph>
<glyph name="nine" format="2">
  <advance width="650.75"/>
  <unicode hex="0039"/>
  <outline>
    <contour>
      <point x="286.9625" y="-9.675" type="curve"/>
      <point x="286.9625" y="-9.675" type="line"/>
      <point x="470.375" y="-9.675"/>
      <point x="579.55" y="137.65"/>
      <point x="579.55" y="380.7875" type="curve"/>
      <point x="579.55" y="616.8875"/>
      <point x="476.675" y="751.675"/>
      <point x="309.3625" y="751.675" type="curve"/>
      <point x="170.375" y="751.675"/>
      <point x="58.825" y="658.4"/>
      <point x="58.825" y="518.75" type="curve"/>
      <point x="58.825" y="395.45"/>
      <point x="145.375" y="301.9375"/>
      <point x="297.025" y="301.9375" type="curve"/>
      <point x="379.825" y="301.9375"/>
      <point x="436.1125" y="329.85"/>
      <point x="487.8375" y="355.9" type="curve"/>
      <point x="502.975" y="363.9"/>
      <point x="504.4625" y="358.3875"/>
      <point x="504.4625" y="335.9" type="curve"/>
      <point x="504.4625" y="174.3625"/>
      <point x="438.2" y="50.525000000000006"/>
      <point x="286.9625" y="50.525000000000006" type="curve"/>
      <point x="223.2125" y="50.525000000000006"/>
      <point x="184.1125" y="72.3375"/>
      <point x="154.575" y="107.5" type="curve"/>
      <point x="150.7375" y="112.6625"/>
      <point x="145.575" y="116.125"/>
      <point x="140.1125" y="112.9625" type="curve"/>
      <point x="96.775" y="91.9" type="line" smooth="yes"/>
      <point x="89.475" y="87.9"/>
      <point x="91.9875" y="82.6"/>
      <point x="94.825" y="78.3" type="curve"/>
      <point x="132.7875" y="31.2125"/>
      <point x="191.9125" y="-9.675"/>
    </contour>
    <contour>
      <point x="301.2875" y="360.5125" type="curve"/>
      <point x="301.2875" y="360.5125" type="line"/>
      <point x="198.175" y="360.5125"/>
      <point x="133.75" y="432.9"/>
      <point x="133.75" y="521.8875" type="curve"/>
      <point x="133.75" y="618.0875"/>
      <point x="208.4125" y="693.1"/>
      <point x="308.15" y="693.1" type="curve"/>
      <point x="443.2" y="693.1"/>
      <point x="504.1375" y="555.65"/>
      <point x="504.1375" y="460.575" type="curve"/>
      <point x="504.1375" y="435.0375"/>
      <point x="499.625" y="426.85"/>
      <point x="482.4125" y="414.9875" type="curve"/>
      <point x="438.775" y="383.725"/>
      <point x="361.0875" y="360.5125"/>
    </contour>
  </outline>
</glyph>
<glyph name="colon" format="2">
  <advance width="197.7625"/>
  <unicode hex="003A"/>
  <outline>
    <contour>
      <point x="141.5" y="419.8125" type="curve"/>
      <point x="141.5" y="494.1125" type="line"/>
      <point x="141.5" y="501.25"/>
      <point x="138.85" y="504.0625"/>
      <point x="132.7125" y="504.0625" type="curve"/>
      <point x="64.4" y="504.0625" type="line" smooth="yes"/>
      <point x="59.2625" y="504.0625"/>
      <point x="55.45" y="501.25"/>
      <point x="55.45" y="492.95" type="curve"/>
      <point x="55.45" y="418.4875" type="line" smooth="yes"/>
      <point x="55.45" y="409.8625"/>
      <point x="58.2625" y="405.8875"/>
      <point x="68.2125" y="405.8875" type="curve"/>
      <point x="125.25" y="405.8875" type="line" smooth="yes"/>
      <point x="137.525" y="405.8875"/>
      <point x="141.5" y="409.8625"/>
    </contour>
    <contour>
      <point x="141.5" y="16.925" type="curve"/>
      <point x="141.5" y="91.225" type="line"/>
      <point x="141.5" y="98.3625"/>
      <point x="138.85" y="101.175"/>
      <point x="132.7125" y="101.175" type="curve"/>
      <point x="64.4" y="101.175" type="line" smooth="yes"/>
      <point x="59.2625" y="101.175"/>
      <point x="55.45" y="98.3625"/>
      <point x="55.45" y="90.0625" type="curve"/>
      <point x="55.45" y="15.6" type="line" smooth="yes"/>
      <point x="55.45" y="6.975"/>
      <point x="58.2625" y="3.0"/>
      <point x="68.2125" y="3.0" type="curve"/>
      <point x="125.25" y="3.0" type="line" smooth="yes"/>
      <point x="137.525" y="3.0"/>
      <point x="141.5" y="6.975"/>
    </contour>
  </outline>
</glyph>
<glyph name="semicolon" format="2">
  <advance width="221.2125"/>
  <unicode hex="003B"/>
  <outline>
    <contour>
      <point x="50.975" y="-139.6875" type="curve"/>
      <point x="50.975" y="-139.6875" type="line"/>
      <point x="60.4125" y="-139.6875" type="line" smooth="yes"/>
      <point x="67.875" y="-139.6875"/>
      <point x="73.6375" y="-136.7125"/>
      <point x="77.1" y="-130.925" type="curve"/>
      <point x="143.3625" y="6.112500000000001" type="line" smooth="yes"/>
      <point x="144.6875" y="9.4375"/>
      <point x="145.6875" y="13.275"/>
      <point x="145.6875" y="18.6" type="curve"/>
      <point x="145.6875" y="90.0625" type="line" smooth="yes"/>
      <point x="145.6875" y="95.525"/>
      <point x="143.0375" y="98.3375"/>
      <point x="137.7375" y="98.3375" type="curve"/>
      <point x="67.75" y="98.3375" type="line" smooth="yes"/>
      <point x="62.6125" y="98.3375"/>
      <point x="59.6375" y="95.525"/>
      <point x="59.6375" y="89.7375" type="curve"/>
      <point x="59.6375" y="9.925" type="line" smooth="yes"/>
      <point x="59.6375" y="3.8125"/>
      <point x="62.45" y="0.0"/>
      <point x="70.725" y="0.0" type="curve"/>
      <point x="81.8375" y="0.0" type="line" smooth="yes"/>
      <point x="91.975" y="0.0"/>
      <point x="93.8125" y="-4.4625"/>
      <point x="90.0" y="-13.575" type="curve"/>
      <point x="45.8625" y="-127.25" type="line" smooth="yes"/>
      <point x="42.5375" y="-135.0625"/>
      <point x="45.5125" y="-139.6875"/>
    </contour>
    <contour>
      <point x="68.2125" y="404.75" type="curve"/>
      <point x="68.2125" y="404.75" type="line"/>
      <point x="125.25" y="404.75" type="line" smooth="yes"/>
      <point x="137.525" y="404.75"/>
      <point x="141.5" y="408.5625"/>
      <point x="141.5" y="418.675" type="curve"/>
      <point x="141.5" y="493.625" type="line" smooth="yes"/>
      <point x="141.5" y="500.7625"/>
      <point x="138.85" y="503.575"/>
      <point x="132.7125" y="503.575" type="curve"/>
      <point x="64.4" y="503.575" type="line" smooth="yes"/>
      <point x="59.2625" y="503.575"/>
      <point x="55.45" y="500.7625"/>
      <point x="55.45" y="492.4625" type="curve"/>
      <point x="55.45" y="417.1875" type="line" smooth="yes"/>
      <point x="55.45" y="408.5625"/>
      <point x="58.2625" y="404.75"/>
    </contour>
  </outline>
</glyph>
<glyph name="less" format="2">
  <advance width="535.35"/>
  <unicode hex="003C"/>
  <outline>
    <contour>
      <point x="466.95" y="181.8375" type="curve"/>
      <point x="466.95" y="215.025" type="line"/>
      <point x="466.95" y="224.7875"/>
      <point x="461.4875" y="228.925"/>
      <point x="448.75" y="234.225" type="curve"/>
      <point x="141.3125" y="356.375" type="line"/>
      <point x="449.5875" y="478.175" type="line" smooth="yes"/>
      <point x="462.1625" y="483.475"/>
      <point x="467.7875" y="488.1"/>
      <point x="467.7875" y="496.7" type="curve"/>
      <point x="467.7875" y="534.075" type="line" smooth="yes"/>
      <point x="467.7875" y="545.5375"/>
      <point x="460.8375" y="551.1625"/>
      <point x="447.5375" y="545.675" type="curve"/>
      <point x="67.1875" y="393.9375" type="line" smooth="yes"/>
      <point x="60.2375" y="391.2875"/>
      <point x="55.9375" y="387.9875"/>
      <point x="55.9375" y="379.7125" type="curve"/>
      <point x="55.9375" y="332.3625" type="line" smooth="yes"/>
      <point x="55.9375" y="325.25"/>
      <point x="60.4" y="321.1125"/>
      <point x="67.1875" y="318.4625" type="curve"/>
      <point x="447.375" y="168.5625" type="line" smooth="yes"/>
      <point x="458.325" y="163.9125"/>
      <point x="466.95" y="168.4"/>
    </contour>
  </outline>
</glyph>
<glyph name="equal" format="2">
  <advance width="550.5875"/>
  <unicode hex="003D"/>
  <outline>
    <contour>
      <point x="485.7875" y="456.3125" type="curve"/>
      <point x="485.7875" y="491.525" type="line"/>
      <point x="485.7875" y="496.825"/>
      <point x="482.1375" y="499.8"/>
      <point x="477.0" y="499.8" type="curve"/>
      <point x="72.4" y="498.9625" type="line" smooth="yes"/>
      <point x="67.9375" y="498.9625"/>
      <point x="65.125" y="495.9875"/>
      <point x="65.125" y="489.3625" type="curve"/>
      <point x="65.125" y="454.15" type="line" smooth="yes"/>
      <point x="65.125" y="447.2"/>
      <point x="67.775" y="444.225"/>
      <point x="76.05" y="444.225" type="curve"/>
      <point x="472.05" y="445.0625" type="line" smooth="yes"/>
      <point x="481.65" y="445.0625"/>
      <point x="485.7875" y="448.0375"/>
    </contour>
    <contour>
      <point x="485.7875" y="232.9" type="curve"/>
      <point x="485.7875" y="268.1125" type="line"/>
      <point x="485.7875" y="273.4125"/>
      <point x="482.1375" y="276.3875"/>
      <point x="477.0" y="276.3875" type="curve"/>
      <point x="72.4" y="275.55" type="line" smooth="yes"/>
      <point x="67.9375" y="275.55"/>
      <point x="65.125" y="272.575"/>
      <point x="65.125" y="265.95" type="curve"/>
      <point x="65.125" y="230.7375" type="line" smooth="yes"/>
      <point x="65.125" y="223.7875"/>
      <point x="67.775" y="220.8125"/>
      <point x="76.05" y="220.8125" type="curve"/>
      <point x="472.05" y="221.65" type="line" smooth="yes"/>
      <point x="481.65" y="221.65"/>
      <point x="485.7875" y="224.625"/>
    </contour>
  </outline>
</glyph>
<glyph name="greater" format="2">
  <advance width="535.35"/>
  <unicode hex="003E"/>
  <outline>
    <contour>
      <point x="68.4" y="215.025" type="curve"/>
      <point x="68.4" y="215.025" type="line"/>
      <point x="68.4" y="181.8375" type="line" smooth="yes"/>
      <point x="68.4" y="168.4"/>
      <point x="77.025" y="163.9125"/>
      <point x="87.975" y="168.5625" type="curve"/>
      <point x="468.1625" y="318.4625" type="line" smooth="yes"/>
      <point x="474.95" y="321.1125"/>
      <point x="479.4125" y="325.25"/>
      <point x="479.4125" y="332.3625" type="curve"/>
      <point x="479.4125" y="379.7125" type="line" smooth="yes"/>
      <point x="479.4125" y="387.9875"/>
      <point x="475.1125" y="391.2875"/>
      <point x="468.1625" y="393.9375" type="curve"/>
      <point x="87.8125" y="545.675" type="line" smooth="yes"/>
      <point x="74.5125" y="551.1625"/>
      <point x="67.5625" y="545.5375"/>
      <point x="67.5625" y="534.075" type="curve"/>
      <point x="67.5625" y="496.7" type="line" smooth="yes"/>
      <point x="67.5625" y="488.1"/>
      <point x="73.1875" y="483.475"/>
      <point x="85.7625" y="478.175" type="curve"/>
      <point x="394.0375" y="356.375" type="line"/>
      <point x="86.6" y="234.225" type="line" smooth="yes"/>
      <point x="73.8625" y="228.925"/>
      <point x="68.4" y="224.7875"/>
    </contour>
  </outline>
</glyph>
<glyph name="question" format="2">
  <advance width="519.2"/>
  <unicode hex="003F"/>
  <outline>
    <contour>
      <point x="288.325" y="13.925" type="curve"/>
      <point x="288.325" y="88.225" type="line"/>
      <point x="288.325" y="95.3625"/>
      <point x="285.5125" y="98.175"/>
      <point x="279.5375" y="98.175" type="curve"/>
      <point x="211.225" y="98.175" type="line" smooth="yes"/>
      <point x="205.0875" y="98.175"/>
      <point x="202.275" y="94.525"/>
      <point x="202.275" y="87.0625" type="curve"/>
      <point x="202.275" y="12.4375" type="line" smooth="yes"/>
      <point x="202.275" y="3.8125"/>
      <point x="205.7625" y="0.0"/>
      <point x="214.875" y="0.0" type="curve"/>
      <point x="272.075" y="0.0" type="line" smooth="yes"/>
      <point x="284.1875" y="0.0"/>
      <point x="288.325" y="3.8125"/>
    </contour>
    <contour>
      <point x="37.825" y="611.25" type="curve"/>
      <point x="37.825" y="611.25" type="line"/>
      <point x="83.75" y="594.975" type="line" smooth="yes"/>
      <point x="90.375" y="592.8125"/>
      <point x="92.025" y="594.8125"/>
      <point x="94.675" y="599.4375" type="curve"/>
      <point x="117.35" y="652.7875"/>
      <point x="193.2" y="695.7"/>
      <point x="264.5125" y="695.7" type="curve"/>
      <point x="353.95" y="695.7"/>
      <point x="413.2625" y="647.0625"/>
      <point x="413.2625" y="569.8375" type="curve"/>
      <point x="413.2625" y="422.625"/>
      <point x="215.2" y="372.7125"/>
      <point x="215.2" y="181.5875" type="curve"/>
      <point x="215.2" y="173.475"/>
      <point x="219.3375" y="169.3375"/>
      <point x="226.125" y="169.3375" type="curve"/>
      <point x="265.8" y="169.3375" type="line" smooth="yes"/>
      <point x="271.425" y="169.3375"/>
      <point x="275.725" y="174.475"/>
      <point x="275.725" y="179.9375" type="curve"/>
      <point x="275.725" y="353.8125"/>
      <point x="483.475" y="399.175"/>
      <point x="483.475" y="571.625" type="curve"/>
      <point x="483.475" y="679.375"/>
      <point x="398.0625" y="752.0"/>
      <point x="264.8375" y="752.0" type="curve"/>
      <point x="163.5" y="752.0"/>
      <point x="75.85" y="702.5375"/>
      <point x="33.6875" y="622.3375" type="curve"/>
      <point x="31.3625" y="618.0375"/>
      <point x="32.3625" y="613.4125"/>
    </contour>
  </outline>
</glyph>
<glyph name="at" format="2">
  <advance width="834.0"/>
  <unicode hex="0040"/>
  <outline>
    <contour>
      <point x="653.25" y="-46.0" type="curve"/>
      <point x="653.25" y="-46.0" type="line"/>
      <point x="659.575" y="-41.675"/>
      <point x="667.0875" y="-35.675"/>
      <point x="660.25" y="-26.0" type="curve"/>
      <point x="643.7" y="-3.825" type="line" smooth="yes"/>
      <point x="639.7" y="1.3375000000000004"/>
      <point x="632.8625" y="2.5"/>
      <point x="624.375" y="-2.825" type="curve"/>
      <point x="575.1875" y="-35.0125"/>
      <point x="534.5125" y="-61.2"/>
      <point x="448.35" y="-61.2" type="curve"/>
      <point x="224.125" y="-61.2"/>
      <point x="109.15" y="84.05"/>
      <point x="109.15" y="259.1375" type="curve"/>
      <point x="109.15" y="449.125"/>
      <point x="234.8625" y="608.575"/>
      <point x="448.325" y="608.575" type="curve"/>
      <point x="586.8375" y="608.575"/>
      <point x="740.6625" y="531.45"/>
      <point x="740.6625" y="333.675" type="curve"/>
      <point x="740.6625" y="211.25"/>
      <point x="681.075" y="133.9125"/>
      <point x="610.9" y="133.9125" type="curve"/>
      <point x="573.8" y="133.9125"/>
      <point x="558.125" y="154.9625"/>
      <point x="568.475" y="217.4125" type="curve"/>
      <point x="605.9875" y="442.675" type="line" smooth="yes"/>
      <point x="606.9875" y="447.0"/>
      <point x="603.9875" y="449.0"/>
      <point x="599.6625" y="449.0" type="curve"/>
      <point x="561.2375" y="449.0" type="line" smooth="yes"/>
      <point x="556.9125" y="449.0"/>
      <point x="554.5875" y="447.8375"/>
      <point x="553.5875" y="443.675" type="curve"/>
      <point x="545.05" y="411.0375" type="line" smooth="yes"/>
      <point x="543.8875" y="405.7125"/>
      <point x="539.8875" y="405.55"/>
      <point x="538.4" y="407.875" type="curve"/>
      <point x="515.4" y="448.1375"/>
      <point x="475.4875" y="475.0"/>
      <point x="421.1625" y="475.0" type="curve"/>
      <point x="309.5875" y="475.0"/>
      <point x="229.75" y="371.375"/>
      <point x="229.75" y="243.1625" type="curve"/>
      <point x="229.5875" y="136.0"/>
      <point x="294.2375" y="67.0"/>
      <point x="367.8125" y="67.0" type="curve"/>
      <point x="435.2125" y="67.0"/>
      <point x="478.7" y="96.7"/>
      <point x="508.7" y="137.2375" type="curve"/>
      <point x="514.7" y="145.075"/>
      <point x="517.375" y="145.2375"/>
      <point x="520.025" y="135.725" type="curve"/>
      <point x="529.5125" y="96.6"/>
      <point x="557.35" y="81.0"/>
      <point x="607.7875" y="81.0" type="curve"/>
      <point x="716.9" y="81.0"/>
      <point x="800.25" y="187.0"/>
      <point x="800.25" y="339.675" type="curve"/>
      <point x="800.25" y="564.1625"/>
      <point x="620.0875" y="661.0"/>
      <point x="449.1625" y="661.0" type="curve"/>
      <point x="211.1" y="661.0"/>
      <point x="49.75" y="477.0"/>
      <point x="49.75" y="261.1625" type="curve"/>
      <point x="49.75" y="55.0"/>
      <point x="193.4" y="-113.0"/>
      <point x="435.5375" y="-113.0" type="curve"/>
      <point x="519.9" y="-113.0"/>
      <point x="594.5" y="-87.375"/>
    </contour>
    <contour>
      <point x="293.075" y="246.275" type="curve"/>
      <point x="293.075" y="246.275" type="line"/>
      <point x="293.075" y="342.2875"/>
      <point x="345.125" y="420.1125"/>
      <point x="424.4625" y="420.1125" type="curve"/>
      <point x="479.1875" y="420.1125"/>
      <point x="533.0125" y="370.7375"/>
      <point x="517.9375" y="268.7625" type="curve"/>
      <point x="506.2125" y="188.45"/>
      <point x="446.6" y="121.8875"/>
      <point x="377.85" y="121.8875" type="curve"/>
      <point x="324.6375" y="121.8875"/>
      <point x="293.075" y="169.425"/>
    </contour>
  </outline>
</glyph>
<glyph name="A" format="2">
  <advance width="716.0875"/>
  <unicode hex="0041"/>
  <anchor x="656.3875" y="10.675" name="ogonek"/>
  <anchor x="358.125" y="0.0" name="bottom"/>
  <anchor x="357.3125" y="742.0" name="top"/>
  <outline>
    <contour>
      <point x="57.2375" y="0.0" type="curve"/>
      <point x="57.2375" y="0.0" type="line"/>
      <point x="102.875" y="0.0" type="line" smooth="yes"/>
      <point x="110.175" y="0.0"/>
      <point x="114.6625" y="2.8125"/>
      <point x="115.9875" y="8.3" type="curve"/>
      <point x="192.1625" y="215.075" type="line" smooth="yes"/>
      <point x="194.1625" y="220.4"/>
      <point x="196.65" y="222.725"/>
      <point x="202.975" y="222.725" type="curve"/>
      <point x="507.1" y="222.725" type="line" smooth="yes"/>
      <point x="513.75" y="222.725"/>
      <point x="515.75" y="220.2375"/>
      <point x="517.9125" y="214.9125" type="curve"/>
      <point x="592.0875" y="9.4625" type="line" smooth="yes"/>
      <point x="594.4125" y="2.325"/>
      <point x="599.0625" y="0.0"/>
      <point x="606.55" y="0.0" type="curve"/>
      <point x="658.5" y="0.0" type="line" smooth="yes"/>
      <point x="666.8" y="0.0"/>
      <point x="669.9625" y="6.6"/>
      <point x="667.475" y="13.9" type="curve"/>
      <point x="409.05" y="729.2375" type="line" smooth="yes"/>
      <point x="406.4" y="737.7"/>
      <point x="399.2625" y="742.0"/>
      <point x="388.125" y="742.0" type="curve"/>
      <point x="328.475" y="742.0" type="line" smooth="yes"/>
      <point x="318.0125" y="742.0"/>
      <point x="313.6875" y="738.35"/>
      <point x="310.2" y="729.05" type="curve"/>
      <point x="48.9375" y="13.55" type="line" smooth="yes"/>
      <point x="45.9625" y="4.95"/>
      <point x="49.775" y="0.0"/>
    </contour>
    <contour>
      <point x="484.7375" y="283.85" type="curve"/>
      <point x="222.5" y="283.85" type="line"/>
      <point x="215.525" y="283.85"/>
      <point x="213.3625" y="285.9875"/>
      <point x="216.6875" y="293.9625" type="curve"/>
      <point x="348.0375" y="649.05" type="line" smooth="yes"/>
      <point x="352.55" y="661.9125"/>
      <point x="357.875" y="661.9125"/>
      <point x="362.55" y="649.8875" type="curve"/>
      <point x="492.0625" y="295.475" type="line" smooth="yes"/>
      <point x="494.3875" y="288.3375"/>
      <point x="493.225" y="283.85"/>
    </contour>
  </outline>
</glyph>
<glyph name="B" format="2">
  <advance width="692.9375"/>
  <unicode hex="0042"/>
  <outline>
    <contour>
      <point x="114.3625" y="0.0" type="curve"/>
      <point x="114.3625" y="0.0" type="line"/>
      <point x="340.75" y="0.0" type="line" smooth="yes"/>
      <point x="522.4125" y="0.0"/>
      <point x="625.4125" y="65.0"/>
      <point x="625.4125" y="197.8125" type="curve"/>
      <point x="625.4125" y="295.375"/>
      <point x="569.6625" y="353.075"/>
      <point x="476.4125" y="373.975" type="curve"/>
      <point x="470.9" y="374.975"/>
      <point x="470.9" y="380.8125"/>
      <point x="476.4125" y="382.65" type="curve"/>
      <point x="566.3625" y="412.7375"/>
      <point x="607.4125" y="468.625"/>
      <point x="607.4125" y="550.1875" type="curve"/>
      <point x="607.4125" y="675.0"/>
      <point x="508.3" y="742.0"/>
      <point x="335.6375" y="742.0" type="curve"/>
      <point x="115.525" y="742.0" type="line" smooth="yes"/>
      <point x="107.225" y="742.0"/>
      <point x="103.925" y="738.5375"/>
      <point x="103.925" y="729.4" type="curve"/>
      <point x="103.925" y="10.275" type="line" smooth="yes"/>
      <point x="103.925" y="4.1375"/>
      <point x="107.9" y="0.0"/>
    </contour>
    <contour>
      <point x="335.75" y="57.875" type="curve"/>
      <point x="187.9625" y="57.875" type="line"/>
      <point x="181.6625" y="57.875"/>
      <point x="179.3375" y="61.525000000000006"/>
      <point x="179.3375" y="69.825" type="curve"/>
      <point x="179.3375" y="334.7875" type="line" smooth="yes"/>
      <point x="179.3375" y="343.0875"/>
      <point x="182.825" y="345.7375"/>
      <point x="192.2875" y="345.7375" type="curve"/>
      <point x="348.2875" y="345.7375" type="line" smooth="yes"/>
      <point x="461.1" y="345.7375"/>
      <point x="546.8625" y="304.0125"/>
      <point x="546.8625" y="196.85" type="curve"/>
      <point x="546.8625" y="99.225"/>
      <point x="477.5" y="57.875"/>
    </contour>
    <contour>
      <point x="348.2875" y="404.2625" type="curve"/>
      <point x="187.9625" y="404.2625" type="line"/>
      <point x="181.6625" y="404.2625"/>
      <point x="179.3375" y="407.9125"/>
      <point x="179.3375" y="416.2125" type="curve"/>
      <point x="179.3375" y="674.175" type="line" smooth="yes"/>
      <point x="179.3375" y="681.6375"/>
      <point x="182.825" y="684.125"/>
      <point x="190.6125" y="684.125" type="curve"/>
      <point x="333.75" y="684.125" type="line" smooth="yes"/>
      <point x="454.45" y="684.125"/>
      <point x="530.8125" y="639.375"/>
      <point x="530.8125" y="541.775" type="curve"/>
      <point x="530.8125" y="433.2625"/>
      <point x="433.8125" y="404.2625"/>
    </contour>
  </outline>
</glyph>
<glyph name="C" format="2">
  <advance width="701.825"/>
  <unicode hex="0043"/>
  <anchor x="376.625" y="742.0" name="top"/>
  <anchor x="381.325" y="0.0" name="bottom"/>
  <outline>
    <contour>
      <point x="376.625" y="752.0" type="curve"/>
      <point x="376.625" y="752.0" type="line"/>
      <point x="184.75" y="752.0"/>
      <point x="70.2" y="609.35"/>
      <point x="70.2" y="370.1125" type="curve"/>
      <point x="70.2" y="131.55"/>
      <point x="184.75" y="-10.0"/>
      <point x="381.325" y="-10.0" type="curve"/>
      <point x="520.2" y="-10.0"/>
      <point x="617.925" y="78.225"/>
      <point x="648.8625" y="179.125" type="curve"/>
      <point x="650.35" y="186.7"/>
      <point x="647.725" y="189.1875"/>
      <point x="644.9125" y="190.35" type="curve"/>
      <point x="596.125" y="202.7875" type="line" smooth="yes"/>
      <point x="591.0125" y="204.1125"/>
      <point x="587.875" y="202.7875"/>
      <point x="586.55" y="199.8125" type="curve"/>
      <point x="547.3625" y="97.575"/>
      <point x="483.8" y="51.825"/>
      <point x="385.8125" y="51.825" type="curve"/>
      <point x="227.7625" y="51.825"/>
      <point x="149.075" y="162.5875"/>
      <point x="149.075" y="369.4625" type="curve"/>
      <point x="149.075" y="582.7125"/>
      <point x="230.575" y="691.8"/>
      <point x="379.275" y="691.8" type="curve"/>
      <point x="474.5875" y="691.8"/>
      <point x="545.8125" y="631.725"/>
      <point x="566.8625" y="542.7375" type="curve"/>
      <point x="568.1875" y="535.4375"/>
      <point x="570.025" y="532.95"/>
      <point x="575.8125" y="533.7875" type="curve"/>
      <point x="634.4" y="538.925" type="line" smooth="yes"/>
      <point x="641.025" y="539.25"/>
      <point x="642.5125" y="541.7375"/>
      <point x="640.7" y="550.475" type="curve"/>
      <point x="626.425" y="658.35"/>
      <point x="506.2625" y="752.0"/>
    </contour>
  </outline>
</glyph>
<glyph name="D" format="2">
  <advance width="714.05"/>
  <unicode hex="0044"/>
  <anchor x="349.8" y="371.0" name="center"/>
  <anchor x="344.775" y="742.0" name="top"/>
  <outline>
    <contour>
      <point x="116.6875" y="742.0" type="curve"/>
      <point x="116.6875" y="742.0" type="line"/>
      <point x="107.575" y="742.0"/>
      <point x="103.925" y="737.675"/>
      <point x="103.925" y="729.5625" type="curve"/>
      <point x="103.925" y="13.25" type="line" smooth="yes"/>
      <point x="103.925" y="3.8125"/>
      <point x="107.9" y="0.0"/>
      <point x="116.175" y="0.0" type="curve"/>
      <point x="244.3375" y="0.0" type="line" smooth="yes"/>
      <point x="516.55" y="0.0"/>
      <point x="644.525" y="121.825"/>
      <point x="644.525" y="377.8625" type="curve"/>
      <point x="644.525" y="615.6625"/>
      <point x="533.275" y="737.8625"/>
      <point x="256.225" y="741.0" type="curve"/>
      <point x="238.425" y="741.325"/>
      <point x="130.0875" y="742.0"/>
    </contour>
    <contour>
      <point x="189.3375" y="682.15" type="curve"/>
      <point x="189.3375" y="682.15" type="line"/>
      <point x="237.625" y="682.15" type="line" smooth="yes"/>
      <point x="461.425" y="682.15"/>
      <point x="565.65" y="613.5"/>
      <point x="565.65" y="371.4875" type="curve"/>
      <point x="565.65" y="143.8125"/>
      <point x="469.3875" y="59.0125"/>
      <point x="233.8375" y="59.0125" type="curve"/>
      <point x="190.825" y="59.0125" type="line" smooth="yes"/>
      <point x="182.3375" y="59.0125"/>
      <point x="179.3375" y="62.0125"/>
      <point x="179.3375" y="68.9875" type="curve"/>
      <point x="179.3375" y="668.15" type="line" smooth="yes"/>
      <point x="179.3375" y="676.6375"/>
      <point x="181.5" y="682.15"/>
    </contour>
  </outline>
</glyph>
<glyph name="E" format="2">
  <advance width="621.5875"/>
  <unicode hex="0045"/>
  <anchor x="558.9125" y="10.0" name="ogonek"/>
  <anchor x="359.45" y="0.0" name="bottom"/>
  <anchor x="343.5375" y="742.0" name="top"/>
  <outline>
    <contour>
      <point x="103.925" y="729.8875" type="curve"/>
      <point x="103.925" y="729.8875" type="line"/>
      <point x="103.925" y="12.4375" type="line" smooth="yes"/>
      <point x="103.925" y="2.975"/>
      <point x="106.7375" y="0.0"/>
      <point x="115.85" y="0.0" type="curve"/>
      <point x="562.9125" y="0.0" type="line" smooth="yes"/>
      <point x="569.8625" y="0.0"/>
      <point x="572.675" y="3.3"/>
      <point x="572.675" y="9.4375" type="curve"/>
      <point x="572.675" y="51.2" type="line" smooth="yes"/>
      <point x="572.675" y="58.5"/>
      <point x="569.7" y="60.150000000000006"/>
      <point x="562.4" y="60.150000000000006" type="curve"/>
      <point x="188.825" y="60.150000000000006" type="line" smooth="yes"/>
      <point x="181.5" y="60.150000000000006"/>
      <point x="179.3375" y="61.475"/>
      <point x="179.3375" y="69.9625" type="curve"/>
      <point x="179.3375" y="334.95" type="line" smooth="yes"/>
      <point x="179.3375" y="342.95"/>
      <point x="181.9875" y="344.7625"/>
      <point x="189.475" y="344.7625" type="curve"/>
      <point x="460.7375" y="344.7625" type="line" smooth="yes"/>
      <point x="467.875" y="344.7625"/>
      <point x="470.3625" y="346.9"/>
      <point x="470.3625" y="353.3875" type="curve"/>
      <point x="470.3625" y="395.3125" type="line" smooth="yes"/>
      <point x="470.3625" y="401.6125"/>
      <point x="467.55" y="404.425"/>
      <point x="461.0875" y="404.425" type="curve"/>
      <point x="189.8" y="404.425" type="line" smooth="yes"/>
      <point x="182.3125" y="404.425"/>
      <point x="179.3375" y="406.4"/>
      <point x="179.3375" y="413.7" type="curve"/>
      <point x="179.3375" y="671.225" type="line" smooth="yes"/>
      <point x="179.3375" y="680.0375"/>
      <point x="182.3125" y="681.85"/>
      <point x="190.6125" y="681.85" type="curve"/>
      <point x="547.5625" y="681.85" type="line" smooth="yes"/>
      <point x="555.5125" y="681.85"/>
      <point x="558.4875" y="684.475"/>
      <point x="558.4875" y="692.1" type="curve"/>
      <point x="558.65" y="732.725" type="line" smooth="yes"/>
      <point x="558.65" y="739.025"/>
      <point x="556.0" y="742.0"/>
      <point x="549.8625" y="742.0" type="curve"/>
      <point x="114.55" y="742.0" type="line" smooth="yes"/>
      <point x="106.7375" y="742.0"/>
      <point x="103.925" y="739.025"/>
    </contour>
  </outline>
</glyph>
<glyph name="F" format="2">
  <advance width="593.8875"/>
  <unicode hex="0046"/>
  <outline>
    <contour>
      <point x="103.925" y="729.8875" type="curve"/>
      <point x="103.925" y="729.8875" type="line"/>
      <point x="103.925" y="12.4375" type="line" smooth="yes"/>
      <point x="103.925" y="2.975"/>
      <point x="106.575" y="0.0"/>
      <point x="115.85" y="0.0" type="curve"/>
      <point x="168.1125" y="0.0" type="line" smooth="yes"/>
      <point x="176.0375" y="0.0"/>
      <point x="179.3375" y="2.975"/>
      <point x="179.3375" y="10.575" type="curve"/>
      <point x="179.3375" y="322.925" type="line" smooth="yes"/>
      <point x="179.3375" y="331.0875"/>
      <point x="181.9875" y="332.9"/>
      <point x="189.475" y="332.9" type="curve"/>
      <point x="469.4375" y="332.9" type="line" smooth="yes"/>
      <point x="476.7375" y="332.9"/>
      <point x="479.0625" y="334.875"/>
      <point x="479.0625" y="341.525" type="curve"/>
      <point x="479.0625" y="383.125" type="line" smooth="yes"/>
      <point x="479.0625" y="389.425"/>
      <point x="476.4125" y="392.2375"/>
      <point x="469.95" y="392.2375" type="curve"/>
      <point x="189.8" y="392.2375" type="line" smooth="yes"/>
      <point x="182.15" y="392.2375"/>
      <point x="179.3375" y="394.05"/>
      <point x="179.3375" y="401.35" type="curve"/>
      <point x="179.3375" y="671.225" type="line" smooth="yes"/>
      <point x="179.3375" y="680.0375"/>
      <point x="182.15" y="681.85"/>
      <point x="190.6125" y="681.85" type="curve"/>
      <point x="538.2125" y="681.85" type="line" smooth="yes"/>
      <point x="546.1625" y="681.85"/>
      <point x="548.975" y="684.475"/>
      <point x="548.975" y="692.1" type="curve"/>
      <point x="549.1375" y="732.725" type="line" smooth="yes"/>
      <point x="549.1375" y="739.025"/>
      <point x="546.4875" y="742.0"/>
      <point x="540.35" y="742.0" type="curve"/>
      <point x="114.55" y="742.0" type="line" smooth="yes"/>
      <point x="106.9" y="742.0"/>
      <point x="103.925" y="739.025"/>
    </contour>
  </outline>
</glyph>
<glyph name="G" format="2">
  <advance width="735.0375"/>
  <unicode hex="0047"/>
  <anchor x="375.3" y="742.0" name="top"/>
  <anchor x="379.4875" y="0.0" name="bottom"/>
  <outline>
    <contour>
      <point x="374.1375" y="-10.0" type="curve"/>
      <point x="374.1375" y="-10.0" type="line"/>
      <point x="486.275" y="-10.0"/>
      <point x="555.7" y="44.1875"/>
      <point x="594.2125" y="108.5" type="curve"/>
      <point x="598.375" y="115.3375"/>
      <point x="602.2125" y="114.5"/>
      <point x="602.7" y="108.825" type="curve"/>
      <point x="609.2" y="10.625" type="line" smooth="yes"/>
      <point x="610.825" y="0.8125"/>
      <point x="616.6375" y="0.0"/>
      <point x="625.2875" y="0.0" type="curve"/>
      <point x="645.7" y="0.0" type="line" smooth="yes"/>
      <point x="653.1875" y="0.0"/>
      <point x="656.8375" y="2.975"/>
      <point x="656.8375" y="11.975" type="curve"/>
      <point x="656.8375" y="366.6125" type="line" smooth="yes"/>
      <point x="656.8375" y="372.8875"/>
      <point x="653.05" y="376.675"/>
      <point x="645.6375" y="376.675" type="curve"/>
      <point x="402.4875" y="377.0" type="line" smooth="yes"/>
      <point x="397.5375" y="377.0"/>
      <point x="394.8875" y="374.1875"/>
      <point x="394.8875" y="369.2125" type="curve"/>
      <point x="394.8875" y="334.35" type="line" smooth="yes"/>
      <point x="394.8875" y="328.2375"/>
      <point x="397.5375" y="325.75"/>
      <point x="404.0" y="325.75" type="curve"/>
      <point x="577.5625" y="325.75" type="line" smooth="yes"/>
      <point x="584.2125" y="325.75"/>
      <point x="588.8875" y="323.9375"/>
      <point x="588.2375" y="316.2875" type="curve"/>
      <point x="587.75" y="248.6625" type="line" smooth="yes"/>
      <point x="584.825" y="162.4625"/>
      <point x="519.0" y="50.525000000000006"/>
      <point x="377.575" y="50.525000000000006" type="curve"/>
      <point x="228.7125" y="50.525000000000006"/>
      <point x="149.075" y="159.5"/>
      <point x="149.075" y="374.0" type="curve"/>
      <point x="149.075" y="577.5"/>
      <point x="229.4125" y="691.6375"/>
      <point x="376.275" y="691.6375" type="curve"/>
      <point x="476.75" y="691.6375"/>
      <point x="553.625" y="624.8875"/>
      <point x="568.65" y="541.4125" type="curve"/>
      <point x="569.975" y="535.1125"/>
      <point x="572.65" y="532.3"/>
      <point x="577.7625" y="533.1375" type="curve"/>
      <point x="634.8625" y="542.3875" type="line" smooth="yes"/>
      <point x="641.65" y="543.55"/>
      <point x="642.3" y="546.875"/>
      <point x="641.325" y="554.775" type="curve"/>
      <point x="627.375" y="659.2625"/>
      <point x="509.35" y="752.0"/>
      <point x="377.0875" y="752.0" type="curve"/>
      <point x="190.725" y="752.0"/>
      <point x="70.2" y="611.5625"/>
      <point x="70.2" y="368.0" type="curve"/>
      <point x="70.2" y="131.6"/>
      <point x="184.9125" y="-10.0"/>
    </contour>
  </outline>
</glyph>
<glyph name="H" format="2">
  <advance width="731.0125"/>
  <unicode hex="0048"/>
  <anchor x="365.7625" y="742.0" name="top"/>
  <anchor x="365.4375" y="0.0" name="bottom"/>
  <outline>
    <contour>
      <point x="186.9625" y="354.7875" type="curve"/>
      <point x="543.2125" y="354.7875" type="line"/>
      <point x="549.025" y="354.7875"/>
      <point x="551.675" y="351.975"/>
      <point x="551.675" y="346.4875" type="curve"/>
      <point x="551.675" y="12.25" type="line" smooth="yes"/>
      <point x="551.675" y="2.975"/>
      <point x="555.8125" y="0.0"/>
      <point x="565.4125" y="0.0" type="curve"/>
      <point x="615.1625" y="0.0" type="line" smooth="yes"/>
      <point x="623.6" y="0.0"/>
      <point x="627.0875" y="3.8125"/>
      <point x="627.0875" y="12.4375" type="curve"/>
      <point x="627.0875" y="729.8875" type="line" smooth="yes"/>
      <point x="627.0875" y="739.025"/>
      <point x="624.1125" y="742.0"/>
      <point x="616.4625" y="742.0" type="curve"/>
      <point x="561.3" y="742.0" type="line" smooth="yes"/>
      <point x="554.4875" y="742.0"/>
      <point x="551.675" y="738.1875"/>
      <point x="551.675" y="731.05" type="curve"/>
      <point x="551.675" y="426.1875" type="line" smooth="yes"/>
      <point x="551.675" y="419.05"/>
      <point x="548.8625" y="416.2375"/>
      <point x="542.05" y="416.2375" type="curve"/>
      <point x="189.8" y="416.2375" type="line" smooth="yes"/>
      <point x="182.15" y="416.2375"/>
      <point x="179.3375" y="418.2125"/>
      <point x="179.3375" y="427.025" type="curve"/>
      <point x="179.3375" y="730.2125" type="line" smooth="yes"/>
      <point x="179.3375" y="739.025"/>
      <point x="176.525" y="742.0"/>
      <point x="168.875" y="742.0" type="curve"/>
      <point x="114.55" y="742.0" type="line" smooth="yes"/>
      <point x="106.9" y="742.0"/>
      <point x="103.925" y="739.025"/>
      <point x="103.925" y="729.8875" type="curve"/>
      <point x="103.925" y="12.4375" type="line" smooth="yes"/>
      <point x="103.925" y="3.8125"/>
      <point x="106.575" y="0.0"/>
      <point x="115.85" y="0.0" type="curve"/>
      <point x="165.6" y="0.0" type="line" smooth="yes"/>
      <point x="175.2" y="0.0"/>
      <point x="179.3375" y="3.8125"/>
      <point x="179.3375" y="12.25" type="curve"/>
      <point x="179.3375" y="347.325" type="line" smooth="yes"/>
      <point x="179.3375" y="351.1375"/>
      <point x="181.9875" y="354.7875"/>
    </contour>
  </outline>
</glyph>
<glyph name="I" format="2">
  <advance width="283.2625"/>
  <unicode hex="0049"/>
  <anchor x="164.925" y="10.0" name="ogonek"/>
  <anchor x="141.55" y="0.0" name="bottom"/>
  <anchor x="144.225" y="742.0" name="top"/>
  <outline>
    <contour>
      <point x="168.875" y="742.0" type="curve"/>
      <point x="114.55" y="742.0" type="line"/>
      <point x="106.9" y="742.0"/>
      <point x="103.925" y="739.025"/>
      <point x="103.925" y="729.8875" type="curve"/>
      <point x="103.925" y="12.4375" type="line" smooth="yes"/>
      <point x="103.925" y="2.975"/>
      <point x="106.575" y="0.0"/>
      <point x="117.525" y="0.0" type="curve"/>
      <point x="163.925" y="0.0" type="line" smooth="yes"/>
      <point x="176.0375" y="0.0"/>
      <point x="179.3375" y="2.975"/>
      <point x="179.3375" y="14.7625" type="curve"/>
      <point x="179.3375" y="730.2125" type="line" smooth="yes"/>
      <point x="179.3375" y="739.025"/>
      <point x="176.6875" y="742.0"/>
    </contour>
  </outline>
</glyph>
<glyph name="J" format="2">
  <advance width="410.05"/>
  <unicode hex="004A"/>
  <anchor x="262.2625" y="742.0" name="top"/>
  <outline>
    <contour>
      <point x="310.2875" y="155.05" type="curve"/>
      <point x="310.2875" y="155.05" type="line"/>
      <point x="310.2875" y="730.2125" type="line" smooth="yes"/>
      <point x="310.2875" y="738.1875"/>
      <point x="307.6375" y="742.0"/>
      <point x="300.6625" y="742.0" type="curve"/>
      <point x="244.825" y="742.0" type="line" smooth="yes"/>
      <point x="237.85" y="742.0"/>
      <point x="234.875" y="738.1875"/>
      <point x="234.875" y="730.725" type="curve"/>
      <point x="234.875" y="172.525" type="line" smooth="yes"/>
      <point x="234.875" y="83.5875"/>
      <point x="211.7375" y="56.9125"/>
      <point x="149.3375" y="56.9125" type="curve"/>
      <point x="104.725" y="56.9125"/>
      <point x="83.5375" y="70.2875"/>
      <point x="63.35" y="78.9875" type="curve"/>
      <point x="57.4" y="80.9875"/>
      <point x="53.75" y="78.525"/>
      <point x="52.75" y="71.9" type="curve"/>
      <point x="43.75" y="27.4125" type="line" smooth="yes"/>
      <point x="42.5875" y="19.5125"/>
      <point x="45.8875" y="15.2125"/>
      <point x="52.1375" y="12.8875" type="curve"/>
      <point x="65.3125" y="7.4"/>
      <point x="109.175" y="-10.0"/>
      <point x="161.9" y="-10.0" type="curve"/>
      <point x="268.4875" y="-10.0"/>
      <point x="310.2875" y="48.8375"/>
    </contour>
  </outline>
</glyph>
<glyph name="K" format="2">
  <advance width="689.925"/>
  <unicode hex="004B"/>
  <anchor x="372.675" y="742.0" name="top"/>
  <anchor x="347.55" y="0.0" name="bottom"/>
  <outline>
    <contour>
      <point x="642.825" y="10.9" type="curve"/>
      <point x="642.825" y="10.9" type="line"/>
      <point x="372.9" y="450.6875" type="line" smooth="yes"/>
      <point x="370.25" y="456.3125"/>
      <point x="370.4125" y="457.45"/>
      <point x="373.3875" y="460.9125" type="curve"/>
      <point x="616.95" y="730.5875" type="line" smooth="yes"/>
      <point x="622.4125" y="736.375"/>
      <point x="619.625" y="742.0"/>
      <point x="611.025" y="742.0" type="curve"/>
      <point x="554.5" y="742.0" type="line" smooth="yes"/>
      <point x="545.575" y="742.0"/>
      <point x="542.6" y="740.1875"/>
      <point x="538.3" y="735.2375" type="curve"/>
      <point x="187.6375" y="344.9125" type="line" smooth="yes"/>
      <point x="182.15" y="339.1"/>
      <point x="179.3375" y="338.9375"/>
      <point x="179.3375" y="346.5625" type="curve"/>
      <point x="179.3375" y="731.8875" type="line" smooth="yes"/>
      <point x="179.3375" y="739.025"/>
      <point x="175.85" y="742.0"/>
      <point x="169.7125" y="742.0" type="curve"/>
      <point x="113.7125" y="742.0" type="line" smooth="yes"/>
      <point x="106.9" y="742.0"/>
      <point x="103.925" y="738.1875"/>
      <point x="103.925" y="731.5625" type="curve"/>
      <point x="103.925" y="11.6" type="line" smooth="yes"/>
      <point x="103.925" y="2.975"/>
      <point x="107.4125" y="0.0"/>
      <point x="116.6875" y="0.0" type="curve"/>
      <point x="165.6" y="0.0" type="line" smooth="yes"/>
      <point x="175.2" y="0.0"/>
      <point x="179.3375" y="3.8125"/>
      <point x="179.3375" y="12.25" type="curve"/>
      <point x="179.3375" y="235.275" type="line" smooth="yes"/>
      <point x="179.3375" y="243.6"/>
      <point x="181.175" y="247.0875"/>
      <point x="187.0125" y="253.0875" type="curve"/>
      <point x="309.1" y="390.15" type="line" smooth="yes"/>
      <point x="314.9125" y="396.45"/>
      <point x="318.4" y="397.6125"/>
      <point x="322.725" y="390.9625" type="curve"/>
      <point x="558.625" y="7.4375" type="line" smooth="yes"/>
      <point x="561.4375" y="2.4875"/>
      <point x="566.7375" y="0.0"/>
      <point x="573.6875" y="0.0" type="curve"/>
      <point x="638.0375" y="0.0" type="line" smooth="yes"/>
      <point x="644.6375" y="0.0"/>
      <point x="646.6375" y="4.95"/>
    </contour>
  </outline>
</glyph>
<glyph name="L" format="2">
  <advance width="596.1"/>
  <unicode hex="004C"/>
  <anchor x="142.0375" y="742.0" name="top"/>
  <anchor x="318.1875" y="0.0" name="bottom"/>
  <anchor x="437.1375" y="742.0" name="topright"/>
  <outline>
    <contour>
      <point x="103.925" y="729.8875" type="curve"/>
      <point x="103.925" y="729.8875" type="line"/>
      <point x="103.925" y="12.4375" type="line" smooth="yes"/>
      <point x="103.925" y="3.8125"/>
      <point x="106.575" y="0.0"/>
      <point x="115.85" y="0.0" type="curve"/>
      <point x="542.2625" y="0.0" type="line"/>
      <point x="549.2125" y="0.0"/>
      <point x="552.1875" y="3.3"/>
      <point x="552.1875" y="9.4375" type="curve"/>
      <point x="552.1875" y="51.2" type="line" smooth="yes"/>
      <point x="552.1875" y="58.5"/>
      <point x="549.05" y="60.150000000000006"/>
      <point x="541.75" y="60.150000000000006" type="curve"/>
      <point x="188.825" y="60.150000000000006" type="line" smooth="yes"/>
      <point x="181.5" y="60.150000000000006"/>
      <point x="179.3375" y="61.475"/>
      <point x="179.3375" y="69.9625" type="curve"/>
      <point x="179.3375" y="730.2125" type="line" smooth="yes"/>
      <point x="179.3375" y="739.025"/>
      <point x="176.6875" y="742.0"/>
      <point x="168.875" y="742.0" type="curve"/>
      <point x="114.55" y="742.0" type="line" smooth="yes"/>
      <point x="106.9" y="742.0"/>
      <point x="103.925" y="739.025"/>
    </contour>
  </outline>
</glyph>
<glyph name="M" format="2">
  <advance width="894.925"/>
  <unicode hex="004D"/>
  <outline>
    <contour>
      <point x="115.6875" y="0.0" type="curve"/>
      <point x="115.6875" y="0.0" type="line"/>
      <point x="158.2375" y="0.0" type="line" smooth="yes"/>
      <point x="167.025" y="0.0"/>
      <point x="170.1875" y="3.1625"/>
      <point x="170.1875" y="11.1125" type="curve"/>
      <point x="170.1875" y="596.325" type="line" smooth="yes"/>
      <point x="170.1875" y="601.7875"/>
      <point x="173.0" y="601.6"/>
      <point x="174.65" y="596.4875" type="curve"/>
      <point x="402.4" y="11.3" type="line" smooth="yes"/>
      <point x="405.5625" y="3.4875"/>
      <point x="411.05" y="0.0"/>
      <point x="422.2125" y="0.0" type="curve"/>
      <point x="461.8875" y="0.0" type="line" smooth="yes"/>
      <point x="471.2125" y="0.0"/>
      <point x="476.025" y="3.65"/>
      <point x="479.1875" y="12.1375" type="curve"/>
      <point x="711.125" y="601.975" type="line" smooth="yes"/>
      <point x="712.6125" y="606.4375"/>
      <point x="715.5875" y="608.1125"/>
      <point x="715.5875" y="602.1375" type="curve"/>
      <point x="715.5875" y="11.6" type="line" smooth="yes"/>
      <point x="715.5875" y="2.975"/>
      <point x="719.075" y="0.0"/>
      <point x="728.1875" y="0.0" type="curve"/>
      <point x="778.2625" y="0.0" type="line" smooth="yes"/>
      <point x="787.025" y="0.0"/>
      <point x="791.0" y="3.8125"/>
      <point x="791.0" y="13.0875" type="curve"/>
      <point x="791.0" y="730.2125" type="line" smooth="yes"/>
      <point x="791.0" y="739.025"/>
      <point x="788.35" y="742.0"/>
      <point x="780.5375" y="742.0" type="curve"/>
      <point x="709.2875" y="742.0" type="line" smooth="yes"/>
      <point x="701.9875" y="742.0"/>
      <point x="698.175" y="738.5375"/>
      <point x="695.6875" y="731.425" type="curve"/>
      <point x="453.6125" y="120.4125" type="line" smooth="yes"/>
      <point x="448.1" y="107.225"/>
      <point x="442.9375" y="106.9"/>
      <point x="438.1" y="119.575" type="curve"/>
      <point x="197.5875" y="732.375" type="line"/>
      <point x="195.1" y="739.675"/>
      <point x="191.6125" y="742.0"/>
      <point x="182.15" y="742.0" type="curve"/>
      <point x="114.875" y="742.0" type="line" smooth="yes"/>
      <point x="106.575" y="742.0"/>
      <point x="103.925" y="739.1875"/>
      <point x="103.925" y="729.8875" type="curve"/>
      <point x="103.925" y="12.925" type="line" smooth="yes"/>
      <point x="103.925" y="4.3"/>
      <point x="107.225" y="0.0"/>
    </contour>
  </outline>
</glyph>
<glyph name="N" format="2">
  <advance width="755.975"/>
  <unicode hex="004E"/>
  <anchor x="391.8875" y="742.0" name="top"/>
  <anchor x="362.575" y="0.0" name="bottom"/>
  <outline>
    <contour>
      <point x="642.075" y="742.0" type="curve"/>
      <point x="595.9" y="742.0" type="line"/>
      <point x="588.4375" y="742.0"/>
      <point x="585.625" y="738.1875"/>
      <point x="585.625" y="731.05" type="curve"/>
      <point x="585.625" y="153.6375" type="line" smooth="yes"/>
      <point x="585.625" y="146.0125"/>
      <point x="578.625" y="140.9875"/>
      <point x="571.3" y="151.3125" type="curve"/>
      <point x="174.6875" y="733.2125" type="line" smooth="yes"/>
      <point x="169.55" y="740.675"/>
      <point x="166.0625" y="742.0"/>
      <point x="156.6" y="742.0" type="curve"/>
      <point x="115.0375" y="742.0" type="line"/>
      <point x="106.7375" y="742.0"/>
      <point x="103.925" y="739.1875"/>
      <point x="103.925" y="729.8875" type="curve"/>
      <point x="103.925" y="11.625" type="line" smooth="yes"/>
      <point x="103.925" y="3.325"/>
      <point x="107.225" y="0.0"/>
      <point x="115.525" y="0.0" type="curve"/>
      <point x="158.5625" y="0.0" type="line" smooth="yes"/>
      <point x="167.35" y="0.0"/>
      <point x="171.0" y="3.4875"/>
      <point x="170.8375" y="11.1125" type="curve"/>
      <point x="170.8375" y="596.2125" type="line" smooth="yes"/>
      <point x="170.8375" y="604.05"/>
      <point x="175.8375" y="606.05"/>
      <point x="182.5125" y="596.5375" type="curve"/>
      <point x="585.65" y="7.4625" type="line" smooth="yes"/>
      <point x="591.4625" y="-0.5125"/>
      <point x="597.4625" y="0.0"/>
      <point x="605.95" y="0.0" type="curve"/>
      <point x="640.775" y="0.0" type="line" smooth="yes"/>
      <point x="647.9125" y="0.0"/>
      <point x="652.05" y="3.65"/>
      <point x="652.05" y="11.3" type="curve"/>
      <point x="652.05" y="730.8625" type="line" smooth="yes"/>
      <point x="652.05" y="739.35"/>
      <point x="649.5625" y="742.0"/>
    </contour>
  </outline>
</glyph>
<glyph name="O" format="2">
  <advance width="761.575"/>
  <unicode hex="004F"/>
  <guideline x="-580.875" y="431.0" angle="90.0"/>
  <anchor x="380.7875" y="371.0" name="center"/>
  <anchor x="456.2" y="9.1625" name="ogonek"/>
  <anchor x="382.4625" y="742.0" name="top"/>
  <anchor x="527.5625" y="742.0" name="topright"/>
  <anchor x="20.0" y="742.0" name="topleft"/>
  <anchor x="382.7875" y="0.0" name="bottom"/>
  <outline>
    <contour>
      <point x="380.95" y="-10.0" type="curve"/>
      <point x="380.95" y="-10.0" type="line"/>
      <point x="573.825" y="-10.0"/>
      <point x="691.2125" y="124.7625"/>
      <point x="691.2125" y="369.0" type="curve"/>
      <point x="691.2125" y="615.2375"/>
      <point x="573.3375" y="752.0"/>
      <point x="381.7875" y="752.0" type="curve"/>
      <point x="189.075" y="752.0"/>
      <point x="70.3625" y="614.4"/>
      <point x="70.3625" y="367.325" type="curve"/>
      <point x="70.3625" y="123.7625"/>
      <point x="186.75" y="-10.0"/>
    </contour>
    <contour>
      <point x="382.625" y="50.525000000000006" type="curve"/>
      <point x="382.625" y="50.525000000000006" type="line"/>
      <point x="229.1375" y="50.525000000000006"/>
      <point x="149.2375" y="153.2375"/>
      <point x="149.2375" y="368.5125" type="curve"/>
      <point x="149.2375" y="586.275"/>
      <point x="229.4625" y="691.8"/>
      <point x="381.7875" y="691.8" type="curve"/>
      <point x="532.95" y="691.8"/>
      <point x="612.3375" y="587.1125"/>
      <point x="612.3375" y="368.5125" type="curve"/>
      <point x="612.3375" y="152.4"/>
      <point x="534.95" y="50.525000000000006"/>
    </contour>
  </outline>
</glyph>
<glyph name="P" format="2">
  <advance width="683.2625"/>
  <unicode hex="0050"/>
  <outline>
    <contour>
      <point x="625.95" y="529.475" type="curve"/>
      <point x="625.95" y="529.475" type="line"/>
      <point x="625.95" y="680.425"/>
      <point x="510.725" y="742.0"/>
      <point x="354.2625" y="742.0" type="curve"/>
      <point x="114.55" y="742.0" type="line" smooth="yes"/>
      <point x="106.7375" y="742.0"/>
      <point x="103.925" y="739.025"/>
      <point x="103.925" y="729.8875" type="curve"/>
      <point x="103.925" y="10.7625" type="line" smooth="yes"/>
      <point x="103.925" y="3.8125"/>
      <point x="107.4125" y="0.0"/>
      <point x="114.85" y="0.0" type="curve"/>
      <point x="167.275" y="0.0" type="line" smooth="yes"/>
      <point x="175.2" y="0.0"/>
      <point x="179.3375" y="3.8125"/>
      <point x="179.3375" y="12.25" type="curve"/>
      <point x="179.3375" y="307.7625" type="line" smooth="yes"/>
      <point x="179.3375" y="313.925"/>
      <point x="181.5" y="317.0875"/>
      <point x="187.9875" y="317.0875" type="curve"/>
      <point x="363.5125" y="317.0875" type="line" smooth="yes"/>
      <point x="516.4625" y="317.0875"/>
      <point x="625.95" y="381.8"/>
    </contour>
    <contour>
      <point x="548.05" y="532.475" type="curve"/>
      <point x="548.05" y="532.475" type="line"/>
      <point x="548.05" y="422.475"/>
      <point x="472.9875" y="376.5875"/>
      <point x="357.9875" y="376.5875" type="curve"/>
      <point x="187.9625" y="376.5875" type="line" smooth="yes"/>
      <point x="181.6625" y="376.5875"/>
      <point x="179.3375" y="380.2375"/>
      <point x="179.3375" y="388.5375" type="curve"/>
      <point x="179.3375" y="672.3875" type="line" smooth="yes"/>
      <point x="179.3375" y="679.85"/>
      <point x="182.825" y="682.5"/>
      <point x="190.6125" y="682.5" type="curve"/>
      <point x="351.15" y="682.5" type="line" smooth="yes"/>
      <point x="471.6875" y="682.5"/>
      <point x="548.05" y="644.125"/>
    </contour>
  </outline>
</glyph>
<glyph name="Q" format="2">
  <advance width="761.9"/>
  <unicode hex="0051"/>
  <outline>
    <contour>
      <point x="70.3625" y="369.0" type="curve"/>
      <point x="70.3625" y="369.0" type="line"/>
      <point x="70.3625" y="119.575"/>
      <point x="190.9375" y="-10.0"/>
      <point x="380.95" y="-10.0" type="curve"/>
      <point x="406.95" y="-10.0"/>
      <point x="435.4875" y="-7.325"/>
      <point x="460.325" y="-1.8125" type="curve"/>
      <point x="467.325" y="0.02499999999999991"/>
      <point x="472.325" y="-1.8125"/>
      <point x="475.325" y="-5.8125" type="curve"/>
      <point x="539.025" y="-94.05"/>
      <point x="606.0" y="-122.975"/>
      <point x="659.1" y="-122.975" type="curve"/>
      <point x="676.025" y="-122.975"/>
      <point x="683.0" y="-120.325"/>
      <point x="683.0" y="-107.05" type="curve"/>
      <point x="683.0" y="-70.75" type="line" smooth="yes"/>
      <point x="683.0" y="-67.1"/>
      <point x="681.675" y="-63.287499999999994"/>
      <point x="674.375" y="-62.125" type="curve"/>
      <point x="604.575" y="-52.775"/>
      <point x="540.825" y="0.7000000000000011"/>
      <point x="540.825" y="26.075000000000003" type="curve"/>
      <point x="540.825" y="30.075000000000003"/>
      <point x="541.6625" y="32.075"/>
      <point x="546.175" y="34.9125" type="curve"/>
      <point x="638.3" y="94.2125"/>
      <point x="691.375" y="198.75"/>
      <point x="691.375" y="369.0" type="curve"/>
      <point x="691.375" y="616.9125"/>
      <point x="573.5" y="752.0"/>
      <point x="380.95" y="752.0" type="curve"/>
      <point x="188.2375" y="752.0"/>
      <point x="70.3625" y="616.9125"/>
    </contour>
    <contour>
      <point x="149.2375" y="367.0" type="curve"/>
      <point x="149.2375" y="367.0" type="line"/>
      <point x="149.2375" y="582.25"/>
      <point x="226.95" y="691.8"/>
      <point x="380.95" y="691.8" type="curve"/>
      <point x="534.7875" y="691.8"/>
      <point x="612.5" y="582.25"/>
      <point x="612.5" y="368.675" type="curve"/>
      <point x="612.5" y="151.5625"/>
      <point x="532.6" y="50.525000000000006"/>
      <point x="380.95" y="50.525000000000006" type="curve"/>
      <point x="229.1375" y="50.525000000000006"/>
      <point x="149.2375" y="151.5625"/>
    </contour>
  </outline>
</glyph>
<glyph name="R" format="2">
  <advance width="688.75"/>
  <unicode hex="0052"/>
  <anchor x="337.9" y="742.0" name="top"/>
  <anchor x="345.3875" y="0.0" name="bottom"/>
  <outline>
    <contour>
      <point x="615.575" y="16.925" type="curve"/>
      <point x="615.575" y="16.925" type="line"/>
      <point x="472.825" y="351.3625" type="line"/>
      <point x="471.5" y="355.175"/>
      <point x="472.3375" y="358.9875"/>
      <point x="476.825" y="360.3125" type="curve"/>
      <point x="546.9625" y="380.1"/>
      <point x="625.4125" y="435.1625"/>
      <point x="625.4125" y="553.45" type="curve"/>
      <point x="625.4125" y="677.4"/>
      <point x="536.8625" y="742.0"/>
      <point x="384.9" y="742.0" type="curve"/>
      <point x="114.55" y="742.0" type="line" smooth="yes"/>
      <point x="106.7375" y="742.0"/>
      <point x="103.925" y="739.025"/>
      <point x="103.925" y="729.8875" type="curve"/>
      <point x="103.925" y="11.6" type="line" smooth="yes"/>
      <point x="103.925" y="3.8125"/>
      <point x="106.575" y="0.0"/>
      <point x="116.525" y="0.0" type="curve"/>
      <point x="165.6" y="0.0" type="line" smooth="yes"/>
      <point x="176.0375" y="0.0"/>
      <point x="179.3375" y="3.8125"/>
      <point x="179.3375" y="13.925" type="curve"/>
      <point x="179.3375" y="334.25" type="line" smooth="yes"/>
      <point x="179.3375" y="340.6"/>
      <point x="182.3375" y="345.25"/>
      <point x="191.3375" y="345.25" type="curve"/>
      <point x="379.7125" y="345.25" type="line" smooth="yes"/>
      <point x="393.6875" y="345.25"/>
      <point x="399.175" y="341.925"/>
      <point x="402.3375" y="334.275" type="curve"/>
      <point x="536.5375" y="10.95" type="line" smooth="yes"/>
      <point x="539.7" y="3.65"/>
      <point x="542.8375" y="0.0"/>
      <point x="550.975" y="0.0" type="curve"/>
      <point x="605.95" y="0.0" type="line" smooth="yes"/>
      <point x="614.4125" y="0.0"/>
      <point x="619.225" y="8.3"/>
    </contour>
    <contour>
      <point x="354.125" y="402.9625" type="curve"/>
      <point x="354.125" y="402.9625" type="line"/>
      <point x="187.9625" y="402.9625" type="line" smooth="yes"/>
      <point x="181.6625" y="402.9625"/>
      <point x="179.3375" y="406.45"/>
      <point x="179.3375" y="413.9125" type="curve"/>
      <point x="179.3375" y="674.5" type="line" smooth="yes"/>
      <point x="179.3375" y="681.9625"/>
      <point x="182.825" y="684.45"/>
      <point x="192.2875" y="684.45" type="curve"/>
      <point x="381.625" y="684.45" type="line" smooth="yes"/>
      <point x="490.275" y="684.45"/>
      <point x="547.025" y="639.025"/>
      <point x="547.025" y="545.3125" type="curve"/>
      <point x="547.025" y="444.525"/>
      <point x="482.175" y="402.9625"/>
    </contour>
  </outline>
</glyph>
<glyph name="S" format="2">
  <advance width="631.4875"/>
  <unicode hex="0053"/>
  <anchor x="324.85" y="742.0" name="top"/>
  <anchor x="328.2" y="0.0" name="bottom"/>
  <outline>
    <contour>
      <point x="499.025" y="613.35" type="curve"/>
      <point x="499.025" y="613.35" type="line"/>
      <point x="506.325" y="605.2125"/>
      <point x="508.975" y="603.375"/>
      <point x="514.7875" y="607.8625" type="curve"/>
      <point x="550.925" y="637.45" type="line" smooth="yes"/>
      <point x="558.0625" y="643.2625"/>
      <point x="555.25" y="649.2375"/>
      <point x="550.925" y="654.05" type="curve"/>
      <point x="495.7125" y="714.8625"/>
      <point x="421.2375" y="752.0"/>
      <point x="324.0125" y="752.0" type="curve"/>
      <point x="178.5625" y="752.0"/>
      <point x="79.6625" y="675.15"/>
      <point x="79.6625" y="549.3375" type="curve"/>
      <point x="79.6625" y="478.675"/>
      <point x="117.1375" y="405.075"/>
      <point x="227.0875" y="365.8625" type="curve"/>
      <point x="378.25" y="311.275" type="line" smooth="yes"/>
      <point x="476.525" y="274.475"/>
      <point x="499.0375" y="236.8875"/>
      <point x="499.0375" y="183.575" type="curve"/>
      <point x="499.0375" y="87.95"/>
      <point x="425.075" y="50.2"/>
      <point x="313.55" y="50.2" type="curve"/>
      <point x="211.1" y="50.2"/>
      <point x="164.5625" y="84.925"/>
      <point x="110.5125" y="154.4875" type="curve"/>
      <point x="105.025" y="161.1375"/>
      <point x="98.8875" y="162.625"/>
      <point x="87.5875" y="154.8125" type="curve"/>
      <point x="61.6375" y="136.575" type="line" smooth="yes"/>
      <point x="50.9875" y="128.925"/>
      <point x="50.15" y="122.6"/>
      <point x="55.6375" y="114.4625" type="curve"/>
      <point x="112.6875" y="31.275"/>
      <point x="199.625" y="-10.0"/>
      <point x="316.3125" y="-10.0" type="curve"/>
      <point x="474.7875" y="-10.0"/>
      <point x="572.6625" y="64.225"/>
      <point x="572.6625" y="190.45" type="curve"/>
      <point x="572.6625" y="277.5375"/>
      <point x="527.225" y="341.4375"/>
      <point x="408.0875" y="382.4875" type="curve"/>
      <point x="265.5375" y="431.35" type="line" smooth="yes"/>
      <point x="167.8" y="465.9625"/>
      <point x="152.9625" y="519.625"/>
      <point x="152.9625" y="555.2125" type="curve"/>
      <point x="152.9625" y="642.1875"/>
      <point x="219.325" y="691.6375"/>
      <point x="322.8" y="691.6375" type="curve"/>
      <point x="405.825" y="691.6375"/>
      <point x="461.625" y="656.9375"/>
    </contour>
  </outline>
</glyph>
<glyph name="T" format="2">
  <advance width="636.1625"/>
  <unicode hex="0054"/>
  <anchor x="327.7125" y="742.0" name="top"/>
  <anchor x="327.7125" y="0.0" name="bottom"/>
  <outline>
    <contour>
      <point x="43.9125" y="732.4" type="curve"/>
      <point x="43.9125" y="691.2875" type="line"/>
      <point x="43.9125" y="683.9875"/>
      <point x="47.05" y="682.3375"/>
      <point x="54.35" y="682.3375" type="curve"/>
      <point x="278.925" y="682.3375" type="line" smooth="yes"/>
      <point x="286.925" y="682.3375"/>
      <point x="289.0875" y="680.85"/>
      <point x="289.0875" y="672.525" type="curve"/>
      <point x="289.0875" y="11.625" type="line" smooth="yes"/>
      <point x="289.0875" y="2.8125"/>
      <point x="291.9" y="0.0"/>
      <point x="300.3875" y="0.0" type="curve"/>
      <point x="353.875" y="0.0" type="line" smooth="yes"/>
      <point x="361.525" y="0.0"/>
      <point x="364.5" y="2.8125"/>
      <point x="364.5" y="11.95" type="curve"/>
      <point x="364.5" y="673.175" type="line" smooth="yes"/>
      <point x="364.5" y="681.0125"/>
      <point x="366.825" y="682.3375"/>
      <point x="374.825" y="682.3375" type="curve"/>
      <point x="581.975" y="682.3375" type="line" smooth="yes"/>
      <point x="589.1125" y="682.3375"/>
      <point x="592.25" y="683.9875"/>
      <point x="592.25" y="691.2875" type="curve"/>
      <point x="592.25" y="732.4" type="line" smooth="yes"/>
      <point x="592.25" y="738.7"/>
      <point x="589.275" y="742.0"/>
      <point x="582.325" y="742.0" type="curve"/>
      <point x="53.8375" y="742.0" type="line" smooth="yes"/>
      <point x="46.8875" y="742.0"/>
      <point x="43.9125" y="738.7"/>
    </contour>
  </outline>
</glyph>
<glyph name="U" format="2">
  <advance width="706.225"/>
  <unicode hex="0055"/>
  <anchor x="431.6125" y="9.1625" name="ogonek"/>
  <anchor x="359.225" y="742.0" name="top"/>
  <anchor x="644.35" y="742.0" name="topright"/>
  <anchor x="353.1125" y="0.0" name="bottom"/>
  <outline>
    <contour>
      <point x="611.975" y="240.2375" type="curve"/>
      <point x="611.975" y="240.2375" type="line"/>
      <point x="611.975" y="731.05" type="line" smooth="yes"/>
      <point x="611.975" y="738.1875"/>
      <point x="609.325" y="742.0"/>
      <point x="602.35" y="742.0" type="curve"/>
      <point x="557.875" y="742.0" type="line" smooth="yes"/>
      <point x="550.9" y="742.0"/>
      <point x="548.0875" y="738.1875"/>
      <point x="548.0875" y="730.725" type="curve"/>
      <point x="548.0875" y="239.2375" type="line" smooth="yes"/>
      <point x="548.0875" y="110.65"/>
      <point x="483.2" y="51.0125"/>
      <point x="357.55" y="51.0125" type="curve"/>
      <point x="232.6" y="51.0125"/>
      <point x="169.6625" y="110.7875"/>
      <point x="169.6625" y="236.2375" type="curve"/>
      <point x="169.6625" y="730.2125" type="line" smooth="yes"/>
      <point x="169.6625" y="739.025"/>
      <point x="167.0125" y="742.0"/>
      <point x="158.3625" y="742.0" type="curve"/>
      <point x="104.0375" y="742.0" type="line" smooth="yes"/>
      <point x="97.225" y="742.0"/>
      <point x="94.25" y="738.1875"/>
      <point x="94.25" y="729.05" type="curve"/>
      <point x="94.25" y="256.05" type="line" smooth="yes"/>
      <point x="94.25" y="76.3625"/>
      <point x="173.575" y="-10.0"/>
      <point x="353.1125" y="-10.0" type="curve"/>
      <point x="523.175" y="-10.0"/>
      <point x="611.975" y="67.8625"/>
    </contour>
  </outline>
</glyph>
<glyph name="V" format="2">
  <advance width="699.9125"/>
  <unicode hex="0056"/>
  <outline>
    <contour>
      <point x="642.5125" y="742.0" type="curve"/>
      <point x="642.5125" y="742.0" type="line"/>
      <point x="597.3625" y="742.0" type="line" smooth="yes"/>
      <point x="590.3875" y="742.0"/>
      <point x="586.0875" y="739.025"/>
      <point x="583.925" y="732.725" type="curve"/>
      <point x="359.2625" y="100.42500000000001" type="line" smooth="yes"/>
      <point x="354.5875" y="87.075"/>
      <point x="348.9125" y="87.075"/>
      <point x="344.2375" y="99.42500000000001" type="curve"/>
      <point x="123.975" y="731.8875" type="line" smooth="yes"/>
      <point x="121.65" y="739.025"/>
      <point x="117.675" y="742.0"/>
      <point x="109.025" y="742.0" type="curve"/>
      <point x="58.4" y="742.0" type="line" smooth="yes"/>
      <point x="49.9375" y="742.0"/>
      <point x="45.9625" y="736.375"/>
      <point x="48.6125" y="728.9125" type="curve"/>
      <point x="299.875" y="12.4375" type="line" smooth="yes"/>
      <point x="302.3625" y="3.8125"/>
      <point x="309.3375" y="0.0"/>
      <point x="321.8" y="0.0" type="curve"/>
      <point x="374.925" y="0.0" type="line" smooth="yes"/>
      <point x="385.7125" y="0.0"/>
      <point x="391.0125" y="3.8125"/>
      <point x="394.3375" y="13.275" type="curve"/>
      <point x="651.4625" y="729.75" type="line" smooth="yes"/>
      <point x="653.95" y="736.375"/>
      <point x="650.1375" y="742.0"/>
    </contour>
  </outline>
</glyph>
<glyph name="W" format="2">
  <advance width="1035.3"/>
  <unicode hex="0057"/>
  <anchor x="519.9875" y="742.0" name="top"/>
  <outline>
    <contour>
      <point x="974.95" y="742.0" type="curve"/>
      <point x="974.95" y="742.0" type="line"/>
      <point x="935.1625" y="742.0" type="line" smooth="yes"/>
      <point x="926.725" y="742.0"/>
      <point x="921.2375" y="739.025"/>
      <point x="919.9125" y="732.725" type="curve"/>
      <point x="745.05" y="115.3875" type="line" smooth="yes"/>
      <point x="741.375" y="102.36250000000001"/>
      <point x="736.8875" y="102.6875"/>
      <point x="733.2125" y="114.875" type="curve"/>
      <point x="560.4" y="731.8875" type="line" smooth="yes"/>
      <point x="558.075" y="739.025"/>
      <point x="555.2625" y="742.0"/>
      <point x="545.15" y="742.0" type="curve"/>
      <point x="501.4625" y="742.0" type="line" smooth="yes"/>
      <point x="490.5125" y="742.0"/>
      <point x="486.7" y="737.35"/>
      <point x="485.375" y="732.725" type="curve"/>
      <point x="310.025" y="116.525" type="line" smooth="yes"/>
      <point x="306.1875" y="103.0125"/>
      <point x="302.025" y="103.0125"/>
      <point x="298.025" y="116.3375" type="curve"/>
      <point x="125.8625" y="731.8875" type="line" smooth="yes"/>
      <point x="123.5375" y="739.025"/>
      <point x="120.725" y="742.0"/>
      <point x="110.6125" y="742.0" type="curve"/>
      <point x="62.8625" y="742.0" type="line" smooth="yes"/>
      <point x="52.775" y="742.0"/>
      <point x="48.6375" y="735.8875"/>
      <point x="51.2875" y="727.125" type="curve"/>
      <point x="253.6125" y="12.4375" type="line" smooth="yes"/>
      <point x="256.2625" y="3.8125"/>
      <point x="262.9125" y="0.0"/>
      <point x="274.5375" y="0.0" type="curve"/>
      <point x="324.575" y="0.0" type="line" smooth="yes"/>
      <point x="336.3625" y="0.0"/>
      <point x="341.3375" y="3.8125"/>
      <point x="343.825" y="13.275" type="curve"/>
      <point x="515.5" y="612.0125" type="line" smooth="yes"/>
      <point x="517.475" y="618.6125"/>
      <point x="519.9625" y="618.2875"/>
      <point x="521.45" y="612.3375" type="curve"/>
      <point x="689.9375" y="12.4375" type="line" smooth="yes"/>
      <point x="692.425" y="3.8125"/>
      <point x="699.2375" y="0.0"/>
      <point x="710.8625" y="0.0" type="curve"/>
      <point x="760.0875" y="0.0" type="line" smooth="yes"/>
      <point x="771.7125" y="0.0"/>
      <point x="776.6875" y="3.8125"/>
      <point x="779.3375" y="13.275" type="curve"/>
      <point x="985.6875" y="727.9625" type="line" smooth="yes"/>
      <point x="987.5" y="735.8875"/>
      <point x="984.2" y="742.0"/>
    </contour>
  </outline>
</glyph>
<glyph name="X" format="2">
  <advance width="677.275"/>
  <unicode hex="0058"/>
  <outline>
    <contour>
      <point x="625.2" y="16.6625" type="curve"/>
      <point x="625.2" y="16.6625" type="line"/>
      <point x="384.9125" y="375.4625" type="line" smooth="yes"/>
      <point x="379.9375" y="382.925"/>
      <point x="380.6125" y="387.4125"/>
      <point x="385.425" y="394.7125" type="curve"/>
      <point x="612.1125" y="731.6125" type="line" smooth="yes"/>
      <point x="615.4125" y="736.5625"/>
      <point x="615.575" y="742.0"/>
      <point x="608.325" y="742.0" type="curve"/>
      <point x="548.8" y="742.0" type="line" smooth="yes"/>
      <point x="541.875" y="742.0"/>
      <point x="538.7375" y="740.025"/>
      <point x="535.7625" y="735.2375" type="curve"/>
      <point x="347.6125" y="451.9625" type="line" smooth="yes"/>
      <point x="340.775" y="441.8"/>
      <point x="335.8" y="442.6375"/>
      <point x="329.8" y="451.125" type="curve"/>
      <point x="141.65" y="735.2375" type="line" smooth="yes"/>
      <point x="138.675" y="740.025"/>
      <point x="136.2125" y="742.0"/>
      <point x="127.6125" y="742.0" type="curve"/>
      <point x="64.2375" y="742.0" type="line" smooth="yes"/>
      <point x="57.15" y="742.0"/>
      <point x="55.825" y="734.5625"/>
      <point x="59.125" y="729.6125" type="curve"/>
      <point x="286.25" y="391.1625" type="line" smooth="yes"/>
      <point x="291.9" y="382.025"/>
      <point x="292.9" y="376.025"/>
      <point x="287.0875" y="367.725" type="curve"/>
      <point x="52.4" y="16.6625" type="line" smooth="yes"/>
      <point x="43.9875" y="3.4625000000000004"/>
      <point x="47.45" y="0.0"/>
      <point x="57.025" y="0.0" type="curve"/>
      <point x="110.25" y="0.0" type="line" smooth="yes"/>
      <point x="116.0125" y="0.0"/>
      <point x="120.9625" y="1.65"/>
      <point x="123.9375" y="6.6" type="curve"/>
      <point x="323.225" y="305.3125" type="line" smooth="yes"/>
      <point x="333.3875" y="320.9625"/>
      <point x="337.7125" y="319.9625"/>
      <point x="345.3625" y="307.6625" type="curve"/>
      <point x="547.4875" y="6.6" type="line" smooth="yes"/>
      <point x="550.4625" y="1.8125"/>
      <point x="553.575" y="0.0"/>
      <point x="560.175" y="0.0" type="curve"/>
      <point x="619.575" y="0.0" type="line" smooth="yes"/>
      <point x="629.15" y="0.0"/>
      <point x="634.2875" y="3.625"/>
    </contour>
  </outline>
</glyph>
<glyph name="Y" format="2">
  <advance width="660.1"/>
  <unicode hex="0059"/>
  <anchor x="328.4625" y="742.0" name="top"/>
  <anchor x="330.05" y="0.0" name="bottom"/>
  <anchor x="20.0" y="742.0" name="topleft"/>
  <outline>
    <contour>
      <point x="606.5375" y="742.0" type="curve"/>
      <point x="606.5375" y="742.0" type="line"/>
      <point x="559.25" y="742.0" type="line" smooth="yes"/>
      <point x="548.625" y="742.0"/>
      <point x="545.8125" y="740.5125"/>
      <point x="540.325" y="731.05" type="curve"/>
      <point x="345.625" y="394.15" type="line" smooth="yes"/>
      <point x="337.7875" y="381.3125"/>
      <point x="331.275" y="380.6375"/>
      <point x="322.7625" y="395.9875" type="curve"/>
      <point x="126.9" y="731.05" type="line" smooth="yes"/>
      <point x="122.0875" y="739.5125"/>
      <point x="118.7625" y="742.0"/>
      <point x="107.975" y="742.0" type="curve"/>
      <point x="56.05" y="742.0" type="line" smooth="yes"/>
      <point x="44.2625" y="742.0"/>
      <point x="41.45" y="735.8625"/>
      <point x="46.425" y="727.4" type="curve"/>
      <point x="288.8" y="317.7625" type="line" smooth="yes"/>
      <point x="293.6125" y="309.4625"/>
      <point x="295.2625" y="305.65"/>
      <point x="295.2625" y="293.8625" type="curve"/>
      <point x="295.2625" y="13.275" type="line" smooth="yes"/>
      <point x="295.2625" y="4.65"/>
      <point x="298.75" y="0.0"/>
      <point x="309.5375" y="0.0" type="curve"/>
      <point x="352.75" y="0.0" type="line" smooth="yes"/>
      <point x="365.7" y="0.0"/>
      <point x="370.675" y="4.65"/>
      <point x="370.675" y="15.6" type="curve"/>
      <point x="370.675" y="300.9625" type="line" smooth="yes"/>
      <point x="370.675" y="316.1625"/>
      <point x="370.8375" y="321.1375"/>
      <point x="375.65" y="328.4375" type="curve"/>
      <point x="613.8375" y="729.05" type="line" smooth="yes"/>
      <point x="618.4875" y="736.1875"/>
      <point x="615.1625" y="742.0"/>
    </contour>
  </outline>
</glyph>
<glyph name="Z" format="2">
  <advance width="618.525"/>
  <unicode hex="005A"/>
  <anchor x="315.725" y="742.0" name="top"/>
  <anchor x="317.6875" y="0.0" name="bottom"/>
  <outline>
    <contour>
      <point x="61.2125" y="0.0" type="curve"/>
      <point x="61.2125" y="0.0" type="line"/>
      <point x="555.85" y="0.0" type="line" smooth="yes"/>
      <point x="562.8" y="0.0"/>
      <point x="565.6125" y="4.1375"/>
      <point x="565.6125" y="9.4375" type="curve"/>
      <point x="565.6125" y="53.2" type="line" smooth="yes"/>
      <point x="565.6125" y="58.825"/>
      <point x="562.6375" y="60.475"/>
      <point x="557.0125" y="60.475" type="curve"/>
      <point x="156.1625" y="60.475" type="line" smooth="yes"/>
      <point x="151.35" y="60.475"/>
      <point x="148.8875" y="63.475"/>
      <point x="152.5375" y="69.45" type="curve"/>
      <point x="559.6375" y="694.4875" type="line" smooth="yes"/>
      <point x="564.2625" y="701.6"/>
      <point x="566.5875" y="704.575"/>
      <point x="566.5875" y="711.2" type="curve"/>
      <point x="566.5875" y="733.725" type="line" smooth="yes"/>
      <point x="566.5875" y="739.025"/>
      <point x="563.775" y="742.0"/>
      <point x="558.475" y="742.0" type="curve"/>
      <point x="71.975" y="742.0" type="line" smooth="yes"/>
      <point x="66.8375" y="742.0"/>
      <point x="64.025" y="739.025"/>
      <point x="64.025" y="733.5625" type="curve"/>
      <point x="64.025" y="691.45" type="line" smooth="yes"/>
      <point x="64.025" y="684.3375"/>
      <point x="66.5125" y="681.6875"/>
      <point x="73.4625" y="681.6875" type="curve"/>
      <point x="456.55" y="681.6875" type="line" smooth="yes"/>
      <point x="463.0125" y="681.6875"/>
      <point x="465.0125" y="679.2"/>
      <point x="461.3625" y="673.225" type="curve"/>
      <point x="59.5625" y="52.325" type="line" smooth="yes"/>
      <point x="52.2875" y="42.075"/>
      <point x="50.2875" y="38.2375"/>
      <point x="50.2875" y="29.8" type="curve"/>
      <point x="50.2875" y="9.925" type="line" smooth="yes"/>
      <point x="50.2875" y="2.4875"/>
      <point x="52.9375" y="0.0"/>
    </contour>
  </outline>
</glyph>
<glyph name="bracketleft" format="2">
  <advance width="279.05"/>
  <unicode hex="005B"/>
  <outline>
    <contour>
      <point x="96.25" y="733.4" type="curve"/>
      <point x="96.25" y="733.4" type="line"/>
      <point x="97.0875" y="-154.075" type="line" smooth="yes"/>
      <point x="97.0875" y="-160.8625"/>
      <point x="101.3875" y="-165.0"/>
      <point x="109.3375" y="-165.0" type="curve"/>
      <point x="253.5875" y="-165.0" type="line" smooth="yes"/>
      <point x="260.725" y="-165.0"/>
      <point x="263.2125" y="-162.5125"/>
      <point x="263.2125" y="-155.375" type="curve"/>
      <point x="263.2125" y="-125.925" type="line" smooth="yes"/>
      <point x="263.2125" y="-119.95"/>
      <point x="259.725" y="-116.625"/>
      <point x="253.5875" y="-116.625" type="curve"/>
      <point x="166.5375" y="-116.625" type="line" smooth="yes"/>
      <point x="159.75" y="-116.625"/>
      <point x="158.1" y="-115.3"/>
      <point x="158.1" y="-108.1875" type="curve"/>
      <point x="158.9375" y="682.5375" type="line" smooth="yes"/>
      <point x="158.9375" y="689.8125"/>
      <point x="161.9125" y="693.625"/>
      <point x="168.8625" y="693.625" type="curve"/>
      <point x="255.75" y="693.625" type="line" smooth="yes"/>
      <point x="260.5625" y="693.625"/>
      <point x="264.05" y="696.1125"/>
      <point x="264.05" y="700.925" type="curve"/>
      <point x="264.05" y="735.7" type="line" smooth="yes"/>
      <point x="264.05" y="740.5125"/>
      <point x="261.725" y="742.0"/>
      <point x="255.75" y="742.0" type="curve"/>
      <point x="107.175" y="742.0" type="line" smooth="yes"/>
      <point x="99.0625" y="742.0"/>
      <point x="96.25" y="739.1875"/>
    </contour>
  </outline>
</glyph>
<glyph name="backslash" format="2">
  <advance width="336.45"/>
  <unicode hex="005C"/>
  <outline>
    <contour>
      <point x="276.4875" y="-50.25" type="curve"/>
      <point x="276.4875" y="-50.25" type="line"/>
      <point x="314.2625" y="-50.25" type="line" smooth="yes"/>
      <point x="320.8875" y="-50.25"/>
      <point x="322.5375" y="-47.4375"/>
      <point x="321.05" y="-42.975" type="curve"/>
      <point x="70.375" y="734.05" type="line" smooth="yes"/>
      <point x="68.8875" y="739.1875"/>
      <point x="64.75" y="742.0"/>
      <point x="59.45" y="742.0" type="curve"/>
      <point x="21.675" y="742.0" type="line" smooth="yes"/>
      <point x="13.4" y="742.0"/>
      <point x="11.75" y="737.8625"/>
      <point x="14.725" y="728.2625" type="curve"/>
      <point x="261.5875" y="-39.325" type="line" smooth="yes"/>
      <point x="264.4" y="-47.6"/>
      <point x="269.5375" y="-50.25"/>
    </contour>
  </outline>
</glyph>
<glyph name="asciicircum" format="2">
  <advance width="475.8375"/>
  <unicode hex="005E"/>
  <outline>
    <contour>
      <point x="242.975" y="438.7625" type="curve"/>
      <point x="359.5" y="142.4" type="line"/>
      <point x="361.6625" y="136.75"/>
      <point x="367.8" y="134.2375"/>
      <point x="374.775" y="134.2375" type="curve"/>
      <point x="412.7375" y="134.2375" type="line" smooth="yes"/>
      <point x="420.0375" y="134.2375"/>
      <point x="422.85" y="137.725"/>
      <point x="420.2" y="145.1875" type="curve"/>
      <point x="274.25" y="504.1625" type="line" smooth="yes"/>
      <point x="254.0875" y="553.8375"/>
      <point x="217.9125" y="550.0"/>
      <point x="199.5875" y="504.0" type="curve"/>
      <point x="55.3125" y="148.1875" type="line" smooth="yes"/>
      <point x="51.825" y="140.725"/>
      <point x="55.15" y="135.9125"/>
      <point x="61.2875" y="135.9125" type="curve"/>
      <point x="100.7375" y="135.9125" type="line" smooth="yes"/>
      <point x="107.0375" y="135.9125"/>
      <point x="111.0125" y="137.5875"/>
      <point x="113.3375" y="143.2375" type="curve"/>
      <point x="230.7" y="438.7625" type="line" smooth="yes"/>
      <point x="233.35" y="446.0625"/>
      <point x="239.4875" y="446.0625"/>
    </contour>
  </outline>
</glyph>
<glyph name="underscore" format="2">
  <advance width="510.9125"/>
  <unicode hex="005F"/>
  <outline>
    <contour>
      <point x="445.7875" y="-99.3375" type="curve"/>
      <point x="445.7875" y="-62.6125" type="line"/>
      <point x="445.7875" y="-57.3125"/>
      <point x="442.1375" y="-54.3375"/>
      <point x="437.0" y="-54.3375" type="curve"/>
      <point x="72.4" y="-55.175" type="line" smooth="yes"/>
      <point x="67.9375" y="-55.175"/>
      <point x="65.125" y="-58.15"/>
      <point x="65.125" y="-64.775" type="curve"/>
      <point x="65.125" y="-101.5" type="line" smooth="yes"/>
      <point x="65.125" y="-108.45"/>
      <point x="67.775" y="-111.425"/>
      <point x="76.05" y="-111.425" type="curve"/>
      <point x="432.05" y="-110.5875" type="line" smooth="yes"/>
      <point x="441.65" y="-110.5875"/>
      <point x="445.7875" y="-107.6125"/>
    </contour>
  </outline>
</glyph>
<glyph name="a" format="2">
  <advance width="543.6875"/>
  <unicode hex="0061"/>
  <anchor x="458.8" y="13.35" name="ogonek"/>
  <anchor x="270.3" y="0.0" name="bottom"/>
  <anchor x="269.4125" y="530.0" name="top"/>
  <outline>
    <contour>
      <point x="392.5625" y="67.125" type="curve"/>
      <point x="392.5625" y="67.125" type="line"/>
      <point x="399.5125" y="74.425"/>
      <point x="404.1625" y="73.425"/>
      <point x="405.325" y="65.45" type="curve"/>
      <point x="407.1625" y="13.225000000000001" type="line" smooth="yes"/>
      <point x="407.65" y="4.275"/>
      <point x="410.975" y="0.0"/>
      <point x="418.925" y="0.0" type="curve"/>
      <point x="456.2625" y="0.0" type="line" smooth="yes"/>
      <point x="464.375" y="0.0"/>
      <point x="468.375" y="2.8125"/>
      <point x="468.375" y="12.7625" type="curve"/>
      <point x="468.375" y="368.3" type="line" smooth="yes"/>
      <point x="468.375" y="474.675"/>
      <point x="397.4625" y="540.0"/>
      <point x="272.7625" y="540.0" type="curve"/>
      <point x="171.9125" y="540.0"/>
      <point x="101.0125" y="495.1125"/>
      <point x="60.9625" y="429.375" type="curve"/>
      <point x="56.15" y="421.125"/>
      <point x="57.9625" y="417.8"/>
      <point x="62.1" y="415.8" type="curve"/>
      <point x="103.4875" y="399.0125" type="line" smooth="yes"/>
      <point x="109.7625" y="396.0125"/>
      <point x="112.0875" y="398.175"/>
      <point x="116.25" y="404.15" type="curve"/>
      <point x="156.7" y="460.4125"/>
      <point x="207.2875" y="488.8375"/>
      <point x="269.625" y="488.8375" type="curve"/>
      <point x="351.5" y="488.8375"/>
      <point x="404.0" y="440.2"/>
      <point x="404.0" y="363.0" type="curve"/>
      <point x="404.0" y="334.275" type="line" smooth="yes"/>
      <point x="404.0" y="324.7875"/>
      <point x="397.35" y="320.275"/>
      <point x="387.325" y="319.4375" type="curve"/>
      <point x="298.25" y="311.9" type="line" smooth="yes"/>
      <point x="130.1875" y="300.175"/>
      <point x="41.5" y="238.7625"/>
      <point x="41.5" y="135.1625" type="curve"/>
      <point x="41.5" y="46.3"/>
      <point x="105.6875" y="-10.0"/>
      <point x="209.875" y="-10.0" type="curve"/>
      <point x="281.925" y="-10.0"/>
      <point x="340.65" y="16.1875"/>
    </contour>
    <contour>
      <point x="404.0" y="259.175" type="curve"/>
      <point x="404.0" y="259.175" type="line"/>
      <point x="404.0" y="171.0" type="line" smooth="yes"/>
      <point x="404.0" y="143.4375"/>
      <point x="385.4625" y="113.175"/>
      <point x="352.525" y="86.425" type="curve"/>
      <point x="318.9125" y="59.8375"/>
      <point x="274.95" y="42.3"/>
      <point x="229.6875" y="42.3" type="curve"/>
      <point x="156.0" y="42.3"/>
      <point x="108.2" y="79.725"/>
      <point x="108.2" y="142.0625" type="curve"/>
      <point x="108.2" y="215.65"/>
      <point x="177.9625" y="257.9125"/>
      <point x="314.65" y="267.9625" type="curve"/>
      <point x="389.8375" y="273.825" type="line" smooth="yes"/>
      <point x="399.325" y="274.6625"/>
      <point x="404.0" y="270.3375"/>
    </contour>
  </outline>
</glyph>
<glyph name="b" format="2">
  <advance width="595.9"/>
  <unicode hex="0062"/>
  <outline>
    <contour>
      <point x="96.475" y="0.0" type="curve"/>
      <point x="119.825" y="0.0" type="line"/>
      <point x="131.9875" y="0.0"/>
      <point x="135.8" y="3.65"/>
      <point x="136.6125" y="14.625" type="curve"/>
      <point x="140.8875" y="64.975" type="line" smooth="yes"/>
      <point x="141.375" y="73.8125"/>
      <point x="146.2125" y="74.8125"/>
      <point x="151.375" y="67.975" type="curve"/>
      <point x="167.7625" y="45.45"/>
      <point x="218.4125" y="-10.0"/>
      <point x="314.9125" y="-10.0" type="curve"/>
      <point x="459.2375" y="-10.0"/>
      <point x="542.75" y="96.4875"/>
      <point x="542.75" y="267.325" type="curve"/>
      <point x="542.75" y="419.25"/>
      <point x="476.8" y="540.0"/>
      <point x="327.5375" y="540.0" type="curve"/>
      <point x="231.45" y="540.0"/>
      <point x="177.8875" y="489.3125"/>
      <point x="162.85" y="475.4375" type="curve"/>
      <point x="153.6875" y="467.4375"/>
      <point x="148.875" y="467.4375"/>
      <point x="148.875" y="480.925" type="curve"/>
      <point x="148.875" y="729.375" type="line" smooth="yes"/>
      <point x="148.875" y="738.1875"/>
      <point x="146.225" y="742.0"/>
      <point x="139.25" y="742.0" type="curve"/>
      <point x="93.5" y="742.0" type="line" smooth="yes"/>
      <point x="86.6875" y="742.0"/>
      <point x="82.875" y="738.1875"/>
      <point x="82.875" y="729.8875" type="curve"/>
      <point x="82.875" y="14.95" type="line" smooth="yes"/>
      <point x="82.875" y="3.8125"/>
      <point x="86.3625" y="0.0"/>
    </contour>
    <contour>
      <point x="148.875" y="178.3" type="curve"/>
      <point x="148.875" y="408.9875" type="line"/>
      <point x="185.625" y="453.25"/>
      <point x="242.9625" y="488.35"/>
      <point x="309.975" y="488.35" type="curve"/>
      <point x="416.7625" y="488.35"/>
      <point x="473.9125" y="404.45"/>
      <point x="473.9125" y="266.675" type="curve"/>
      <point x="473.9125" y="110.3125"/>
      <point x="398.3375" y="40.8375"/>
      <point x="302.7875" y="40.8375" type="curve"/>
      <point x="225.6125" y="40.8375"/>
      <point x="148.875" y="102.3375"/>
    </contour>
  </outline>
</glyph>
<glyph name="c" format="2">
  <advance width="540.0875"/>
  <unicode hex="0063"/>
  <anchor x="295.4875" y="530.0" name="top"/>
  <anchor x="297.0" y="0.0" name="bottom"/>
  <outline>
    <contour>
      <point x="296.325" y="540.0" type="curve"/>
      <point x="296.325" y="540.0" type="line"/>
      <point x="152.5625" y="540.0"/>
      <point x="50.3125" y="425.4875"/>
      <point x="50.3125" y="263.0" type="curve"/>
      <point x="50.3125" y="100.1625"/>
      <point x="150.5625" y="-10.0"/>
      <point x="296.325" y="-10.0" type="curve"/>
      <point x="393.8375" y="-10.0"/>
      <point x="464.8625" y="41.35"/>
      <point x="506.6875" y="115.125" type="curve"/>
      <point x="509.0125" y="120.9125"/>
      <point x="507.85" y="125.2375"/>
      <point x="503.55" y="127.2375" type="curve"/>
      <point x="469.0125" y="142.725" type="line" smooth="yes"/>
      <point x="463.55" y="145.5625"/>
      <point x="461.225" y="144.4"/>
      <point x="457.3875" y="138.5625" type="curve"/>
      <point x="416.475" y="74.3"/>
      <point x="368.1625" y="41.975"/>
      <point x="302.275" y="41.975" type="curve"/>
      <point x="190.8375" y="41.975"/>
      <point x="118.3125" y="128.0375"/>
      <point x="118.3125" y="265.0" type="curve"/>
      <point x="118.3125" y="401.3125"/>
      <point x="190.35" y="487.7"/>
      <point x="301.325" y="487.7" type="curve"/>
      <point x="356.025" y="487.7"/>
      <point x="395.175" y="461.425"/>
      <point x="441.8875" y="401.25" type="curve"/>
      <point x="445.5625" y="395.275"/>
      <point x="449.5625" y="393.7875"/>
      <point x="453.8625" y="395.625" type="curve"/>
      <point x="496.225" y="410.1625" type="line" smooth="yes"/>
      <point x="501.5" y="412.0"/>
      <point x="503.3125" y="414.975"/>
      <point x="499.15" y="422.7625" type="curve"/>
      <point x="458.025" y="490.55"/>
      <point x="394.1" y="540.0"/>
    </contour>
  </outline>
</glyph>
<glyph name="d" format="2">
  <advance width="595.9"/>
  <unicode hex="0064"/>
  <anchor x="312.8625" y="265.0" name="center"/>
  <anchor x="302.8125" y="0.0" name="bottom"/>
  <anchor x="621.475" y="707.55" name="topright"/>
  <outline>
    <contour>
      <point x="461.625" y="0.0" type="curve"/>
      <point x="461.625" y="0.0" type="line"/>
      <point x="498.5875" y="0.0" type="line" smooth="yes"/>
      <point x="509.5375" y="0.0"/>
      <point x="513.025" y="3.8125"/>
      <point x="513.025" y="14.1125" type="curve"/>
      <point x="513.025" y="730.725" type="line" smooth="yes"/>
      <point x="513.025" y="738.1875"/>
      <point x="509.2125" y="742.0"/>
      <point x="503.2375" y="742.0" type="curve"/>
      <point x="457.65" y="742.0" type="line" smooth="yes"/>
      <point x="449.8375" y="742.0"/>
      <point x="447.1875" y="738.1875"/>
      <point x="447.1875" y="730.2125" type="curve"/>
      <point x="447.1875" y="493.4875" type="line" smooth="yes"/>
      <point x="447.1875" y="480.0"/>
      <point x="444.05" y="476.65"/>
      <point x="432.375" y="486.325" type="curve"/>
      <point x="399.75" y="512.925"/>
      <point x="357.5625" y="540.0"/>
      <point x="289.1125" y="540.0" type="curve"/>
      <point x="148.125" y="540.0"/>
      <point x="51.475" y="425.975"/>
      <point x="51.475" y="256.3" type="curve"/>
      <point x="51.475" y="78.65"/>
      <point x="151.0625" y="-10.0"/>
      <point x="277.4375" y="-10.0" type="curve"/>
      <point x="367.9125" y="-10.0"/>
      <point x="416.9625" y="42.6625"/>
      <point x="436.7" y="62.75" type="curve"/>
      <point x="444.5375" y="70.425"/>
      <point x="449.1875" y="69.425"/>
      <point x="449.1875" y="58.75" type="curve"/>
      <point x="449.1875" y="12.95" type="line" smooth="yes"/>
      <point x="449.1875" y="4.325"/>
      <point x="453.65" y="0.0"/>
    </contour>
    <contour>
      <point x="447.025" y="418.2" type="curve"/>
      <point x="447.025" y="418.2" type="line"/>
      <point x="447.025" y="170.975" type="line" smooth="yes"/>
      <point x="447.025" y="114.3875"/>
      <point x="381.6875" y="41.325"/>
      <point x="294.95" y="41.325" type="curve"/>
      <point x="201.2375" y="41.325"/>
      <point x="119.475" y="107.9625"/>
      <point x="119.475" y="259.8125" type="curve"/>
      <point x="119.475" y="405.9625"/>
      <point x="196.025" y="488.025"/>
      <point x="301.65" y="488.025" type="curve"/>
      <point x="357.775" y="488.025"/>
      <point x="402.575" y="462.4625"/>
    </contour>
  </outline>
</glyph>
<glyph name="e" format="2">
  <advance width="579.1125"/>
  <unicode hex="0065"/>
  <anchor x="399.5" y="19.3" name="ogonek"/>
  <anchor x="300.65" y="0.0" name="bottom"/>
  <anchor x="297.65" y="530.0" name="top"/>
  <outline>
    <contour>
      <point x="118.9625" y="235.45" type="curve"/>
      <point x="118.9625" y="235.45" type="line"/>
      <point x="118.9625" y="243.2625"/>
      <point x="121.45" y="249.9375"/>
      <point x="126.425" y="249.9375" type="curve"/>
      <point x="521.175" y="249.9375" type="line" smooth="yes"/>
      <point x="536.5" y="250.1"/>
      <point x="534.9875" y="261.2875"/>
      <point x="534.9875" y="270.75" type="curve"/>
      <point x="534.9875" y="440.8625"/>
      <point x="442.6" y="540.0"/>
      <point x="299.0" y="540.0" type="curve"/>
      <point x="156.8625" y="540.0"/>
      <point x="50.3125" y="434.375"/>
      <point x="50.3125" y="260.1875" type="curve"/>
      <point x="50.3125" y="99.8375"/>
      <point x="153.05" y="-10.0"/>
      <point x="299.65" y="-10.0" type="curve"/>
      <point x="396.575" y="-10.0"/>
      <point x="466.25" y="25.375"/>
      <point x="516.475" y="102.925" type="curve"/>
      <point x="520.45" y="108.0625"/>
      <point x="519.125" y="112.875"/>
      <point x="514.9875" y="115.2" type="curve"/>
      <point x="480.9375" y="133.775" type="line" smooth="yes"/>
      <point x="475.475" y="137.1"/>
      <point x="472.475" y="136.1"/>
      <point x="468.3125" y="130.2625" type="curve"/>
      <point x="431.0125" y="73.025"/>
      <point x="376.5625" y="43.275"/>
      <point x="304.0375" y="43.275" type="curve"/>
      <point x="200.8125" y="43.275"/>
      <point x="118.9625" y="130.9"/>
    </contour>
    <contour>
      <point x="451.2875" y="296.825" type="curve"/>
      <point x="120.2875" y="296.9875" type="line"/>
      <point x="119.2875" y="390.8125"/>
      <point x="182.4125" y="489.1625"/>
      <point x="299.625" y="489.1625" type="curve"/>
      <point x="404.9" y="489.1625"/>
      <point x="468.2875" y="407.175"/>
      <point x="468.2875" y="310.825" type="curve"/>
      <point x="468.2875" y="299.6625"/>
      <point x="465.125" y="296.825"/>
    </contour>
  </outline>
</glyph>
<glyph name="f" format="2">
  <advance width="372.775"/>
  <unicode hex="0066"/>
  <outline>
    <contour>
      <point x="339.825" y="530.0" type="curve"/>
      <point x="339.825" y="530.0" type="line"/>
      <point x="217.3625" y="530.0" type="line" smooth="yes"/>
      <point x="211.875" y="530.0"/>
      <point x="209.3875" y="532.1625"/>
      <point x="209.3875" y="537.975" type="curve"/>
      <point x="209.3875" y="616.275" type="line" smooth="yes"/>
      <point x="209.3875" y="663.5375"/>
      <point x="223.85" y="691.5625"/>
      <point x="269.4625" y="691.5625" type="curve"/>
      <point x="343.45" y="691.5625" type="line" smooth="yes"/>
      <point x="349.5875" y="691.5625"/>
      <point x="353.075" y="694.7"/>
      <point x="353.075" y="700.675" type="curve"/>
      <point x="352.9125" y="731.9125" type="line" smooth="yes"/>
      <point x="352.9125" y="738.7"/>
      <point x="349.6125" y="742.0"/>
      <point x="343.175" y="742.0" type="curve"/>
      <point x="264.5125" y="742.0" type="line" smooth="yes"/>
      <point x="181.75" y="742.0"/>
      <point x="144.2" y="698.05"/>
      <point x="144.2" y="615.2375" type="curve"/>
      <point x="144.2" y="538.7875" type="line" smooth="yes"/>
      <point x="144.2" y="532.4875"/>
      <point x="142.0375" y="530.0"/>
      <point x="136.0625" y="530.0" type="curve"/>
      <point x="33.625" y="530.0" type="line" smooth="yes"/>
      <point x="27.5125" y="530.0"/>
      <point x="24.7" y="526.7"/>
      <point x="24.7" y="521.4" type="curve"/>
      <point x="24.7" y="486.8625" type="line" smooth="yes"/>
      <point x="24.7" y="481.2375"/>
      <point x="27.675" y="478.75"/>
      <point x="33.3" y="478.75" type="curve"/>
      <point x="137.875" y="478.75" type="line" smooth="yes"/>
      <point x="142.2" y="478.75"/>
      <point x="144.2" y="475.75"/>
      <point x="144.2" y="471.2625" type="curve"/>
      <point x="144.2" y="11.625" type="line" smooth="yes"/>
      <point x="144.2" y="3.65"/>
      <point x="147.0125" y="0.0"/>
      <point x="153.825" y="0.0" type="curve"/>
      <point x="199.575" y="0.0" type="line" smooth="yes"/>
      <point x="206.55" y="0.0"/>
      <point x="210.2" y="3.65"/>
      <point x="210.2" y="12.7875" type="curve"/>
      <point x="210.2" y="470.9375" type="line" smooth="yes"/>
      <point x="210.2" y="476.425"/>
      <point x="212.6875" y="478.75"/>
      <point x="218.0125" y="478.75" type="curve"/>
      <point x="339.475" y="478.75" type="line" smooth="yes"/>
      <point x="344.9375" y="478.75"/>
      <point x="348.075" y="481.2375"/>
      <point x="348.075" y="486.8625" type="curve"/>
      <point x="348.075" y="521.4" type="line" smooth="yes"/>
      <point x="348.075" y="526.7"/>
      <point x="345.1" y="530.0"/>
    </contour>
  </outline>
</glyph>
<glyph name="g" format="2">
  <advance width="593.5375"/>
  <unicode hex="0067"/>
  <anchor x="286.7375" y="530.0" name="top"/>
  <outline>
    <contour>
      <point x="546.325" y="535.2" type="curve"/>
      <point x="546.325" y="535.2" type="line"/>
      <point x="511.4625" y="535.2"/>
      <point x="477.2375" y="511.3875"/>
      <point x="456.1" y="492.65" type="curve"/>
      <point x="449.1" y="486.8375"/>
      <point x="443.475" y="486.675"/>
      <point x="435.9875" y="493.0" type="curve"/>
      <point x="402.15" y="521.5125"/>
      <point x="356.7125" y="538.0"/>
      <point x="289.0875" y="538.0" type="curve"/>
      <point x="149.45" y="538.0"/>
      <point x="69.3375" y="474.025"/>
      <point x="69.3375" y="369.65" type="curve"/>
      <point x="69.3375" y="307.8125"/>
      <point x="95.6125" y="265.8375"/>
      <point x="152.4" y="235.325" type="curve"/>
      <point x="159.8875" y="231.0"/>
      <point x="160.425" y="225.4875"/>
      <point x="152.75" y="223.325" type="curve"/>
      <point x="102.1" y="206.1875"/>
      <point x="78.925" y="179.05"/>
      <point x="78.925" y="152.9875" type="curve"/>
      <point x="78.925" y="127.9"/>
      <point x="93.175" y="110.4375"/>
      <point x="121.475" y="97.625" type="curve"/>
      <point x="128.6375" y="94.4625"/>
      <point x="128.9625" y="90.4625"/>
      <point x="121.475" y="86.625" type="curve"/>
      <point x="60.1" y="54.875"/>
      <point x="28.6625" y="16.2875"/>
      <point x="28.6625" y="-31.225" type="curve"/>
      <point x="28.6625" y="-122.7625"/>
      <point x="117.2625" y="-175.0"/>
      <point x="280.2" y="-175.0" type="curve"/>
      <point x="439.325" y="-175.0"/>
      <point x="529.6" y="-115.75"/>
      <point x="529.6" y="-15.425" type="curve"/>
      <point x="529.6" y="64.0625"/>
      <point x="479.5125" y="115.3625"/>
      <point x="365.85" y="121.85" type="curve"/>
      <point x="240.65" y="129.175" type="line" smooth="yes"/>
      <point x="171.45" y="132.85"/>
      <point x="142.2125" y="141.0375"/>
      <point x="142.2125" y="163.575" type="curve"/>
      <point x="142.2125" y="186.275"/>
      <point x="174.2375" y="209.0"/>
      <point x="281.275" y="209.0" type="curve"/>
      <point x="426.6625" y="209.0"/>
      <point x="492.2125" y="280.65"/>
      <point x="492.2125" y="369.8125" type="curve"/>
      <point x="492.2125" y="406.6125"/>
      <point x="480.1625" y="427.6625"/>
      <point x="473.8125" y="443.525" type="curve"/>
      <point x="470.65" y="451.6625"/>
      <point x="475.65" y="458.15"/>
      <point x="493.8125" y="466.525" type="curve"/>
      <point x="509.1625" y="474.0625"/>
      <point x="523.1375" y="476.925"/>
      <point x="547.025" y="477.1125" type="curve"/>
      <point x="561.1875" y="477.1375"/>
      <point x="565.4875" y="483.4625"/>
      <point x="565.4875" y="494.7375" type="curve"/>
      <point x="565.4875" y="520.25" type="line" smooth="yes"/>
      <point x="565.4875" y="530.7125"/>
      <point x="560.675" y="535.2"/>
    </contour>
    <contour>
      <point x="281.7875" y="255.6125" type="curve"/>
      <point x="281.7875" y="255.6125" type="line"/>
      <point x="185.725" y="255.6125"/>
      <point x="131.7625" y="297.15"/>
      <point x="131.7625" y="370.8375" type="curve"/>
      <point x="131.7625" y="446.175"/>
      <point x="186.5625" y="491.0625"/>
      <point x="281.7875" y="491.0625" type="curve"/>
      <point x="379.6625" y="491.0625"/>
      <point x="429.3" y="447.0125"/>
      <point x="429.3" y="370.8375" type="curve"/>
      <point x="429.3" y="296.475"/>
      <point x="381.3375" y="255.6125"/>
    </contour>
    <contour>
      <point x="189.9875" y="73.325" type="curve"/>
      <point x="360.95" y="63.1375" type="line"/>
      <point x="438.2875" y="58.625"/>
      <point x="466.3125" y="27.549999999999997"/>
      <point x="466.3125" y="-21.6" type="curve"/>
      <point x="466.3125" y="-94.9875"/>
      <point x="404.2125" y="-128.7125"/>
      <point x="289.3625" y="-128.7125" type="curve"/>
      <point x="159.3375" y="-128.7125"/>
      <point x="90.0" y="-90.8"/>
      <point x="90.0" y="-23.65" type="curve"/>
      <point x="90.0" y="35.0375"/>
      <point x="156.2" y="75.325"/>
    </contour>
  </outline>
</glyph>
<glyph name="h" format="2">
  <advance width="580.7125"/>
  <unicode hex="0068"/>
  <anchor x="344.5" y="530.0" name="top"/>
  <anchor x="303.4875" y="0.0" name="bottom"/>
  <outline>
    <contour>
      <point x="94.8" y="0.0" type="curve"/>
      <point x="94.8" y="0.0" type="line"/>
      <point x="136.1375" y="0.0" type="line" smooth="yes"/>
      <point x="145.0625" y="0.0"/>
      <point x="149.0375" y="3.8125"/>
      <point x="149.0375" y="12.25" type="curve"/>
      <point x="149.0375" y="400.0875" type="line"/>
      <point x="219.125" y="456.7"/>
      <point x="262.3875" y="485.2625"/>
      <point x="326.8875" y="485.2625" type="curve"/>
      <point x="404.95" y="485.2625"/>
      <point x="438.35" y="442.975"/>
      <point x="438.35" y="372.775" type="curve"/>
      <point x="438.35" y="11.6" type="line" smooth="yes"/>
      <point x="438.35" y="3.4875"/>
      <point x="441.8375" y="0.0"/>
      <point x="449.625" y="0.0" type="curve"/>
      <point x="491.9375" y="0.0" type="line" smooth="yes"/>
      <point x="500.375" y="0.0"/>
      <point x="504.35" y="4.1375"/>
      <point x="504.35" y="13.25" type="curve"/>
      <point x="504.35" y="390.075" type="line" smooth="yes"/>
      <point x="504.35" y="480.1625"/>
      <point x="449.025" y="540.0"/>
      <point x="343.325" y="540.0" type="curve"/>
      <point x="273.575" y="540.0"/>
      <point x="227.7625" y="512.95"/>
      <point x="154.85" y="458.7875" type="curve"/>
      <point x="148.525" y="453.4625"/>
      <point x="146.0375" y="454.7875"/>
      <point x="146.0375" y="461.95" type="curve"/>
      <point x="146.0375" y="731.8875" type="line" smooth="yes"/>
      <point x="146.0375" y="739.025"/>
      <point x="143.3875" y="742.0"/>
      <point x="136.4125" y="742.0" type="curve"/>
      <point x="92.825" y="742.0" type="line" smooth="yes"/>
      <point x="85.85" y="742.0"/>
      <point x="83.0375" y="738.025"/>
      <point x="83.0375" y="730.725" type="curve"/>
      <point x="83.0375" y="11.6" type="line" smooth="yes"/>
      <point x="83.0375" y="3.65"/>
      <point x="86.6875" y="0.0"/>
    </contour>
  </outline>
</glyph>
<glyph name="i" format="2">
  <advance width="231.75"/>
  <unicode hex="0069"/>
  <outline>
    <contour>
      <point x="148.875" y="14.7625" type="curve"/>
      <point x="148.875" y="518.375" type="line"/>
      <point x="148.875" y="527.025"/>
      <point x="146.0625" y="530.0"/>
      <point x="138.4125" y="530.0" type="curve"/>
      <point x="93.5" y="530.0" type="line" smooth="yes"/>
      <point x="85.6875" y="530.0"/>
      <point x="82.875" y="527.025"/>
      <point x="82.875" y="517.8875" type="curve"/>
      <point x="82.875" y="12.4375" type="line" smooth="yes"/>
      <point x="82.875" y="2.975"/>
      <point x="85.525" y="0.0"/>
      <point x="96.3125" y="0.0" type="curve"/>
      <point x="133.4625" y="0.0" type="line" smooth="yes"/>
      <point x="145.575" y="0.0"/>
      <point x="148.875" y="2.975"/>
    </contour>
    <contour>
      <point x="153.0625" y="650.7375" type="curve"/>
      <point x="153.0625" y="727.7" type="line"/>
      <point x="153.0625" y="736.5125"/>
      <point x="147.7375" y="742.0"/>
      <point x="140.0875" y="742.0" type="curve"/>
      <point x="91.825" y="742.0" type="line" smooth="yes"/>
      <point x="84.0125" y="742.0"/>
      <point x="78.6875" y="736.5125"/>
      <point x="78.6875" y="727.375" type="curve"/>
      <point x="78.6875" y="648.575" type="line" smooth="yes"/>
      <point x="78.6875" y="639.1125"/>
      <point x="81.3375" y="632.625"/>
      <point x="92.125" y="632.625" type="curve"/>
      <point x="137.65" y="632.625" type="line" smooth="yes"/>
      <point x="149.7625" y="632.625"/>
      <point x="153.0625" y="639.1125"/>
    </contour>
  </outline>
</glyph>
<glyph name="j" format="2">
  <advance width="231.9125"/>
  <unicode hex="006A"/>
  <outline>
    <contour>
      <point x="149.0375" y="-38.0" type="curve"/>
      <point x="149.0375" y="-38.0" type="line"/>
      <point x="149.0375" y="518.375" type="line" smooth="yes"/>
      <point x="149.0375" y="526.1875"/>
      <point x="146.3875" y="530.0"/>
      <point x="139.4125" y="530.0" type="curve"/>
      <point x="94.6625" y="530.0" type="line" smooth="yes"/>
      <point x="86.85" y="530.0"/>
      <point x="83.0375" y="526.1875"/>
      <point x="83.0375" y="517.8875" type="curve"/>
      <point x="83.0375" y="-32.675" type="line" smooth="yes"/>
      <point x="83.0375" y="-91.8"/>
      <point x="63.6625" y="-111.525"/>
      <point x="17.1625" y="-113.0125" type="curve"/>
      <point x="-37.1" y="-114.825" type="line" smooth="yes"/>
      <point x="-42.5625" y="-115.3125"/>
      <point x="-45.375" y="-119.1"/>
      <point x="-45.375" y="-124.2375" type="curve"/>
      <point x="-45.2125" y="-158.4" type="line" smooth="yes"/>
      <point x="-45.2125" y="-168.5125"/>
      <point x="-38.2375" y="-170.0"/>
      <point x="20.275" y="-170.0" type="curve"/>
      <point x="119.5625" y="-170.0"/>
      <point x="149.0375" y="-128.125"/>
    </contour>
    <contour>
      <point x="153.225" y="650.7375" type="curve"/>
      <point x="153.225" y="727.7" type="line"/>
      <point x="153.225" y="736.5125"/>
      <point x="148.0625" y="742.0"/>
      <point x="140.25" y="742.0" type="curve"/>
      <point x="92.15" y="742.0" type="line" smooth="yes"/>
      <point x="84.3375" y="742.0"/>
      <point x="78.85" y="736.5125"/>
      <point x="78.85" y="727.375" type="curve"/>
      <point x="78.85" y="648.575" type="line" smooth="yes"/>
      <point x="78.85" y="639.1125"/>
      <point x="81.6625" y="632.625"/>
      <point x="92.45" y="632.625" type="curve"/>
      <point x="137.975" y="632.625" type="line" smooth="yes"/>
      <point x="150.0875" y="632.625"/>
      <point x="153.225" y="639.1125"/>
    </contour>
  </outline>
</glyph>
<glyph name="l" format="2">
  <advance width="232.075"/>
  <unicode hex="006C"/>
  <anchor x="116.6875" y="742.0" name="top"/>
  <anchor x="116.6875" y="0.0" name="bottom"/>
  <anchor x="268.5125" y="707.55" name="topright"/>
  <outline>
    <contour>
      <point x="149.0375" y="14.7625" type="curve"/>
      <point x="149.0375" y="730.2125" type="line"/>
      <point x="149.0375" y="739.025"/>
      <point x="146.225" y="742.0"/>
      <point x="138.575" y="742.0" type="curve"/>
      <point x="94.15" y="742.0" type="line" smooth="yes"/>
      <point x="86.3375" y="742.0"/>
      <point x="83.525" y="739.025"/>
      <point x="83.525" y="729.8875" type="curve"/>
      <point x="82.7125" y="12.4375" type="line" smooth="yes"/>
      <point x="82.7125" y="2.975"/>
      <point x="85.525" y="0.0"/>
      <point x="96.3125" y="0.0" type="curve"/>
      <point x="133.625" y="0.0" type="line" smooth="yes"/>
      <point x="145.7375" y="0.0"/>
      <point x="149.0375" y="2.975"/>
    </contour>
  </outline>
</glyph>
<glyph name="m" format="2">
  <advance width="902.0375"/>
  <unicode hex="006D"/>
  <guideline x="279.6125" y="434.0125" angle="90.0"/>
  <outline>
    <contour>
      <point x="94.6375" y="0.0" type="curve"/>
      <point x="94.6375" y="0.0" type="line"/>
      <point x="135.975" y="0.0" type="line" smooth="yes"/>
      <point x="144.9" y="0.0"/>
      <point x="148.875" y="3.8125"/>
      <point x="148.875" y="12.25" type="curve"/>
      <point x="148.875" y="400.0875" type="line"/>
      <point x="215.6125" y="456.7"/>
      <point x="257.3625" y="485.2625"/>
      <point x="318.35" y="485.2625" type="curve"/>
      <point x="390.55" y="485.2625"/>
      <point x="421.4375" y="442.975"/>
      <point x="421.4375" y="372.775" type="curve"/>
      <point x="421.4375" y="11.6" type="line" smooth="yes"/>
      <point x="421.4375" y="3.4875"/>
      <point x="425.925" y="0.0"/>
      <point x="432.7125" y="0.0" type="curve"/>
      <point x="474.8625" y="0.0" type="line" smooth="yes"/>
      <point x="482.4625" y="0.0"/>
      <point x="487.275" y="4.1375"/>
      <point x="487.275" y="13.25" type="curve"/>
      <point x="487.275" y="383.25" type="line" smooth="yes"/>
      <point x="487.275" y="396.4375"/>
      <point x="491.625" y="402.7625"/>
      <point x="502.8125" y="412.7625" type="curve"/>
      <point x="537.9125" y="442.975"/>
      <point x="591.55" y="485.2625"/>
      <point x="656.75" y="485.2625" type="curve"/>
      <point x="728.7875" y="485.2625"/>
      <point x="759.8375" y="442.975"/>
      <point x="759.8375" y="372.775" type="curve"/>
      <point x="759.8375" y="11.6" type="line" smooth="yes"/>
      <point x="759.8375" y="3.4875"/>
      <point x="763.325" y="0.0"/>
      <point x="771.1125" y="0.0" type="curve"/>
      <point x="813.2625" y="0.0" type="line" smooth="yes"/>
      <point x="821.7" y="0.0"/>
      <point x="825.8375" y="4.1375"/>
      <point x="825.8375" y="13.25" type="curve"/>
      <point x="825.8375" y="389.75" type="line" smooth="yes"/>
      <point x="825.8375" y="480.0"/>
      <point x="771.8875" y="540.0"/>
      <point x="673.5125" y="540.0" type="curve"/>
      <point x="605.975" y="540.0"/>
      <point x="557.6125" y="508.725"/>
      <point x="491.3" y="455.2125" type="curve"/>
      <point x="485.4625" y="450.05"/>
      <point x="478.7875" y="446.7"/>
      <point x="476.7875" y="452.5375" type="curve"/>
      <point x="462.1625" y="496.1125"/>
      <point x="416.025" y="540.1625"/>
      <point x="334.7875" y="540.1625" type="curve"/>
      <point x="267.0875" y="540.1625"/>
      <point x="221.975" y="510.35"/>
      <point x="154.6875" y="457.65" type="curve"/>
      <point x="148.3625" y="452.1625"/>
      <point x="145.875" y="453.65"/>
      <point x="145.875" y="460.8125" type="curve"/>
      <point x="145.875" y="520.05" type="line" smooth="yes"/>
      <point x="145.875" y="527.025"/>
      <point x="143.225" y="530.0"/>
      <point x="136.25" y="530.0" type="curve"/>
      <point x="92.6625" y="530.0" type="line" smooth="yes"/>
      <point x="85.85" y="530.0"/>
      <point x="82.875" y="526.025"/>
      <point x="82.875" y="518.725" type="curve"/>
      <point x="82.875" y="11.6" type="line" smooth="yes"/>
      <point x="82.875" y="3.65"/>
      <point x="86.525" y="0.0"/>
    </contour>
  </outline>
</glyph>
<glyph name="n" format="2">
  <advance width="580.55"/>
  <unicode hex="006E"/>
  <anchor x="303.1625" y="530.0" name="top"/>
  <anchor x="294.7875" y="0.0" name="bottom"/>
  <outline>
    <contour>
      <point x="94.6375" y="0.0" type="curve"/>
      <point x="94.6375" y="0.0" type="line"/>
      <point x="135.975" y="0.0" type="line" smooth="yes"/>
      <point x="144.9" y="0.0"/>
      <point x="148.875" y="3.8125"/>
      <point x="148.875" y="12.25" type="curve"/>
      <point x="148.875" y="400.0875" type="line"/>
      <point x="218.9625" y="456.7"/>
      <point x="262.225" y="485.2625"/>
      <point x="326.725" y="485.2625" type="curve"/>
      <point x="404.7875" y="485.2625"/>
      <point x="438.35" y="442.975"/>
      <point x="438.35" y="372.775" type="curve"/>
      <point x="438.35" y="11.6" type="line" smooth="yes"/>
      <point x="438.35" y="3.4875"/>
      <point x="441.8375" y="0.0"/>
      <point x="449.625" y="0.0" type="curve"/>
      <point x="491.9375" y="0.0" type="line" smooth="yes"/>
      <point x="500.375" y="0.0"/>
      <point x="504.35" y="4.1375"/>
      <point x="504.35" y="13.25" type="curve"/>
      <point x="504.35" y="390.5625" type="line" smooth="yes"/>
      <point x="504.35" y="479.5125"/>
      <point x="447.8875" y="540.0"/>
      <point x="343.1625" y="540.0" type="curve"/>
      <point x="271.95" y="540.0"/>
      <point x="225.325" y="510.35"/>
      <point x="154.85" y="457.65" type="curve"/>
      <point x="148.525" y="452.1625"/>
      <point x="146.0375" y="453.65"/>
      <point x="146.0375" y="460.8125" type="curve"/>
      <point x="146.0375" y="520.05" type="line" smooth="yes"/>
      <point x="146.0375" y="527.025"/>
      <point x="143.3875" y="530.0"/>
      <point x="136.4125" y="530.0" type="curve"/>
      <point x="92.6625" y="530.0" type="line" smooth="yes"/>
      <point x="85.6875" y="530.0"/>
      <point x="82.875" y="526.025"/>
      <point x="82.875" y="518.725" type="curve"/>
      <point x="82.875" y="11.6" type="line" smooth="yes"/>
      <point x="82.875" y="3.65"/>
      <point x="86.525" y="0.0"/>
    </contour>
  </outline>
</glyph>
<glyph name="o" format="2">
  <advance width="598.325"/>
  <unicode hex="006F"/>
  <anchor x="299.1625" y="265.0" name="center"/>
  <anchor x="365.4375" y="10.0" name="ogonek"/>
  <anchor x="300.8375" y="530.0" name="top"/>
  <anchor x="433.875" y="530.0" name="topright"/>
  <anchor x="297.8375" y="0.0" name="bottom"/>
  <outline>
    <contour>
      <point x="299.0" y="-10.0" type="curve"/>
      <point x="299.0" y="-10.0" type="line"/>
      <point x="448.0875" y="-10.0"/>
      <point x="548.0125" y="102.325"/>
      <point x="548.0125" y="263.675" type="curve"/>
      <point x="548.0125" y="425.5125"/>
      <point x="448.575" y="540.0"/>
      <point x="300.0" y="540.0" type="curve"/>
      <point x="152.05" y="540.0"/>
      <point x="50.3125" y="425.65"/>
      <point x="50.3125" y="262.0" type="curve"/>
      <point x="50.3125" y="101.325"/>
      <point x="149.2375" y="-10.0"/>
    </contour>
    <contour>
      <point x="300.8375" y="42.625" type="curve"/>
      <point x="300.8375" y="42.625" type="line"/>
      <point x="188.375" y="42.625"/>
      <point x="118.3125" y="129.3375"/>
      <point x="118.3125" y="264.325" type="curve"/>
      <point x="118.3125" y="399.475"/>
      <point x="188.375" y="488.025"/>
      <point x="300.0" y="488.025" type="curve"/>
      <point x="410.95" y="488.025"/>
      <point x="480.0125" y="400.3125"/>
      <point x="480.0125" y="264.325" type="curve"/>
      <point x="480.0125" y="128.6625"/>
      <point x="412.625" y="42.625"/>
    </contour>
  </outline>
</glyph>
<glyph name="p" format="2">
  <advance width="594.3875"/>
  <unicode hex="0070"/>
  <outline>
    <contour>
      <point x="134.7625" y="530.0" type="curve"/>
      <point x="134.7625" y="530.0" type="line"/>
      <point x="97.3125" y="530.0" type="line" smooth="yes"/>
      <point x="86.3625" y="530.0"/>
      <point x="82.875" y="526.025"/>
      <point x="82.875" y="515.725" type="curve"/>
      <point x="82.875" y="-153.8875" type="line" smooth="yes"/>
      <point x="82.875" y="-161.35"/>
      <point x="86.6875" y="-165.0"/>
      <point x="92.6625" y="-165.0" type="curve"/>
      <point x="138.4125" y="-165.0" type="line" smooth="yes"/>
      <point x="146.225" y="-165.0"/>
      <point x="148.875" y="-161.35"/>
      <point x="148.875" y="-153.375" type="curve"/>
      <point x="148.875" y="33.4875" type="line" smooth="yes"/>
      <point x="148.875" y="47.625"/>
      <point x="152.2" y="49.975"/>
      <point x="164.0125" y="40.1625" type="curve"/>
      <point x="195.125" y="13.5625"/>
      <point x="243.6625" y="-10.0"/>
      <point x="307.925" y="-10.0" type="curve"/>
      <point x="449.2375" y="-10.0"/>
      <point x="541.9125" y="98.5"/>
      <point x="541.9125" y="273.7" type="curve"/>
      <point x="541.9125" y="452.325"/>
      <point x="444.35" y="540.0"/>
      <point x="319.1125" y="540.0" type="curve"/>
      <point x="221.9375" y="540.0"/>
      <point x="179.5875" y="487.175"/>
      <point x="159.85" y="467.0875" type="curve"/>
      <point x="152.0125" y="459.4125"/>
      <point x="147.3625" y="460.25"/>
      <point x="147.3625" y="470.7625" type="curve"/>
      <point x="147.3625" y="516.8875" type="line" smooth="yes"/>
      <point x="147.3625" y="525.5125"/>
      <point x="143.7125" y="530.0"/>
    </contour>
    <contour>
      <point x="148.875" y="111.6375" type="curve"/>
      <point x="148.875" y="111.6375" type="line"/>
      <point x="148.875" y="363.8375" type="line" smooth="yes"/>
      <point x="148.875" y="419.2875"/>
      <point x="210.8625" y="488.5125"/>
      <point x="300.95" y="488.5125" type="curve"/>
      <point x="393.15" y="488.5125"/>
      <point x="473.9125" y="423.3375"/>
      <point x="473.9125" y="271.325" type="curve"/>
      <point x="473.9125" y="123.225"/>
      <point x="398.6875" y="41.4875"/>
      <point x="294.25" y="41.4875" type="curve"/>
      <point x="237.9625" y="41.4875"/>
      <point x="192.675" y="68.375"/>
    </contour>
  </outline>
</glyph>
<glyph name="q" format="2">
  <advance width="596.7375"/>
  <unicode hex="0071"/>
  <outline>
    <contour>
      <point x="500.2625" y="530.0" type="curve"/>
      <point x="480.075" y="530.0" type="line"/>
      <point x="468.075" y="530.0"/>
      <point x="465.1" y="526.1875"/>
      <point x="463.45" y="515.2125" type="curve"/>
      <point x="457.5" y="473.4" type="line" smooth="yes"/>
      <point x="456.175" y="465.2375"/>
      <point x="453.0125" y="464.2375"/>
      <point x="447.0125" y="470.4" type="curve"/>
      <point x="427.275" y="490.25"/>
      <point x="386.675" y="540.1625"/>
      <point x="281.85" y="540.1625" type="curve"/>
      <point x="136.475" y="540.1625"/>
      <point x="52.3125" y="431.0"/>
      <point x="52.3125" y="267.35" type="curve"/>
      <point x="52.3125" y="99.4"/>
      <point x="139.175" y="-10.0"/>
      <point x="281.575" y="-10.0" type="curve"/>
      <point x="345.0" y="-10.0"/>
      <point x="398.05" y="13.5125"/>
      <point x="433.2125" y="40.675" type="curve"/>
      <point x="445.8875" y="50.5125"/>
      <point x="447.8625" y="47.8375"/>
      <point x="447.8625" y="33.025" type="curve"/>
      <point x="447.8625" y="-152.5375" type="line" smooth="yes"/>
      <point x="447.8625" y="-161.35"/>
      <point x="450.675" y="-165.0"/>
      <point x="457.4875" y="-165.0" type="curve"/>
      <point x="503.2375" y="-165.0" type="line" smooth="yes"/>
      <point x="510.05" y="-165.0"/>
      <point x="513.8625" y="-161.35"/>
      <point x="513.8625" y="-153.05" type="curve"/>
      <point x="513.8625" y="514.8875" type="line" smooth="yes"/>
      <point x="513.8625" y="526.025"/>
      <point x="510.375" y="530.0"/>
    </contour>
    <contour>
      <point x="447.8625" y="351.5375" type="curve"/>
      <point x="447.8625" y="111.175" type="line"/>
      <point x="410.275" y="67.5625"/>
      <point x="353.775" y="41.325"/>
      <point x="296.975" y="41.325" type="curve"/>
      <point x="193.7" y="41.325"/>
      <point x="120.3125" y="122.875"/>
      <point x="120.3125" y="268.35" type="curve"/>
      <point x="120.3125" y="417.85"/>
      <point x="199.2125" y="489.65"/>
      <point x="295.1125" y="489.65" type="curve"/>
      <point x="383.175" y="489.65"/>
      <point x="447.8625" y="423.15"/>
    </contour>
  </outline>
</glyph>
<glyph name="r" format="2">
  <advance width="371.925"/>
  <unicode hex="0072"/>
  <anchor x="207.7125" y="530.0" name="top"/>
  <anchor x="117.825" y="0.0" name="bottom"/>
  <outline>
    <contour>
      <point x="94.6375" y="0.0" type="curve"/>
      <point x="94.6375" y="0.0" type="line"/>
      <point x="135.975" y="0.0" type="line" smooth="yes"/>
      <point x="144.7375" y="0.0"/>
      <point x="148.875" y="3.8125"/>
      <point x="148.875" y="12.25" type="curve"/>
      <point x="148.875" y="353.625" type="line" smooth="yes"/>
      <point x="148.875" y="415.425"/>
      <point x="239.45" y="477.7375"/>
      <point x="300.2" y="477.7375" type="curve"/>
      <point x="317.525" y="477.7375"/>
      <point x="330.075" y="476.4125"/>
      <point x="339.3" y="475.1125" type="curve"/>
      <point x="343.7625" y="474.625"/>
      <point x="346.7375" y="477.275"/>
      <point x="346.7375" y="481.9" type="curve"/>
      <point x="346.7375" y="528.375" type="line" smooth="yes"/>
      <point x="346.7375" y="536.5125"/>
      <point x="336.0875" y="540.0"/>
      <point x="311.4125" y="540.0" type="curve"/>
      <point x="258.55" y="540.0"/>
      <point x="210.1375" y="513.4"/>
      <point x="154.6875" y="451.0" type="curve"/>
      <point x="149.3625" y="444.5125"/>
      <point x="145.225" y="446.5125"/>
      <point x="145.225" y="454.0" type="curve"/>
      <point x="145.225" y="520.05" type="line" smooth="yes"/>
      <point x="145.225" y="527.025"/>
      <point x="142.4125" y="530.0"/>
      <point x="135.6" y="530.0" type="curve"/>
      <point x="92.6625" y="530.0" type="line" smooth="yes"/>
      <point x="85.6875" y="530.0"/>
      <point x="82.875" y="526.1875"/>
      <point x="82.875" y="518.725" type="curve"/>
      <point x="82.875" y="11.6" type="line" smooth="yes"/>
      <point x="82.875" y="3.8125"/>
      <point x="86.3625" y="0.0"/>
    </contour>
  </outline>
</glyph>
<glyph name="s" format="2">
  <advance width="507.5"/>
  <unicode hex="0073"/>
  <anchor x="239.6875" y="530.0" name="top"/>
  <anchor x="246.225" y="0.0" name="bottom"/>
  <outline>
    <contour>
      <point x="398.9625" y="418.2" type="curve"/>
      <point x="398.9625" y="418.2" type="line"/>
      <point x="401.9375" y="414.225"/>
      <point x="406.75" y="413.4125"/>
      <point x="411.2125" y="416.0625" type="curve"/>
      <point x="445.425" y="435.775" type="line" smooth="yes"/>
      <point x="450.2125" y="438.5875"/>
      <point x="449.75" y="442.375"/>
      <point x="446.2625" y="447.35" type="curve"/>
      <point x="408.8875" y="504.725"/>
      <point x="337.1" y="540.0"/>
      <point x="250.7125" y="540.0" type="curve"/>
      <point x="134.2375" y="540.0"/>
      <point x="51.5875" y="477.75"/>
      <point x="51.75" y="384.6375" type="curve"/>
      <point x="51.9125" y="327.975"/>
      <point x="84.4375" y="282.1625"/>
      <point x="184.6" y="254.1125" type="curve"/>
      <point x="287.4375" y="224.3875" type="line" smooth="yes"/>
      <point x="363.9625" y="202.3125"/>
      <point x="393.7375" y="174.5625"/>
      <point x="393.7375" y="134.7625" type="curve"/>
      <point x="393.7375" y="78.775"/>
      <point x="329.75" y="41.975"/>
      <point x="247.55" y="41.8125" type="curve"/>
      <point x="164.2" y="41.4875"/>
      <point x="108.725" y="77.0"/>
      <point x="75.675" y="131.475" type="curve"/>
      <point x="72.8625" y="135.2875"/>
      <point x="68.375" y="135.6125"/>
      <point x="63.1" y="132.6375" type="curve"/>
      <point x="30.5375" y="113.7625" type="line" smooth="yes"/>
      <point x="25.5625" y="110.4375"/>
      <point x="25.725" y="105.975"/>
      <point x="28.5375" y="100.675" type="curve"/>
      <point x="61.5375" y="35.65"/>
      <point x="145.35" y="-10.0"/>
      <point x="247.3875" y="-10.0" type="curve"/>
      <point x="367.2375" y="-10.0"/>
      <point x="457.675" y="51.65"/>
      <point x="457.675" y="142.3625" type="curve"/>
      <point x="457.675" y="202.6125"/>
      <point x="418.7" y="250.5125"/>
      <point x="333.225" y="275.675" type="curve"/>
      <point x="202.9375" y="316.1" type="line" smooth="yes"/>
      <point x="131.7625" y="338.175"/>
      <point x="115.2" y="367.4375"/>
      <point x="115.2" y="396.5375" type="curve"/>
      <point x="115.2" y="453.7125"/>
      <point x="172.675" y="489.325"/>
      <point x="249.55" y="489.325" type="curve"/>
      <point x="318.65" y="489.325"/>
      <point x="369.75" y="461.3"/>
    </contour>
  </outline>
</glyph>
<glyph name="t" format="2">
  <advance width="374.9"/>
  <unicode hex="0074"/>
  <anchor x="171.5625" y="309.3875" name="center"/>
  <anchor x="236.85" y="0.0" name="bottom"/>
  <anchor x="353.0625" y="764.75" name="topright"/>
  <outline>
    <contour>
      <point x="201.5875" y="478.75" type="curve"/>
      <point x="333.1125" y="478.75" type="line"/>
      <point x="340.0625" y="478.75"/>
      <point x="342.2" y="481.8875"/>
      <point x="342.2" y="487.35" type="curve"/>
      <point x="342.2" y="522.05" type="line" smooth="yes"/>
      <point x="342.2" y="527.5125"/>
      <point x="339.0625" y="530.1625"/>
      <point x="333.6" y="530.1625" type="curve"/>
      <point x="202.2375" y="530.1625" type="line" smooth="yes"/>
      <point x="196.9125" y="530.1625"/>
      <point x="194.5875" y="532.4875"/>
      <point x="194.5875" y="537.8125" type="curve"/>
      <point x="194.5875" y="697.2125" type="line" smooth="yes"/>
      <point x="194.5875" y="706.1875"/>
      <point x="190.775" y="710.0"/>
      <point x="183.9625" y="710.0" type="curve"/>
      <point x="148.35" y="710.0" type="line" smooth="yes"/>
      <point x="141.375" y="710.0"/>
      <point x="138.8875" y="706.35"/>
      <point x="138.725" y="698.375" type="curve"/>
      <point x="128.5875" y="537.8125" type="line" smooth="yes"/>
      <point x="128.425" y="533.1625"/>
      <point x="126.1" y="530.0"/>
      <point x="121.6125" y="530.0" type="curve"/>
      <point x="33.3" y="530.0" type="line" smooth="yes"/>
      <point x="27.675" y="530.0"/>
      <point x="24.7" y="527.35"/>
      <point x="24.7" y="521.8875" type="curve"/>
      <point x="24.7" y="487.35" type="line" smooth="yes"/>
      <point x="24.7" y="481.8875"/>
      <point x="27.5125" y="478.75"/>
      <point x="33.625" y="478.75" type="curve"/>
      <point x="119.3125" y="478.75" type="line" smooth="yes"/>
      <point x="125.45" y="478.75"/>
      <point x="127.6125" y="476.1"/>
      <point x="127.6125" y="469.9625" type="curve"/>
      <point x="127.6125" y="121.275" type="line" smooth="yes"/>
      <point x="127.6125" y="36.1125"/>
      <point x="159.925" y="0.0"/>
      <point x="242.525" y="0.0" type="curve"/>
      <point x="261.5625" y="0.0"/>
      <point x="311.75" y="1.0"/>
      <point x="329.7875" y="4.4875" type="curve"/>
      <point x="336.225" y="5.975"/>
      <point x="339.525" y="8.4375"/>
      <point x="339.525" y="15.225000000000001" type="curve"/>
      <point x="339.6875" y="42.4625" type="line" smooth="yes"/>
      <point x="339.6875" y="48.4375"/>
      <point x="336.0375" y="51.575"/>
      <point x="330.0625" y="51.575" type="curve"/>
      <point x="256.9125" y="51.575" type="line" smooth="yes"/>
      <point x="215.45" y="51.575"/>
      <point x="193.6125" y="67.0625"/>
      <point x="193.6125" y="134.725" type="curve"/>
      <point x="193.6125" y="470.775" type="line" smooth="yes"/>
      <point x="193.6125" y="476.425"/>
      <point x="196.2625" y="478.75"/>
    </contour>
  </outline>
</glyph>
<glyph name="u" format="2">
  <advance width="575.875"/>
  <unicode hex="0075"/>
  <anchor x="481.5875" y="10.8375" name="ogonek"/>
  <anchor x="273.0375" y="530.0" name="top"/>
  <anchor x="528.2375" y="530.0" name="topright"/>
  <anchor x="273.2" y="0.0" name="bottom"/>
  <outline>
    <contour>
      <point x="252.3375" y="44.575" type="curve"/>
      <point x="252.3375" y="44.575" type="line"/>
      <point x="183.1375" y="44.575"/>
      <point x="141.3625" y="91.8875"/>
      <point x="141.3625" y="162.25" type="curve"/>
      <point x="141.3625" y="518.2375" type="line" smooth="yes"/>
      <point x="141.3625" y="526.35"/>
      <point x="137.875" y="530.0"/>
      <point x="130.0875" y="530.0" type="curve"/>
      <point x="87.9375" y="530.0" type="line" smooth="yes"/>
      <point x="79.3375" y="530.0"/>
      <point x="75.3625" y="525.8625"/>
      <point x="75.3625" y="516.75" type="curve"/>
      <point x="75.3625" y="140.25" type="line" smooth="yes"/>
      <point x="75.3625" y="50.0"/>
      <point x="144.225" y="-10.0"/>
      <point x="236.925" y="-10.0" type="curve"/>
      <point x="291.3625" y="-10.0"/>
      <point x="343.525" y="8.975"/>
      <point x="421.35" y="73.8625" type="curve"/>
      <point x="427.5125" y="79.1875"/>
      <point x="430.0" y="77.8625"/>
      <point x="430.0" y="70.7" type="curve"/>
      <point x="430.0" y="9.95" type="line" smooth="yes"/>
      <point x="430.0" y="2.8125"/>
      <point x="432.8125" y="0.0"/>
      <point x="439.625" y="0.0" type="curve"/>
      <point x="482.8875" y="0.0" type="line" smooth="yes"/>
      <point x="489.8625" y="0.0"/>
      <point x="492.675" y="3.8125"/>
      <point x="492.675" y="11.1125" type="curve"/>
      <point x="493.325" y="518.2375" type="line" smooth="yes"/>
      <point x="493.325" y="526.1875"/>
      <point x="489.675" y="530.0"/>
      <point x="481.5625" y="530.0" type="curve"/>
      <point x="439.9" y="530.0" type="line" smooth="yes"/>
      <point x="431.1375" y="530.0"/>
      <point x="427.0" y="526.025"/>
      <point x="427.0" y="517.75" type="curve"/>
      <point x="427.0" y="139.175" type="line"/>
      <point x="369.6375" y="81.0"/>
      <point x="314.1625" y="44.575"/>
    </contour>
  </outline>
</glyph>
<glyph name="v" format="2">
  <advance width="539.9125"/>
  <unicode hex="0076"/>
  <outline>
    <contour>
      <point x="500.8875" y="530.0" type="curve"/>
      <point x="500.8875" y="530.0" type="line"/>
      <point x="464.2625" y="530.0" type="line" smooth="yes"/>
      <point x="457.2875" y="530.0"/>
      <point x="453.3125" y="526.8625"/>
      <point x="450.825" y="520.8875" type="curve"/>
      <point x="283.75" y="103.2875" type="line" smooth="yes"/>
      <point x="277.75" y="89.2875"/>
      <point x="272.75" y="89.45"/>
      <point x="267.9125" y="102.2875" type="curve"/>
      <point x="100.35" y="520.05" type="line" smooth="yes"/>
      <point x="98.025" y="526.8625"/>
      <point x="93.8875" y="530.0"/>
      <point x="86.075" y="530.0" type="curve"/>
      <point x="40.1875" y="530.0" type="line" smooth="yes"/>
      <point x="31.725" y="530.0"/>
      <point x="27.9125" y="524.2125"/>
      <point x="30.4" y="516.9125" type="curve"/>
      <point x="234.45" y="12.4375" type="line" smooth="yes"/>
      <point x="238.1" y="3.8125"/>
      <point x="245.5875" y="0.0"/>
      <point x="257.2125" y="0.0" type="curve"/>
      <point x="284.2125" y="0.0" type="line" smooth="yes"/>
      <point x="295.0" y="0.0"/>
      <point x="301.65" y="3.8125"/>
      <point x="305.3" y="13.275" type="curve"/>
      <point x="509.5125" y="517.75" type="line" smooth="yes"/>
      <point x="512.0" y="524.2125"/>
      <point x="508.5125" y="530.0"/>
    </contour>
  </outline>
</glyph>
<glyph name="w" format="2">
  <advance width="790.9625"/>
  <unicode hex="0077"/>
  <anchor x="399.0875" y="530.0" name="top"/>
  <outline>
    <contour>
      <point x="747.75" y="530.0" type="curve"/>
      <point x="747.75" y="530.0" type="line"/>
      <point x="717.2625" y="530.0" type="line" smooth="yes"/>
      <point x="710.2875" y="530.0"/>
      <point x="704.6375" y="526.8625"/>
      <point x="702.15" y="520.8875" type="curve"/>
      <point x="579.7125" y="105.2125" type="line" smooth="yes"/>
      <point x="575.55" y="91.2125"/>
      <point x="570.225" y="91.375"/>
      <point x="566.3875" y="104.2125" type="curve"/>
      <point x="433.875" y="520.05" type="line" smooth="yes"/>
      <point x="431.7125" y="526.8625"/>
      <point x="427.4125" y="530.0"/>
      <point x="419.7625" y="530.0" type="curve"/>
      <point x="382.7875" y="530.0" type="line" smooth="yes"/>
      <point x="376.65" y="530.0"/>
      <point x="372.35" y="527.7"/>
      <point x="370.1875" y="521.725" type="curve"/>
      <point x="244.05" y="105.2125" type="line" smooth="yes"/>
      <point x="239.8875" y="91.2125"/>
      <point x="233.725" y="91.375"/>
      <point x="229.8875" y="104.2125" type="curve"/>
      <point x="102.2625" y="520.05" type="line" smooth="yes"/>
      <point x="100.1" y="526.8625"/>
      <point x="95.8" y="530.0"/>
      <point x="87.9875" y="530.0" type="curve"/>
      <point x="43.5375" y="530.0" type="line" smooth="yes"/>
      <point x="35.075" y="530.0"/>
      <point x="31.2625" y="524.2125"/>
      <point x="33.75" y="516.9125" type="curve"/>
      <point x="190.8875" y="11.95" type="line" smooth="yes"/>
      <point x="193.375" y="3.4875"/>
      <point x="199.7" y="0.0"/>
      <point x="210.5125" y="0.0" type="curve"/>
      <point x="253.025" y="0.0" type="line" smooth="yes"/>
      <point x="263.0" y="0.0"/>
      <point x="268.0" y="3.325"/>
      <point x="270.325" y="12.1375" type="curve"/>
      <point x="390.575" y="411.225" type="line" smooth="yes"/>
      <point x="393.7375" y="421.875"/>
      <point x="397.3875" y="422.7125"/>
      <point x="401.55" y="411.225" type="curve"/>
      <point x="529.2" y="11.95" type="line" smooth="yes"/>
      <point x="531.6875" y="3.4875"/>
      <point x="538.0125" y="0.0"/>
      <point x="548.9875" y="0.0" type="curve"/>
      <point x="588.5" y="0.0" type="line" smooth="yes"/>
      <point x="598.3125" y="0.0"/>
      <point x="604.15" y="3.325"/>
      <point x="606.475" y="12.1375" type="curve"/>
      <point x="757.2125" y="517.75" type="line" smooth="yes"/>
      <point x="759.025" y="524.2125"/>
      <point x="755.375" y="530.0"/>
    </contour>
  </outline>
</glyph>
<glyph name="x" format="2">
  <advance width="532.3875"/>
  <unicode hex="0078"/>
  <outline>
    <contour>
      <point x="496.85" y="17.0375" type="curve"/>
      <point x="496.85" y="17.0375" type="line"/>
      <point x="312.1" y="266.4375" type="line" smooth="yes"/>
      <point x="307.125" y="272.9"/>
      <point x="305.9625" y="279.0625"/>
      <point x="311.9375" y="286.525" type="curve"/>
      <point x="486.4625" y="518.5875" type="line" smooth="yes"/>
      <point x="490.7625" y="524.375"/>
      <point x="489.925" y="530.0"/>
      <point x="480.8375" y="530.0" type="curve"/>
      <point x="439.375" y="530.0" type="line" smooth="yes"/>
      <point x="429.775" y="530.0"/>
      <point x="426.6375" y="528.1875"/>
      <point x="422.6625" y="522.5625" type="curve"/>
      <point x="280.5875" y="326.575" type="line" smooth="yes"/>
      <point x="275.2625" y="318.7625"/>
      <point x="270.2625" y="319.925"/>
      <point x="265.9375" y="326.575" type="curve"/>
      <point x="119.7" y="522.5625" type="line" smooth="yes"/>
      <point x="115.725" y="528.1875"/>
      <point x="112.5875" y="530.0"/>
      <point x="103.825" y="530.0" type="curve"/>
      <point x="52.025" y="530.0" type="line" smooth="yes"/>
      <point x="43.2625" y="530.0"/>
      <point x="40.45" y="522.5625"/>
      <point x="44.75" y="516.775" type="curve"/>
      <point x="222.2" y="277.3" type="line" smooth="yes"/>
      <point x="227.3375" y="269.8375"/>
      <point x="228.3375" y="264.5125"/>
      <point x="222.3625" y="257.2125" type="curve"/>
      <point x="35.35" y="20.0125" type="line" smooth="yes"/>
      <point x="23.9375" y="4.625"/>
      <point x="30.5625" y="0.0"/>
      <point x="41.8125" y="0.0" type="curve"/>
      <point x="79.8125" y="0.0" type="line" smooth="yes"/>
      <point x="88.0875" y="0.0"/>
      <point x="93.55" y="2.65"/>
      <point x="96.6875" y="7.4375" type="curve"/>
      <point x="254.25" y="213.725" type="line" smooth="yes"/>
      <point x="260.55" y="222.675"/>
      <point x="264.225" y="222.5125"/>
      <point x="270.525" y="213.5625" type="curve"/>
      <point x="421.3875" y="7.4375" type="line" smooth="yes"/>
      <point x="424.525" y="2.65"/>
      <point x="430.825" y="0.0"/>
      <point x="438.2625" y="0.0" type="curve"/>
      <point x="493.7125" y="0.0" type="line" smooth="yes"/>
      <point x="504.2875" y="0.0"/>
      <point x="506.45" y="4.3"/>
    </contour>
  </outline>
</glyph>
<glyph name="y" format="2">
  <advance width="521.1625"/>
  <unicode hex="0079"/>
  <anchor x="266.5375" y="530.0" name="top"/>
  <anchor x="348.175" y="0.0" name="bottom"/>
  <outline>
    <contour>
      <point x="107.025" y="-165.0" type="curve"/>
      <point x="107.025" y="-165.0" type="line"/>
      <point x="183.8375" y="-165.0"/>
      <point x="234.4625" y="-142.7"/>
      <point x="267.45" y="-59.45" type="curve"/>
      <point x="490.925" y="517.75" type="line" smooth="yes"/>
      <point x="493.575" y="523.375"/>
      <point x="489.925" y="530.0"/>
      <point x="482.3" y="530.0" type="curve"/>
      <point x="445.675" y="530.0" type="line" smooth="yes"/>
      <point x="439.5375" y="530.0"/>
      <point x="435.5625" y="526.8625"/>
      <point x="433.075" y="520.8875" type="curve"/>
      <point x="276.725" y="112.55" type="line" smooth="yes"/>
      <point x="270.725" y="96.875"/>
      <point x="263.725" y="97.2"/>
      <point x="258.8875" y="109.2" type="curve"/>
      <point x="99.35" y="520.05" type="line" smooth="yes"/>
      <point x="97.025" y="526.8625"/>
      <point x="92.05" y="530.0"/>
      <point x="85.075" y="530.0" type="curve"/>
      <point x="40.025" y="530.0" type="line" smooth="yes"/>
      <point x="29.8875" y="530.0"/>
      <point x="26.75" y="523.375"/>
      <point x="30.2375" y="515.2375" type="curve"/>
      <point x="220.05" y="36.025" type="line" smooth="yes"/>
      <point x="239.2625" y="-13.1"/>
      <point x="195.1875" y="-111.6125"/>
      <point x="134.95" y="-111.6125" type="curve"/>
      <point x="73.1625" y="-111.6125" type="line" smooth="yes"/>
      <point x="49.4875" y="-111.6125"/>
      <point x="44.325" y="-115.075"/>
      <point x="44.325" y="-123.9125" type="curve"/>
      <point x="44.325" y="-153.05" type="line" smooth="yes"/>
      <point x="44.325" y="-165.35"/>
      <point x="67.5375" y="-165.0"/>
    </contour>
  </outline>
</glyph>
<glyph name="z" format="2">
  <advance width="471.975"/>
  <unicode hex="007A"/>
  <anchor x="249.525" y="530.0" name="top"/>
  <outline>
    <contour>
      <point x="42.4875" y="0.0" type="curve"/>
      <point x="42.4875" y="0.0" type="line"/>
      <point x="425.4875" y="0.0" type="line" smooth="yes"/>
      <point x="433.275" y="0.0"/>
      <point x="436.25" y="3.3"/>
      <point x="436.25" y="10.275" type="curve"/>
      <point x="436.25" y="41.35" type="line" smooth="yes"/>
      <point x="436.25" y="46.975"/>
      <point x="433.1125" y="49.4625"/>
      <point x="427.4875" y="49.4625" type="curve"/>
      <point x="120.3125" y="49.4625" type="line" smooth="yes"/>
      <point x="114.6875" y="49.4625"/>
      <point x="112.525" y="52.275"/>
      <point x="117.3375" y="58.4125" type="curve"/>
      <point x="421.6" y="468.25" type="line" smooth="yes"/>
      <point x="427.7375" y="476.0375"/>
      <point x="430.225" y="483.3625"/>
      <point x="430.225" y="492.5" type="curve"/>
      <point x="430.225" y="521.8875" type="line" smooth="yes"/>
      <point x="430.225" y="527.025"/>
      <point x="427.4125" y="530.0"/>
      <point x="422.95" y="530.0" type="curve"/>
      <point x="63.1875" y="530.0" type="line" smooth="yes"/>
      <point x="58.05" y="530.0"/>
      <point x="55.2375" y="527.025"/>
      <point x="55.2375" y="520.8875" type="curve"/>
      <point x="55.2375" y="490.4625" type="line" smooth="yes"/>
      <point x="55.2375" y="482.5125"/>
      <point x="57.725" y="480.8625"/>
      <point x="64.675" y="480.8625" type="curve"/>
      <point x="342.6625" y="480.8625" type="line" smooth="yes"/>
      <point x="349.125" y="480.8625"/>
      <point x="351.45" y="477.5375"/>
      <point x="346.8" y="471.5625" type="curve"/>
      <point x="43.35" y="61.5375" type="line" smooth="yes"/>
      <point x="35.2375" y="50.775"/>
      <point x="33.2375" y="45.775"/>
      <point x="33.2375" y="36.5" type="curve"/>
      <point x="33.2375" y="9.925" type="line" smooth="yes"/>
      <point x="33.2375" y="2.4875"/>
      <point x="35.05" y="0.0"/>
    </contour>
  </outline>
</glyph>
<glyph name="braceleft" format="2">
  <advance width="289.5875"/>
  <unicode hex="007B"/>
  <outline>
    <contour>
      <point x="116.0" y="644.525" type="curve"/>
      <point x="116.0" y="644.525" type="line"/>
      <point x="116.0" y="419.975" type="line" smooth="yes"/>
      <point x="116.0" y="359.975"/>
      <point x="80.3" y="314.2"/>
      <point x="5.3" y="313.3625" type="curve"/>
      <point x="2.4875" y="313.3625"/>
      <point x="0.0" y="310.875"/>
      <point x="0.0" y="305.0875" type="curve"/>
      <point x="0.0" y="273.8625" type="line" smooth="yes"/>
      <point x="0.0" y="268.075"/>
      <point x="2.4875" y="265.5875"/>
      <point x="5.3" y="265.5875" type="curve"/>
      <point x="79.3" y="265.5875"/>
      <point x="116.0" y="210.975"/>
      <point x="116.0" y="162.975" type="curve"/>
      <point x="116.0" y="-65.85" type="line" smooth="yes"/>
      <point x="116.0" y="-124.0"/>
      <point x="157.5375" y="-165.0"/>
      <point x="237.025" y="-165.0" type="curve"/>
      <point x="264.9625" y="-165.0" type="line" smooth="yes"/>
      <point x="272.1" y="-165.0"/>
      <point x="274.5875" y="-162.5125"/>
      <point x="274.5875" y="-155.375" type="curve"/>
      <point x="274.5875" y="-125.925" type="line" smooth="yes"/>
      <point x="274.5875" y="-119.95"/>
      <point x="271.1" y="-116.625"/>
      <point x="264.9625" y="-116.625" type="curve"/>
      <point x="243.525" y="-116.625" type="line" smooth="yes"/>
      <point x="193.525" y="-116.625"/>
      <point x="178.6875" y="-99.95"/>
      <point x="178.6875" y="-61.95" type="curve"/>
      <point x="178.6875" y="166.0625" type="line" smooth="yes"/>
      <point x="178.2" y="249.225"/>
      <point x="131.625" y="281.975"/>
      <point x="81.4375" y="285.975" type="curve"/>
      <point x="72.4375" y="286.975"/>
      <point x="73.4375" y="291.8125"/>
      <point x="81.4375" y="292.8125" type="curve"/>
      <point x="132.625" y="297.975"/>
      <point x="178.2" y="335.725"/>
      <point x="178.6875" y="414.6125" type="curve"/>
      <point x="178.6875" y="640.625" type="line" smooth="yes"/>
      <point x="178.6875" y="675.8375"/>
      <point x="193.7625" y="693.625"/>
      <point x="242.6875" y="693.625" type="curve"/>
      <point x="266.2875" y="693.625" type="line" smooth="yes"/>
      <point x="271.1" y="693.625"/>
      <point x="274.5875" y="696.1125"/>
      <point x="274.5875" y="700.925" type="curve"/>
      <point x="274.5875" y="735.7" type="line" smooth="yes"/>
      <point x="274.5875" y="740.5125"/>
      <point x="272.2625" y="742.0"/>
      <point x="266.2875" y="742.0" type="curve"/>
      <point x="235.7" y="742.0" type="line" smooth="yes"/>
      <point x="160.8875" y="742.0"/>
      <point x="116.0" y="703.1875"/>
    </contour>
  </outline>
</glyph>
<glyph name="bar" format="2">
  <advance width="263.425"/>
  <unicode hex="007C"/>
  <outline>
    <contour>
      <point x="115.175" y="-165.0" type="curve"/>
      <point x="150.3875" y="-165.0" type="line"/>
      <point x="156.525" y="-165.0"/>
      <point x="159.5" y="-162.1875"/>
      <point x="159.5" y="-155.375" type="curve"/>
      <point x="159.5" y="835.5375" type="line" smooth="yes"/>
      <point x="159.5" y="843.35"/>
      <point x="156.525" y="847.0"/>
      <point x="149.0625" y="847.0" type="curve"/>
      <point x="113.0125" y="847.0" type="line" smooth="yes"/>
      <point x="106.9" y="847.0"/>
      <point x="103.925" y="843.5125"/>
      <point x="103.925" y="836.9125" type="curve"/>
      <point x="104.7625" y="-155.45" type="line" smooth="yes"/>
      <point x="104.7625" y="-161.7"/>
      <point x="107.7375" y="-165.0"/>
    </contour>
  </outline>
</glyph>
<glyph name="asciitilde" format="2">
  <advance width="557.275"/>
  <unicode hex="007E"/>
  <outline>
    <contour>
      <point x="490.3875" y="372.1625" type="curve"/>
      <point x="490.3875" y="372.1625" type="line"/>
      <point x="494.7125" y="377.8125"/>
      <point x="495.875" y="381.6"/>
      <point x="493.225" y="386.575" type="curve"/>
      <point x="481.1625" y="412.9375" type="line" smooth="yes"/>
      <point x="477.1875" y="421.075"/>
      <point x="472.8875" y="421.4"/>
      <point x="467.2375" y="415.1" type="curve"/>
      <point x="449.1" y="395.85"/>
      <point x="424.825" y="375.225"/>
      <point x="376.2875" y="375.225" type="curve"/>
      <point x="306.5875" y="375.225"/>
      <point x="260.8875" y="424.45"/>
      <point x="186.2875" y="424.45" type="curve"/>
      <point x="130.3375" y="424.45"/>
      <point x="96.9" y="398.6875"/>
      <point x="66.025" y="371.1625" type="curve"/>
      <point x="61.725" y="367.7"/>
      <point x="61.2375" y="364.725"/>
      <point x="63.725" y="359.075" type="curve"/>
      <point x="76.4125" y="332.1125" type="line" smooth="yes"/>
      <point x="79.7375" y="324.95"/>
      <point x="82.0375" y="324.95"/>
      <point x="87.2" y="330.275" type="curve"/>
      <point x="109.3125" y="352.0375"/>
      <point x="139.6375" y="373.9625"/>
      <point x="189.15" y="373.9625" type="curve"/>
      <point x="258.6625" y="373.9625"/>
      <point x="295.45" y="325.4125"/>
      <point x="376.1" y="325.4125" type="curve"/>
      <point x="434.2875" y="325.4125"/>
      <point x="473.0" y="348.7125"/>
    </contour>
  </outline>
</glyph>
<glyph name="exclamdown" format="2">
  <advance width="239.3125"/>
  <unicode hex="00A1"/>
  <outline>
    <contour>
      <point x="162.7625" y="441.775" type="curve"/>
      <point x="162.7625" y="441.775" type="line"/>
      <point x="162.7625" y="516.075" type="line" smooth="yes"/>
      <point x="162.7625" y="526.1875"/>
      <point x="158.7875" y="530.0"/>
      <point x="146.5125" y="530.0" type="curve"/>
      <point x="89.475" y="530.0" type="line" smooth="yes"/>
      <point x="79.525" y="530.0"/>
      <point x="76.7125" y="526.1875"/>
      <point x="76.7125" y="517.5625" type="curve"/>
      <point x="76.7125" y="442.9375" type="line" smooth="yes"/>
      <point x="76.7125" y="434.6375"/>
      <point x="80.525" y="431.825"/>
      <point x="85.6625" y="431.825" type="curve"/>
      <point x="153.975" y="431.825" type="line" smooth="yes"/>
      <point x="160.1125" y="431.825"/>
      <point x="162.7625" y="434.6375"/>
    </contour>
    <contour>
      <point x="160.875" y="-156.5625" type="curve"/>
      <point x="160.875" y="-156.5625" type="line"/>
      <point x="143.8625" y="351.575" type="line" smooth="yes"/>
      <point x="143.5375" y="359.85"/>
      <point x="139.725" y="362.825"/>
      <point x="130.125" y="362.825" type="curve"/>
      <point x="107.1875" y="362.825" type="line" smooth="yes"/>
      <point x="98.9125" y="362.825"/>
      <point x="96.75" y="359.85"/>
      <point x="96.2625" y="352.9" type="curve"/>
      <point x="79.7625" y="-155.4" type="line" smooth="yes"/>
      <point x="79.4375" y="-162.025"/>
      <point x="82.575" y="-165.0"/>
      <point x="87.0375" y="-165.0" type="curve"/>
      <point x="152.925" y="-165.0" type="line" smooth="yes"/>
      <point x="158.0625" y="-165.0"/>
      <point x="161.2" y="-161.1875"/>
    </contour>
  </outline>
</glyph>
<glyph name="cent" format="2">
  <advance width="558.0"/>
  <unicode hex="00A2"/>
  <outline>
    <contour>
      <point x="315.4" y="15.6" type="curve"/>
      <point x="315.4" y="15.6" type="line"/>
      <point x="315.4" y="122.2625" type="line" smooth="yes"/>
      <point x="315.4" y="129.2125"/>
      <point x="312.5875" y="133.1875"/>
      <point x="304.3125" y="133.1875" type="curve"/>
      <point x="273.325" y="133.1875" type="line" smooth="yes"/>
      <point x="264.725" y="133.1875"/>
      <point x="260.75" y="129.2125"/>
      <point x="260.75" y="120.9375" type="curve"/>
      <point x="260.75" y="14.275" type="line" smooth="yes"/>
      <point x="260.75" y="4.8125"/>
      <point x="264.4" y="0.0"/>
      <point x="275.1875" y="0.0" type="curve"/>
      <point x="299.475" y="0.0" type="line" smooth="yes"/>
      <point x="310.5875" y="0.0"/>
      <point x="315.4" y="4.8125"/>
    </contour>
    <contour>
      <point x="315.4" y="624.4125" type="curve"/>
      <point x="315.4" y="624.4125" type="line"/>
      <point x="315.4" y="731.075" type="line" smooth="yes"/>
      <point x="315.4" y="738.025"/>
      <point x="312.5875" y="742.0"/>
      <point x="304.3125" y="742.0" type="curve"/>
      <point x="273.325" y="742.0" type="line" smooth="yes"/>
      <point x="264.725" y="742.0"/>
      <point x="260.75" y="738.025"/>
      <point x="260.75" y="729.75" type="curve"/>
      <point x="260.75" y="623.0875" type="line" smooth="yes"/>
      <point x="260.75" y="613.625"/>
      <point x="264.4" y="608.8125"/>
      <point x="275.1875" y="608.8125" type="curve"/>
      <point x="299.475" y="608.8125" type="line" smooth="yes"/>
      <point x="310.5875" y="608.8125"/>
      <point x="315.4" y="613.625"/>
    </contour>
    <component base="c" yOffset="111.0"/>
  </outline>
</glyph>
<glyph name="sterling" format="2">
  <advance width="607.8875"/>
  <unicode hex="00A3"/>
  <outline>
    <contour>
      <point x="21.625" y="0.0" type="curve"/>
      <point x="21.625" y="0.0" type="line"/>
      <point x="360.825" y="0.0" type="line" smooth="yes"/>
      <point x="454.8375" y="0.0"/>
      <point x="523.55" y="39.525"/>
      <point x="553.3875" y="118.975" type="curve"/>
      <point x="555.55" y="124.4375"/>
      <point x="551.9" y="127.575"/>
      <point x="546.1125" y="129.7375" type="curve"/>
      <point x="507.7" y="141.175" type="line" smooth="yes"/>
      <point x="502.9125" y="142.5"/>
      <point x="497.5875" y="140.3375"/>
      <point x="495.2625" y="135.2" type="curve"/>
      <point x="471.725" y="79.9875"/>
      <point x="427.1375" y="60.150000000000006"/>
      <point x="358.225" y="60.150000000000006" type="curve"/>
      <point x="168.5125" y="60.150000000000006" type="line" smooth="yes"/>
      <point x="162.5375" y="60.150000000000006"/>
      <point x="161.05" y="62.6375"/>
      <point x="166.025" y="68.45" type="curve"/>
      <point x="181.8375" y="85.6125"/>
      <point x="216.775" y="134.7625"/>
      <point x="218.2375" y="233.7875" type="curve"/>
      <point x="219.375" y="274.375"/>
      <point x="215.8375" y="310.75"/>
      <point x="209.1375" y="348.75" type="curve"/>
      <point x="208.3" y="354.075"/>
      <point x="211.3" y="356.4"/>
      <point x="216.7875" y="356.4" type="curve"/>
      <point x="367.55" y="356.4" type="line" smooth="yes"/>
      <point x="372.2" y="356.4"/>
      <point x="374.525" y="358.725"/>
      <point x="374.525" y="363.375" type="curve"/>
      <point x="374.525" y="398.9875" type="line" smooth="yes"/>
      <point x="374.525" y="402.6375"/>
      <point x="372.2" y="404.9625"/>
      <point x="367.55" y="404.9625" type="curve"/>
      <point x="206.1375" y="404.9625" type="line" smooth="yes"/>
      <point x="202.325" y="404.9625"/>
      <point x="199.8375" y="408.2875"/>
      <point x="198.8375" y="411.9375" type="curve"/>
      <point x="187.8125" y="446.9375"/>
      <point x="173.925" y="510.4625"/>
      <point x="173.925" y="561.9625" type="curve"/>
      <point x="173.925" y="643.675"/>
      <point x="236.475" y="690.9625"/>
      <point x="315.05" y="690.9625" type="curve"/>
      <point x="379.7125" y="690.9625"/>
      <point x="416.4875" y="665.8"/>
      <point x="437.5375" y="626.9125" type="curve"/>
      <point x="439.8625" y="622.2625"/>
      <point x="444.675" y="621.1"/>
      <point x="450.4875" y="623.2625" type="curve"/>
      <point x="492.0125" y="638.975" type="line" smooth="yes"/>
      <point x="496.9875" y="641.1375"/>
      <point x="501.3125" y="642.7875"/>
      <point x="498.9875" y="648.6" type="curve"/>
      <point x="475.1125" y="705.4875"/>
      <point x="393.6125" y="752.0"/>
      <point x="308.3375" y="752.0" type="curve"/>
      <point x="179.0375" y="752.0"/>
      <point x="71.625" y="649.5"/>
      <point x="109.2625" y="484.8625" type="curve"/>
      <point x="125.3125" y="411.425" type="line" smooth="yes"/>
      <point x="126.3125" y="406.45"/>
      <point x="123.15" y="404.125"/>
      <point x="118.3375" y="404.125" type="curve"/>
      <point x="38.4" y="404.125" type="line" smooth="yes"/>
      <point x="34.5875" y="404.125"/>
      <point x="32.1" y="401.8"/>
      <point x="32.1" y="397.15" type="curve"/>
      <point x="32.1" y="362.8625" type="line" smooth="yes"/>
      <point x="32.1" y="358.05"/>
      <point x="34.5875" y="355.5625"/>
      <point x="38.4" y="355.5625" type="curve"/>
      <point x="129.6125" y="355.5625" type="line" smooth="yes"/>
      <point x="133.2625" y="355.5625"/>
      <point x="134.9125" y="354.2375"/>
      <point x="135.9125" y="349.5875" type="curve"/>
      <point x="143.5875" y="293.5875"/>
      <point x="147.9375" y="250.4875"/>
      <point x="147.9375" y="217.7375" type="curve"/>
      <point x="147.9375" y="107.625"/>
      <point x="105.05" y="58.3125"/>
      <point x="52.375" y="59.150000000000006" type="curve"/>
      <point x="20.3" y="59.150000000000006" type="line" smooth="yes"/>
      <point x="14.325" y="59.150000000000006"/>
      <point x="12.0" y="56.6625"/>
      <point x="12.0" y="50.85" type="curve"/>
      <point x="12.0" y="9.95" type="line" smooth="yes"/>
      <point x="12.0" y="3.8125"/>
      <point x="15.4875" y="0.0"/>
    </contour>
  </outline>
</glyph>
